<svg width="12" height="18" viewBox="0 0 12 18" fill="none" xmlns="http://www.w3.org/2000/svg">
<g clip-path="url(#clip0_116_6219)">
<path fill-rule="evenodd" clip-rule="evenodd" d="M6.66417 1.12771C6.4811 0.964925 6.24465 0.875 5.99967 0.875C5.75469 0.875 5.51824 0.964925 5.33517 1.12771L0.835171 5.12771C0.737008 5.21497 0.656994 5.32072 0.599698 5.4389C0.542401 5.55709 0.508944 5.68541 0.501237 5.81652C0.485671 6.08132 0.575935 6.34146 0.752171 6.53971C0.928408 6.73796 1.17618 6.85808 1.44098 6.87365C1.70578 6.88921 1.96592 6.79895 2.16417 6.62271L6.00017 3.21271L9.83617 6.62171C10.0344 6.79795 10.2946 6.88821 10.5594 6.87265C10.8242 6.85708 11.0719 6.73696 11.2482 6.53871C11.4244 6.34046 11.5147 6.08032 11.4991 5.81552C11.4835 5.55072 11.3634 5.30295 11.1652 5.12671L6.66517 1.12671L6.66417 1.12771ZM2.16417 12.1277C2.06601 12.0404 1.95162 11.9734 1.82753 11.9303C1.70345 11.8873 1.5721 11.8691 1.44098 11.8768C1.17618 11.8923 0.928408 12.0125 0.752171 12.2107C0.575935 12.409 0.485671 12.6691 0.501237 12.9339C0.516802 13.1987 0.636922 13.4465 0.835171 13.6227L5.33517 17.6227C5.51824 17.7855 5.75469 17.8754 5.99967 17.8754C6.24465 17.8754 6.4811 17.7855 6.66417 17.6227L11.1642 13.6227C11.3624 13.4465 11.4825 13.1987 11.4981 12.9339C11.5137 12.6691 11.4234 12.409 11.2472 12.2107C11.0709 12.0125 10.8232 11.8923 10.5584 11.8768C10.2936 11.8612 10.0334 11.9515 9.83517 12.1277L6.00017 15.5367L2.16417 12.1267V12.1277Z" fill="#777777"/>
</g>
<defs>
<clipPath id="clip0_116_6219">
<rect width="12" height="18" fill="white"/>
</clipPath>
</defs>
</svg>
