<svg width="128" height="251" viewBox="0 0 128 251" fill="none" xmlns="http://www.w3.org/2000/svg">
<g opacity="0.3">
<path d="M161.74 182.274C190.272 161.455 196.525 121.447 175.706 92.9154C154.886 64.3834 114.879 58.1309 86.3474 78.9501C57.8153 99.7692 51.5628 139.776 72.382 168.308C93.2011 196.84 133.208 203.093 161.74 182.274Z" fill="#64CF83"/>
<path d="M121.427 66.6983C116.326 69.3244 110.546 70.3337 104.857 69.5918C107.557 68.4533 109.57 66.7905 108.074 55.3659C106.848 46.0464 106.96 45.4011 105.867 38.9883C105.708 38.0229 105.549 37.1216 105.404 36.2759L109.711 35.5274C109.858 36.3627 110.015 37.2744 110.196 38.2327C111.331 44.652 111.536 45.2506 113.543 54.4356C116.04 65.6747 118.493 66.5283 121.427 66.6983Z" fill="#64CF83"/>
<path opacity="0.2" d="M110.199 38.2118C109.503 38.4501 108.788 38.6315 108.062 38.7543C107.346 38.8861 106.619 38.9585 105.891 38.9707C105.732 38.0053 105.573 37.1041 105.428 36.2583L109.734 35.5098C109.864 36.321 110.018 37.2535 110.199 38.2118Z" fill="black"/>
<path d="M115.733 31.114C115.639 30.61 115.441 30.1312 115.151 29.7084L114.947 29.4413L114.857 29.3311C114.739 29.202 114.611 29.0819 114.475 28.9721L114.253 28.8199L113.891 28.603C112.189 27.6636 109.311 27.342 106.169 27.8877C103.026 28.4334 100.432 29.7167 99.1443 31.1829L98.8906 31.5067C98.836 31.5779 98.7851 31.652 98.7383 31.7287C98.6391 31.8772 98.5568 32.0365 98.4931 32.2034L98.4719 32.339C98.454 32.4538 98.4377 32.5581 98.4214 32.6625C98.287 33.1566 98.2609 33.6738 98.3447 34.1789C98.4385 34.6696 98.6311 35.1361 98.9107 35.55C99.9582 37.3277 103.706 38.17 107.925 37.4398C112.143 36.7096 115.385 34.6403 115.767 32.6051C115.857 32.1109 115.845 31.6036 115.733 31.114Z" fill="#64CF83"/>
<path opacity="0.3" d="M112.057 30.4967C112.3 31.8814 110.138 33.4033 107.244 33.9344C104.35 34.4654 101.783 33.7223 101.54 32.3375C101.394 31.4917 102.159 30.5638 103.474 29.8821C102.228 31.0128 102.743 32.4399 104.597 32.8153C106.618 33.041 108.661 32.6608 110.465 31.7229C111.486 31.0702 112.014 30.3617 111.454 29.5687C111.763 29.792 111.978 30.1229 112.057 30.4967Z" fill="black"/>
<path d="M94.455 73.8447C91.4193 77.6172 87.3088 80.378 82.6683 81.7612C84.3619 79.9523 83.3493 74.9415 78.2515 66.6629C77.1518 64.8771 76.7341 63.5826 73.6877 59.0021C73.2293 58.3106 72.827 57.6705 72.3972 57.0689L75.4651 55.0153L76.7676 56.9397C78.4326 59.3983 80.2241 61.7689 82.1348 64.0419C87.9298 71.8951 92.1791 74.7289 94.455 73.8447Z" fill="#64CF83"/>
<path opacity="0.2" d="M76.7886 56.9431C76.3302 57.362 75.8414 57.7465 75.3263 58.0933C74.8115 58.4388 74.2706 58.7437 73.7087 59.0056C73.2503 58.314 72.8479 57.6739 72.4182 57.0724L75.4861 55.0187L76.7886 56.9431Z" fill="black"/>
<path d="M78.0224 50.755C77.8136 50.4582 77.5478 50.2059 77.2406 50.0129L77.0345 49.8951L76.9406 49.8805C76.8224 49.8294 76.7 49.7888 76.5748 49.7592L76.0844 49.6825C74.2171 49.801 72.4148 50.4134 70.8619 51.4572C69.309 52.5009 68.0614 53.9385 67.2466 55.6229L67.2009 55.915C67.1859 55.9767 67.1761 56.0395 67.1715 56.1028C67.1413 56.2261 67.1216 56.3518 67.1128 56.4784C67.1128 56.4784 67.1031 56.541 67.0982 56.5723L67.1249 56.8117C67.1874 57.1699 67.3233 57.5113 67.524 57.8146C67.7224 58.1058 67.9784 58.3531 68.2761 58.5414C69.4776 59.4025 72.1597 58.8598 74.6912 57.1605C77.2228 55.4612 78.7223 53.1838 78.3797 51.7514C78.3315 51.398 78.2097 51.0585 78.0224 50.755Z" fill="#64CF83"/>
<path opacity="0.3" d="M75.4489 51.4218C76.0146 52.2477 75.0657 53.8737 73.2998 55.0514C71.5339 56.229 69.6962 56.4976 69.1305 55.6717C68.7938 55.1594 69.0197 54.329 69.6712 53.5116C69.2013 54.6032 69.9454 55.3822 71.2515 55.0947C72.6324 54.6521 73.8526 53.8132 74.7603 52.6823C75.2252 51.964 75.3632 51.355 74.7675 50.9947C75.0421 51.0416 75.287 51.1951 75.4489 51.4218Z" fill="black"/>
<path d="M74.86 89.7973C73.3953 95.3446 70.2774 100.315 65.9205 104.048C66.8785 101.269 63.3495 96.3567 53.8525 89.8276C46.1334 84.5061 38.4962 79.5502 32.9919 76.0606L30.6509 74.6259L32.9816 70.9286L35.3226 72.3633C40.8664 75.8056 48.6311 80.4929 56.8383 85.1531C66.7693 90.8202 72.721 91.8572 74.86 89.7973Z" fill="#64CF83"/>
<path opacity="0.2" d="M35.2732 72.3341C34.681 73.6809 33.8946 74.9336 32.9391 76.0523L30.5981 74.6176L32.9289 70.9203L35.2732 72.3341Z" fill="black"/>
<path d="M33.7339 62.9014C33.2785 62.6181 32.7674 62.4362 32.2354 62.3679L31.8911 62.3141L31.745 62.2912C31.5553 62.2978 31.3664 62.3183 31.1797 62.3525C31.0904 62.3659 31.0019 62.3842 30.9146 62.4073L30.4888 62.5331C28.5562 63.2038 26.264 65.2184 24.4918 68.009C22.7196 70.7996 21.8904 73.7803 22.128 75.8162C22.1068 75.9518 22.1795 76.1021 22.2105 76.2459C22.2415 76.3897 22.1844 76.4129 22.2636 76.5214C22.3198 76.6989 22.3853 76.8732 22.4599 77.0438L22.5359 77.1732C22.5894 77.275 22.649 77.3736 22.7142 77.4683C23.0093 77.9211 23.3972 78.306 23.8524 78.5975C24.2975 78.8696 24.793 79.0489 25.3092 79.1244C27.4438 79.5542 30.7484 77.2169 33.1405 73.4009C35.5325 69.5848 36.1972 65.6057 34.8757 63.8708C34.5655 63.4729 34.1769 63.1429 33.7339 62.9014Z" fill="#64CF83"/>
<path opacity="0.3" d="M30.6637 65.382C31.92 66.1662 31.5938 68.937 29.9416 71.5753C28.2894 74.2137 25.9294 75.7046 24.6836 74.9221C23.9148 74.4385 23.7267 73.1799 24.1213 71.6811C24.146 73.4379 25.6106 74.0515 27.2063 72.8687C28.8054 71.4469 29.9482 69.5838 30.4908 67.514C30.6882 66.2516 30.504 65.3784 29.5023 65.2219C29.8957 65.1247 30.3113 65.1821 30.6637 65.382Z" fill="black"/>
<path d="M62.3654 113.732C62.6781 119.11 61.9127 124.496 60.1141 129.573C60.0845 126.822 56.9395 124.171 49.8897 122.706C44.1447 121.509 38.5637 120.562 34.5419 119.966L32.8516 119.701L33.4298 115.591L35.1305 115.857C39.1589 116.412 44.7871 117.056 50.6375 117.511C57.8132 118.034 61.5609 116.418 62.3654 113.732Z" fill="#64CF83"/>
<path opacity="0.2" d="M35.2083 115.837C35.1786 116.506 35.1231 117.203 35.0178 117.945C34.9196 118.643 34.7829 119.336 34.6082 120.019L32.8449 119.743L33.4232 115.633L35.2083 115.837Z" fill="black"/>
<path d="M31.3602 110.437C30.9961 110.387 30.6256 110.421 30.2761 110.534L30.0407 110.604L29.9386 110.642C29.8191 110.7 29.7047 110.768 29.5969 110.845L29.4296 110.958L29.1939 111.167C27.9583 112.712 27.1599 114.56 26.882 116.519C26.604 118.478 26.8568 120.475 27.6138 122.303C27.6651 122.394 27.7228 122.482 27.7866 122.565L27.8994 122.732C27.9857 122.831 28.0782 122.924 28.1765 123.011L28.2727 123.079L28.4755 123.218C28.7946 123.429 29.1566 123.565 29.5352 123.619C29.8969 123.668 30.2649 123.642 30.616 123.542C32.1335 123.202 33.6119 120.718 34.0675 117.529C34.5231 114.34 33.7951 111.544 32.4264 110.796C32.1011 110.6 31.7374 110.478 31.3602 110.437Z" fill="#64CF83"/>
<path opacity="0.3" d="M30.0742 112.918C31.1175 113.081 31.7096 114.97 31.3968 117.176C31.084 119.382 29.9826 121.027 28.936 120.885C28.2891 120.784 27.8092 120.025 27.6263 118.938C28.1414 120.088 29.2816 120.041 29.9862 118.815C30.6115 117.42 30.8126 115.872 30.5645 114.363C30.3281 113.482 29.9529 112.942 29.2571 113.154C29.3695 113.06 29.5002 112.991 29.6408 112.95C29.7815 112.91 29.9291 112.899 30.0742 112.918Z" fill="black"/>
<path d="M60.7693 139.883C63.9094 144.687 65.517 150.332 65.3794 156.069C63.954 153.495 57.9534 152.771 46.7394 155.518C37.5998 157.713 28.8227 160.051 22.5416 161.805C21.5927 162.063 20.7186 162.322 19.8911 162.556L18.6887 158.349L21.3425 157.578C27.6005 155.766 36.2947 153.138 45.2114 150.181C56.1544 146.569 60.9084 142.822 60.7693 139.883Z" fill="#64CF83"/>
<path opacity="0.2" d="M21.3421 157.578C21.64 158.249 21.8889 158.942 22.087 159.65C22.294 160.354 22.4424 161.075 22.5307 161.804C21.5819 162.061 20.7077 162.32 19.8802 162.554L18.6779 158.348L21.3421 157.578Z" fill="black"/>
<path d="M12.6246 151.737C12.0626 151.904 11.5416 152.187 11.0948 152.567C10.9974 152.65 10.905 152.739 10.818 152.833L10.6941 152.942C10.5611 153.096 10.4392 153.259 10.3292 153.43C10.2768 153.52 10.2302 153.612 10.1896 153.708C10.1668 153.854 10.0396 153.984 9.97344 154.134C9.1152 156.137 9.06619 159.529 10.0758 163.053C11.0855 166.578 12.8676 169.4 14.6967 170.691C14.8277 170.784 14.9643 170.87 15.1056 170.947L15.371 171.095C15.5531 171.184 15.7413 171.26 15.934 171.322L16.1532 171.357C16.2765 171.387 16.4021 171.406 16.5288 171.415C17.1081 171.512 17.7018 171.477 18.2656 171.313C18.8258 171.154 19.342 170.869 19.7746 170.48C21.6945 169.07 22.1987 164.681 20.8523 159.96C19.5058 155.239 16.7883 151.768 14.3713 151.572C13.784 151.5 13.1881 151.556 12.6246 151.737Z" fill="#64CF83"/>
<path opacity="0.3" d="M12.3731 156.015C13.9277 155.574 15.9423 157.867 16.9148 161.15C17.8873 164.434 17.3358 167.415 15.7796 167.867C14.8291 168.135 13.719 167.374 12.7324 165.958C14.1761 167.253 15.7581 166.431 15.959 164.325C15.9718 161.981 15.2934 159.685 14.0085 157.725C13.1086 156.643 12.2596 156.126 11.418 156.86C11.6174 156.467 11.9589 156.165 12.3731 156.015Z" fill="black"/>
<path d="M69.7854 164.465C74.5103 168.084 78.3764 172.703 81.1067 177.991C78.7967 176.016 73.9806 176.878 66.8985 182.184C61.1188 186.475 55.6987 190.791 51.8574 193.963L50.2356 195.313L47.2918 191.785C47.7945 191.372 48.3417 190.881 48.9031 190.434C52.7093 187.213 57.9236 182.641 63.1638 177.699C69.5458 171.674 71.3278 167.111 69.7854 164.465Z" fill="#64CF83"/>
<path opacity="0.2" d="M48.9039 190.434C49.4623 190.965 49.9881 191.529 50.4784 192.123C50.9705 192.711 51.4311 193.326 51.8582 193.963L50.2363 195.313L47.2925 191.785C47.7953 191.372 48.3672 190.927 48.9039 190.434Z" fill="black"/>
<path d="M41.3398 189.861C41.0092 190.137 40.7435 190.482 40.5618 190.872C40.5175 190.956 40.479 191.043 40.4464 191.132C40.4345 191.169 40.4285 191.208 40.4284 191.247C40.3949 191.391 40.372 191.537 40.3599 191.685C40.3485 191.758 40.3371 191.831 40.3257 191.904C40.3143 191.977 40.2898 192.134 40.2719 192.248C40.6345 194.439 41.5778 196.493 43.0036 198.195C44.4295 199.897 46.2856 201.186 48.3788 201.927L48.9527 202.017C49.1041 202.021 49.2556 202.012 49.4056 201.991L49.5203 202.009C49.6107 201.994 49.6999 201.973 49.787 201.944C50.2114 201.84 50.6072 201.642 50.9462 201.366C51.261 201.105 51.5189 200.781 51.7039 200.416C52.5723 198.895 51.6017 195.804 49.2872 193.037C46.9726 190.271 44.0979 188.763 42.4458 189.35C42.0461 189.443 41.6697 189.617 41.3398 189.861Z" fill="#64CF83"/>
<path opacity="0.3" d="M42.4409 192.801C43.35 192.046 45.3855 192.973 46.9779 194.889C48.5703 196.806 49.1303 198.967 48.2213 199.722C47.667 200.192 46.6686 200.014 45.6233 199.316C46.9696 199.73 47.847 198.766 47.2918 197.258C46.6057 195.684 45.4676 194.349 44.022 193.423C43.111 192.96 42.3758 192.877 42.0255 193.613C42.0555 193.299 42.2041 193.009 42.4409 192.801Z" fill="black"/>
<path d="M90.2327 184.911C94.3498 186.264 98.2624 188.174 101.862 190.587C100.155 190.021 97.1911 190.723 94.9853 194.237C93.0253 197.34 91.4037 200.261 90.3453 202.383C90.1767 202.709 90.0339 203.008 89.8943 203.285L87.4412 202.09C87.5807 201.812 87.7252 201.503 87.8817 201.186C89.2312 198.401 90.3941 195.53 91.3626 192.591C92.6637 188.37 91.7325 185.915 90.2327 184.911Z" fill="#64CF83"/>
<path opacity="0.2" d="M87.8502 201.181C88.2774 201.339 88.6949 201.522 89.1006 201.729C89.5385 201.936 89.9418 202.16 90.3138 202.378C90.1453 202.705 90.0024 203.003 89.8629 203.28L87.4097 202.085C87.5493 201.807 87.6937 201.498 87.8502 201.181Z" fill="black"/>
<path d="M82.1274 202.852C81.9792 203.15 81.8989 203.477 81.8922 203.809C81.8759 203.881 81.8644 203.955 81.858 204.028C81.858 204.028 81.8499 204.081 81.845 204.112C81.8603 204.228 81.8852 204.343 81.9196 204.455L81.9698 204.612C81.9568 204.696 82.0393 204.784 82.0784 204.875C83.0232 206.306 84.3328 207.459 85.872 208.214C87.4113 208.969 89.1242 209.3 90.834 209.172L91.1007 209.107L91.2598 209.046C91.3685 209.004 91.4731 208.953 91.5725 208.892L91.6449 208.839L91.8154 208.706C92.0779 208.499 92.2906 208.237 92.4379 207.937C92.5752 207.643 92.6539 207.325 92.6698 207.001C92.8038 205.664 91.1423 203.78 88.6403 202.555C86.1382 201.33 83.64 201.175 82.6615 202.102C82.4319 202.311 82.2498 202.567 82.1274 202.852Z" fill="#64CF83"/>
<path opacity="0.3" d="M83.8238 204.581C84.2304 203.758 85.9581 203.782 87.6855 204.629C89.4129 205.476 90.4839 206.83 90.0878 207.655C89.8377 208.161 89.0809 208.353 88.1298 208.215C89.2188 208.086 89.494 207.145 88.6636 206.235C87.6856 205.341 86.4627 204.759 85.1518 204.564C84.3578 204.515 83.8075 204.685 83.8051 205.316C83.7232 205.077 83.7298 204.816 83.8238 204.581Z" fill="black"/>
<path d="M114.383 193.699C119.906 192.074 125.794 192.178 131.257 193.995C128.381 194.614 126.081 195.858 125.406 207.36C124.848 216.743 124.613 217.358 124.47 223.877C124.445 224.857 124.43 225.774 124.413 226.637L120.034 226.551C120.046 225.698 120.061 224.781 120.079 223.8C120.157 217.282 120.125 216.667 119.852 207.262C119.517 195.73 117.233 194.411 114.383 193.699Z" fill="#64CF83"/>
<path opacity="0.2" d="M120.026 223.792C120.741 223.692 121.463 223.648 122.185 223.659C122.92 223.671 123.652 223.739 124.376 223.863C124.351 224.842 124.336 225.759 124.319 226.622L119.94 226.536C119.952 225.683 119.981 224.768 120.026 223.792Z" fill="black"/>
<path d="M113.242 229.722C113.238 230.233 113.345 230.738 113.556 231.203C113.594 231.306 113.639 231.406 113.691 231.502L113.756 231.63C113.854 231.778 113.96 231.919 114.075 232.054L114.259 232.243L114.568 232.526C116.061 233.775 118.832 234.646 122.02 234.696C125.209 234.745 128 233.984 129.533 232.792L129.842 232.519C129.854 232.446 129.978 232.402 130.032 232.335C130.157 232.207 130.268 232.067 130.364 231.917C130.364 231.917 130.379 231.823 130.385 231.781C130.443 231.69 130.494 231.594 130.537 231.495C130.765 231.033 130.888 230.527 130.897 230.012C130.901 229.516 130.803 229.024 130.61 228.567C129.92 226.621 126.399 225.076 122.113 225.005C117.828 224.934 114.262 226.343 113.502 228.266C113.316 228.728 113.228 229.224 113.242 229.722Z" fill="#64CF83"/>
<path opacity="0.3" d="M116.738 231.016C116.765 229.61 119.182 228.513 122.134 228.568C125.086 228.623 127.457 229.795 127.44 231.203C127.423 232.066 126.491 232.829 125.077 233.26C126.492 232.413 126.272 230.882 124.494 230.155C122.548 229.549 120.466 229.536 118.514 230.118C117.374 230.571 116.746 231.167 117.144 232.042C116.883 231.764 116.738 231.398 116.738 231.016Z" fill="black"/>
<path opacity="0.1" d="M177.203 166.182C166.237 181.634 122.381 202.024 86.4349 172.486C50.4888 142.947 69.3078 96.326 80.0842 84.1366C73.5453 90.3205 68.3852 97.8149 64.9413 106.13C61.4974 114.445 59.8473 123.393 60.0988 132.389C60.3504 141.386 62.4979 150.228 66.401 158.337C70.3042 166.447 75.875 173.641 82.7493 179.45C89.6236 185.259 97.6465 189.551 106.294 192.047C114.941 194.543 124.017 195.185 132.929 193.932C141.842 192.679 150.389 189.559 158.013 184.777C165.637 179.994 172.165 173.656 177.172 166.177L177.203 166.182Z" fill="black"/>
<path d="M88.2331 144.228C90.6728 148.383 90.116 153.244 86.9956 155.087C83.8753 156.929 79.3507 155.036 76.911 150.881C74.4713 146.727 75.0264 141.876 78.1468 140.033C81.2672 138.191 85.7934 140.074 88.2331 144.228Z" fill="#64CF83"/>
<path opacity="0.15" d="M88.2331 144.228C90.6728 148.383 90.116 153.244 86.9956 155.087C83.8753 156.929 79.3507 155.036 76.911 150.881C74.4713 146.727 75.0264 141.876 78.1468 140.033C81.2672 138.191 85.7934 140.074 88.2331 144.228Z" fill="black"/>
<path opacity="0.15" d="M77.7156 143.611C78.2749 141.4 82.1464 141.385 84.6579 145.081C86.6372 148.009 86.9697 151.695 85.5947 153.243C85.3493 153.508 85.0538 153.721 84.7254 153.871C84.3969 154.021 84.042 154.103 83.6812 154.115C83.3205 154.126 82.9611 154.065 82.6239 153.936C82.2868 153.808 81.9786 153.613 81.7173 153.364C83.1349 153.8 84.4633 152.96 84.6048 150.823C84.6615 149.46 84.3873 148.104 83.8058 146.87C83.2244 145.636 82.3528 144.562 81.2657 143.738C79.8428 142.789 78.4434 142.784 77.7156 143.611Z" fill="black"/>
<path d="M114.322 112.906C111.106 115.364 106.997 115.395 105.151 112.98C103.305 110.564 104.416 106.601 107.602 104.138C110.787 101.676 114.917 101.648 116.771 104.075C118.626 106.503 117.583 110.508 114.322 112.906Z" fill="#64CF83"/>
<path opacity="0.15" d="M114.322 112.906C111.106 115.364 106.997 115.395 105.151 112.98C103.305 110.564 104.416 106.601 107.602 104.138C110.787 101.676 114.917 101.648 116.771 104.075C118.626 106.503 117.583 110.508 114.322 112.906Z" fill="black"/>
<path opacity="0.15" d="M113.762 104.118C115.669 104.363 116.073 107.59 113.25 110.056C111.011 112.004 107.971 112.651 106.584 111.675C106.338 111.497 106.13 111.271 105.972 111.012C105.814 110.752 105.709 110.464 105.663 110.163C105.618 109.863 105.632 109.556 105.706 109.261C105.781 108.966 105.913 108.689 106.095 108.446C105.901 109.687 106.718 110.681 108.504 110.607C109.648 110.516 110.752 110.149 111.722 109.537C112.693 108.926 113.501 108.088 114.076 107.096C114.694 105.814 114.534 104.645 113.762 104.118Z" fill="black"/>
<path d="M121.695 148.486C126.491 148.989 130.066 152.306 129.694 155.914C129.323 159.522 125.135 162.042 120.348 161.55C115.562 161.059 111.967 157.729 112.339 154.121C112.71 150.513 116.898 147.993 121.695 148.486Z" fill="#64CF83"/>
<path opacity="0.15" d="M121.695 148.486C126.491 148.989 130.066 152.306 129.694 155.914C129.323 159.522 125.135 162.042 120.348 161.55C115.562 161.059 111.967 157.729 112.339 154.121C112.71 150.513 116.898 147.993 121.695 148.486Z" fill="black"/>
<path opacity="0.15" d="M114.967 156.594C113.522 154.829 115.796 151.7 120.258 151.874C123.785 152.008 126.949 153.924 127.391 155.949C127.459 156.305 127.455 156.67 127.38 157.025C127.305 157.379 127.161 157.715 126.955 158.013C126.75 158.311 126.487 158.565 126.182 158.76C125.878 158.956 125.537 159.089 125.181 159.152C126.387 158.272 126.484 156.695 124.861 155.319C123.796 154.463 122.54 153.879 121.2 153.615C119.859 153.352 118.476 153.417 117.166 153.806C115.54 154.364 114.729 155.52 114.967 156.594Z" fill="black"/>
<path d="M98.4908 99.0378C94.5076 101.75 89.6266 101.522 87.5824 98.5301C85.5382 95.5385 87.1181 90.9008 91.1012 88.1885C95.0843 85.4762 99.9653 85.7046 102.008 88.7067C104.051 91.7087 102.474 96.3255 98.4908 99.0378Z" fill="#64CF83"/>
<path opacity="0.15" d="M98.4908 99.0378C94.5076 101.75 89.6266 101.522 87.5824 98.5301C85.5382 95.5385 87.1181 90.9008 91.1012 88.1885C95.0843 85.4762 99.9653 85.7046 102.008 88.7067C104.051 91.7087 102.474 96.3255 98.4908 99.0378Z" fill="black"/>
<path opacity="0.15" d="M98.405 88.5071C100.649 88.9219 100.942 92.7941 97.4031 95.5332C94.616 97.7056 90.9671 98.279 89.3258 97.0177C89.0434 96.7904 88.8091 96.5089 88.6369 96.1899C88.4646 95.8708 88.3577 95.5206 88.3225 95.1597C88.2874 94.7989 88.3246 94.4346 88.432 94.0883C88.5394 93.742 88.7148 93.4206 88.948 93.1429C88.6034 94.5961 89.5903 95.8726 91.6649 95.8655C93.0314 95.8324 94.3694 95.4681 95.5641 94.804C96.7589 94.14 97.7746 93.1959 98.5242 92.0529C99.4069 90.5769 99.2834 89.1788 98.405 88.5071Z" fill="black"/>
<path d="M104.7 168.254C107.991 169.698 109.792 172.876 108.699 175.356C107.606 177.836 104.064 178.682 100.763 177.237C97.4617 175.791 95.6709 172.614 96.7639 170.134C97.8569 167.654 101.399 166.808 104.7 168.254Z" fill="#64CF83"/>
<path opacity="0.15" d="M104.7 168.254C107.991 169.698 109.792 172.876 108.699 175.356C107.606 177.836 104.064 178.682 100.763 177.237C97.4617 175.791 95.6709 172.614 96.7639 170.134C97.8569 167.654 101.399 166.808 104.7 168.254Z" fill="black"/>
<path opacity="0.15" d="M98.0642 172.486C97.4353 170.902 99.7758 169.194 102.911 170.336C105.389 171.237 107.201 173.316 107.057 174.854C107.024 175.122 106.938 175.38 106.804 175.615C106.671 175.85 106.492 176.056 106.278 176.221C106.065 176.386 105.82 176.508 105.56 176.578C105.299 176.649 105.027 176.667 104.759 176.632C105.809 176.273 106.238 175.174 105.401 173.825C104.835 172.976 104.073 172.275 103.178 171.784C102.283 171.292 101.283 171.024 100.263 171.002C98.9749 171.036 98.1392 171.664 98.0642 172.486Z" fill="black"/>
<path d="M135.692 167.807C140.401 166.469 145.046 168.275 146.042 171.819C147.038 175.363 144.034 179.329 139.317 180.654C134.599 181.98 129.961 180.197 128.967 176.643C127.972 173.088 130.972 169.143 135.692 167.807Z" fill="#64CF83"/>
<path opacity="0.15" d="M135.692 167.807C140.401 166.469 145.046 168.275 146.042 171.819C147.038 175.363 144.034 179.329 139.317 180.654C134.599 181.98 129.961 180.197 128.967 176.643C127.972 173.088 130.972 169.143 135.692 167.807Z" fill="black"/>
<path d="M122.885 86.2297C119.752 86.4454 117.084 84.7032 116.918 82.3472C116.752 79.9911 119.174 77.9006 122.305 77.6953C125.437 77.49 128.118 79.2129 128.272 81.5778C128.426 83.9426 126.029 86.0156 122.885 86.2297Z" fill="#64CF83"/>
<path opacity="0.15" d="M122.885 86.2297C119.752 86.4454 117.084 84.7032 116.918 82.3472C116.752 79.9911 119.174 77.9006 122.305 77.6953C125.437 77.49 128.118 79.2129 128.272 81.5778C128.426 83.9426 126.029 86.0156 122.885 86.2297Z" fill="black"/>
<path opacity="0.15" d="M126.316 80.2778C127.435 81.2543 126.328 83.4861 123.431 83.8991C121.149 84.2052 118.904 83.3199 118.377 82.0405C118.295 81.8194 118.257 81.5842 118.266 81.3485C118.275 81.1127 118.33 80.8811 118.429 80.6669C118.528 80.4528 118.669 80.2605 118.843 80.101C119.017 79.9415 119.22 79.8181 119.442 79.7379C118.778 80.4357 118.885 81.4572 120.13 82.1755C120.911 82.6057 121.784 82.84 122.674 82.8582C123.565 82.8764 124.447 82.678 125.244 82.28C126.189 81.7756 126.587 80.94 126.316 80.2778Z" fill="black"/>
<path d="M103.38 130.948C104.663 133.821 103.942 136.925 101.782 137.891C99.6214 138.858 96.8399 137.301 95.5574 134.428C94.2748 131.556 94.9951 128.451 97.166 127.486C99.3369 126.522 102.105 128.098 103.38 130.948Z" fill="#64CF83"/>
<path opacity="0.15" d="M103.38 130.948C104.663 133.821 103.942 136.925 101.782 137.891C99.6214 138.858 96.8399 137.301 95.5574 134.428C94.2748 131.556 94.9951 128.451 97.166 127.486C99.3369 126.522 102.105 128.098 103.38 130.948Z" fill="black"/>
<path opacity="0.15" d="M96.6161 129.773C97.1437 128.381 99.6552 128.656 101.004 131.239C102.075 133.277 102.021 135.674 101.013 136.585C100.834 136.737 100.627 136.852 100.403 136.924C100.179 136.996 99.9428 137.022 99.7085 137.003C99.4742 136.983 99.2461 136.917 99.0373 136.809C98.8285 136.701 98.6432 136.552 98.4919 136.372C99.3814 136.768 100.297 136.313 100.554 134.942C100.69 134.063 100.611 133.164 100.324 132.323C100.036 131.481 99.5493 130.722 98.9043 130.109C98.0566 129.378 97.1511 129.29 96.6161 129.773Z" fill="black"/>
<path d="M80.4106 116.584C79.5771 119.661 77.0651 121.577 74.7792 120.952C72.4932 120.328 71.3209 117.365 72.1478 114.331C72.9748 111.296 75.4917 109.349 77.7672 109.972C80.0427 110.595 81.2359 113.56 80.4106 116.584Z" fill="#64CF83"/>
<path opacity="0.15" d="M80.4106 116.584C79.5771 119.661 77.0651 121.577 74.7792 120.952C72.4932 120.328 71.3209 117.365 72.1478 114.331C72.9748 111.296 75.4917 109.349 77.7672 109.972C80.0427 110.595 81.2359 113.56 80.4106 116.584Z" fill="black"/>
<path opacity="0.15" d="M75.9089 111.402C77.1913 110.651 78.9509 112.455 78.3773 115.305C77.9175 117.563 76.3491 119.391 75.0025 119.459C74.7637 119.471 74.5249 119.434 74.3005 119.352C74.0761 119.269 73.8707 119.142 73.6967 118.978C73.5226 118.814 73.3835 118.617 73.2877 118.398C73.1919 118.178 73.1414 117.942 73.1392 117.703C73.5819 118.563 74.5826 118.795 75.6429 117.891C76.3111 117.301 76.8256 116.558 77.142 115.725C77.4585 114.891 77.5673 113.994 77.4592 113.109C77.2796 112.001 76.6203 111.364 75.9089 111.402Z" fill="black"/>
<path d="M132.466 133.55C135.11 130.386 134.289 125.344 130.633 122.289C126.976 119.233 121.869 119.322 119.225 122.486C116.581 125.65 117.402 130.692 121.058 133.747C124.714 136.802 129.822 136.714 132.466 133.55Z" fill="#64CF83"/>
<path opacity="0.15" d="M132.466 133.55C135.11 130.386 134.289 125.344 130.633 122.289C126.976 119.233 121.869 119.322 119.225 122.486C116.581 125.65 117.402 130.692 121.058 133.747C124.714 136.802 129.822 136.714 132.466 133.55Z" fill="black"/>
<path opacity="0.15" d="M123.08 122.665C120.528 123.538 119.264 127.114 121.424 130.594C123.584 134.074 129.837 135.03 131.342 131.556C130.015 131.943 128.608 131.974 127.266 131.644C125.923 131.314 124.691 130.635 123.694 129.677C121.373 127.294 121.383 124.292 123.08 122.665Z" fill="black"/>
</g>
</svg>
