<svg width="151" height="164" viewBox="0 0 151 164" fill="none" xmlns="http://www.w3.org/2000/svg">
<g opacity="0.5">
<path d="M16.253 64.5664C17.9366 66.519 19.1194 68.8523 19.6991 71.3645C18.8993 70.3177 16.6059 70.3177 12.7717 72.0231C9.63137 73.411 6.65574 74.8458 4.53869 75.9044L3.64482 76.3513L2.75098 74.5871L3.64482 74.1284C5.7501 73.0463 8.66695 71.4821 11.6426 69.7767C15.2768 67.6832 16.6294 65.8366 16.253 64.5664Z" fill="#F0F0F0"/>
<path d="M3.84483 74.0688C4.04034 74.3364 4.21343 74.6196 4.36233 74.9157C4.5145 75.2154 4.64422 75.5259 4.75044 75.8448L3.63313 76.3976L2.73926 74.6334L3.84483 74.0688Z" fill="#E0E0E0"/>
<path d="M0.634328 72.9632C0.458128 73.0523 0.305097 73.1811 0.187389 73.3396C0.153982 73.3652 0.126024 73.3972 0.105087 73.4337C0.0667866 73.4927 0.0352055 73.5558 0.0109757 73.6219C0.00429796 73.6529 0.00429796 73.685 0.0109757 73.716C0.00432186 73.7667 0.00432186 73.8181 0.0109757 73.8688C-0.0517324 74.8731 0.155101 75.8758 0.610028 76.7732C1.06496 77.6707 1.75146 78.4303 2.59849 78.9733L2.7514 79.0321H2.84547H3.04543H3.22185C3.41888 79.0331 3.61298 78.9846 3.78637 78.891C3.95675 78.8034 4.10854 78.6835 4.23331 78.5381C4.76257 77.95 4.65673 76.4916 3.91576 75.0097C3.1748 73.5278 2.05746 72.5986 1.26945 72.6574C1.03608 72.7063 0.818102 72.8113 0.634328 72.9632Z" fill="#F0F0F0"/>
<path d="M0.81051 74.3745C1.29273 74.1393 2.0925 74.7508 2.61 75.7623C3.1275 76.7738 3.13928 77.7853 2.66883 78.0205C2.19837 78.2557 1.95137 78.0205 1.55148 77.5971C2.10427 77.9147 2.56298 77.5971 2.49241 76.8561C2.3496 76.0937 1.98554 75.3901 1.44563 74.8332C1.09279 74.5391 0.775224 74.4215 0.551758 74.7155C0.589881 74.5723 0.682823 74.4498 0.81051 74.3745Z" fill="#E0E0E0"/>
<path d="M23.4622 76.2925C25.7486 77.4498 27.7553 79.0913 29.3429 81.1029C28.1668 80.456 27.1436 80.1267 24.6384 82.8906C22.5684 85.1488 22.3684 85.2429 21.0276 86.8777C20.8159 87.113 20.6277 87.3482 20.4513 87.5599L18.9224 86.3132L19.4751 85.6192C20.8042 83.9609 20.8983 83.7845 22.686 81.3028C24.8618 78.2684 24.3326 77.2804 23.4622 76.2925Z" fill="#F0F0F0"/>
<path d="M19.7108 85.3477C20.003 85.5086 20.2787 85.6977 20.5341 85.9122C20.7935 86.1215 21.0373 86.3495 21.2633 86.5944L20.4636 87.5588L18.9346 86.3121L19.7108 85.3477Z" fill="#E0E0E0"/>
<path d="M15.6418 85.5596C15.4985 85.74 15.3943 85.9483 15.336 86.1712V86.3241C15.336 86.3241 15.336 86.3241 15.336 86.3829C15.3242 86.4648 15.3242 86.548 15.336 86.6299C15.3308 86.6689 15.3308 86.7085 15.336 86.7475C15.3309 86.8102 15.3309 86.8731 15.336 86.9357C15.7547 88.0531 16.4636 89.0387 17.3897 89.7911C18.3158 90.5436 19.4257 91.0357 20.6051 91.2168H20.9226H21.1579H21.2166L21.346 91.1581C21.556 91.0594 21.7409 90.9147 21.8871 90.7347C22.0301 90.5585 22.1343 90.3541 22.1929 90.1348C22.4869 89.2527 21.6636 87.712 20.1581 86.4888C18.6527 85.2656 16.9825 84.7716 16.171 85.2539C15.9759 85.3194 15.796 85.4234 15.6418 85.5596Z" fill="#F0F0F0"/>
<path d="M16.5238 87.0067C16.9236 86.5128 18.0998 86.795 19.1348 87.6419C20.1698 88.4887 20.6873 89.5707 20.3109 90.0647C20.0639 90.3705 19.5229 90.3823 18.8995 90.147C19.6523 90.2294 19.9816 89.6295 19.5699 88.8886C19.044 88.1329 18.308 87.5481 17.4529 87.2067C16.9237 87.0538 16.5238 87.0773 16.4179 87.5007C16.4015 87.4155 16.4024 87.3278 16.4206 87.2429C16.4388 87.1581 16.4739 87.0778 16.5238 87.0067Z" fill="#E0E0E0"/>
<path d="M35.4478 84.1133C37.6077 84.2546 39.7183 84.8222 41.6578 85.7834C40.5522 85.6658 39.3055 86.7831 38.4116 89.5C38.0635 90.3083 37.765 91.137 37.5178 91.9816C37.459 92.2286 37.3884 92.4403 37.3413 92.652L35.7183 92.2169L35.8947 91.5464C36.1227 90.6944 36.28 89.8251 36.3651 88.9472C36.9885 86.1362 36.5063 84.5602 35.4478 84.1133Z" fill="#F0F0F0"/>
<path d="M36.0361 91.1938C36.3183 91.2271 36.5975 91.2822 36.8712 91.3585C37.1407 91.4273 37.4043 91.5178 37.6592 91.629L37.3887 92.6522L35.7656 92.2171C35.8597 91.8995 35.9538 91.5585 36.0361 91.1938Z" fill="#E0E0E0"/>
<path d="M34.5543 93.2991C34.6719 92.8639 35.5187 92.711 36.4361 92.958C37.3535 93.205 38.0004 93.7577 37.8828 94.1929C37.7652 94.6281 37.4594 94.6281 36.9889 94.6516C37.4946 94.487 37.5534 94.0048 37.0595 93.6402C36.5014 93.2991 35.8547 93.1313 35.2012 93.1579C34.8131 93.1579 34.5543 93.3461 34.6131 93.6637C34.5493 93.5535 34.5284 93.4237 34.5543 93.2991Z" fill="#E0E0E0"/>
<path d="M48.5264 86.3357C50.9037 85.3418 53.4864 84.9382 56.0536 85.1596C54.8775 85.6065 54.1013 87.7471 54.5247 91.8754C54.8658 95.2391 55.3009 98.4617 55.7008 100.79C55.7008 101.132 55.7949 101.461 55.8537 101.767L53.8896 102.072C53.8896 101.767 53.7955 101.437 53.7367 101.096C53.3603 98.744 52.784 95.5684 52.0901 92.2635C51.1844 88.1823 49.8436 86.371 48.5264 86.3357Z" fill="#F0F0F0"/>
<path d="M53.6431 100.826C53.9619 100.725 54.2884 100.651 54.6192 100.602C54.9495 100.547 55.284 100.519 55.619 100.52C55.6778 100.955 55.7366 101.367 55.8072 101.755L53.843 102.061C53.7842 101.673 53.7136 101.261 53.6431 100.826Z" fill="#E0E0E0"/>
<path d="M50.89 104.143C50.9336 104.383 51.0256 104.611 51.1605 104.813C51.185 104.861 51.2167 104.905 51.2546 104.943V105.002L51.4428 105.178L51.5369 105.249L51.7133 105.354C52.8712 105.915 54.1809 106.08 55.4417 105.825C56.6933 105.689 57.8703 105.162 58.8054 104.319L58.9348 104.167L59.0054 104.072C59.0513 104.002 59.0906 103.927 59.123 103.849C59.1281 103.826 59.1281 103.802 59.123 103.778C59.1296 103.728 59.1296 103.676 59.123 103.626C59.1822 103.39 59.1822 103.144 59.123 102.908C59.0854 102.674 59.0014 102.45 58.876 102.249C58.3938 101.391 56.606 100.956 54.5948 101.273C52.5836 101.591 51.0664 102.543 50.8194 103.508C50.8041 103.722 50.828 103.937 50.89 104.143Z" fill="#F0F0F0"/>
<path d="M52.6431 104.471C52.5373 103.801 53.584 103.095 54.9954 102.872C56.4068 102.648 57.5947 103.013 57.7005 103.683C57.7711 104.083 57.3947 104.519 56.7596 104.86C57.3594 104.33 57.136 103.683 56.2539 103.448C55.2911 103.332 54.3152 103.495 53.4429 103.919C52.9607 104.224 52.7019 104.554 52.9607 104.942C52.8785 104.889 52.808 104.82 52.7534 104.739C52.6988 104.659 52.6613 104.567 52.6431 104.471Z" fill="#E0E0E0"/>
<path d="M62.1108 82.9025C63.9538 81.325 65.9986 80 68.1915 78.9624C67.227 79.7387 67.0153 81.15 67.968 83.0789C68.7795 84.6432 69.6381 86.1133 70.3203 87.1365L70.5908 87.5835L69.0148 88.6067L68.7325 88.1715C68.0503 87.1483 67.0741 85.7605 65.9803 84.3726C64.6042 82.679 63.2164 82.3026 62.1108 82.9025Z" fill="#F0F0F0"/>
<path d="M68.5449 87.9237C68.7801 87.7355 69.0389 87.5473 69.3094 87.3709C69.5799 87.1945 69.8739 87.0298 70.1327 86.8887C70.2856 87.1357 70.4385 87.3591 70.5678 87.5826L68.9918 88.6058C68.8507 88.3941 68.7096 88.1824 68.5449 87.9237Z" fill="#E0E0E0"/>
<path d="M67.8392 90.8407C67.9323 90.9877 68.0568 91.1123 68.2038 91.2053L68.3097 91.2641L68.4861 91.3229H68.5684H68.7213C69.6238 91.3291 70.5049 91.049 71.2383 90.5231C72.016 90.0675 72.6326 89.3811 73.0025 88.559V88.4179C73.0025 88.4179 73.0025 88.3591 73.0025 88.3238C73.0025 88.2885 73.0025 88.2062 73.0025 88.1474C72.9967 88.1084 72.9967 88.0687 73.0025 88.0297C72.9729 87.858 72.9088 87.6939 72.8143 87.5475C72.7214 87.4075 72.6014 87.2876 72.4614 87.1947C71.8969 86.7713 70.6032 87.0065 69.38 87.8063C68.1568 88.606 67.4158 89.6763 67.5687 90.3585C67.6193 90.5385 67.712 90.7038 67.8392 90.8407Z" fill="#F0F0F0"/>
<path d="M69.0739 90.5347C68.8152 90.1348 69.2856 89.3586 70.1324 88.8175C70.9792 88.2765 71.8731 88.1589 72.1319 88.5588C72.3906 88.9587 72.1319 89.1939 71.8613 89.582C72.0966 89.0645 71.7437 88.6882 71.1086 88.8175C70.4486 89.0198 69.8607 89.4077 69.415 89.9348C69.1915 90.2759 69.1092 90.57 69.415 90.7464C69.3469 90.7356 69.2816 90.7113 69.2231 90.6749C69.1645 90.6386 69.1138 90.5909 69.0739 90.5347Z" fill="#E0E0E0"/>
<path d="M72.8257 74.4108C73.6806 71.982 75.1089 69.7952 76.9892 68.0361C76.4835 69.2123 77.5891 71.2117 80.9175 73.6346C83.6226 75.6222 86.3042 77.457 88.2566 78.739L89.0682 79.28L87.9861 80.9384L87.1628 80.4091C85.1987 79.1389 82.4582 77.4335 79.5414 75.7046C75.9777 73.6816 73.7313 73.4581 72.8257 74.4108Z" fill="#F0F0F0"/>
<path d="M86.9399 80.256C87.0805 79.9552 87.2416 79.6643 87.4222 79.3856C87.6041 79.1067 87.8086 78.8431 88.0337 78.5977L89.0687 79.2798L87.9867 80.9382L86.9399 80.256Z" fill="#E0E0E0"/>
<path d="M87.5274 84.972C87.7512 85.1183 88.0039 85.2146 88.2683 85.2543H88.5153H88.7976H88.927L89.1387 85.1955C90.4049 84.6387 91.4628 83.696 92.1614 82.5021C92.9514 81.3773 93.3632 80.0304 93.3375 78.6561V78.4445C93.3441 78.4016 93.3441 78.3579 93.3375 78.3151C93.3133 78.2226 93.2818 78.1321 93.2434 78.0446V77.9857C93.2434 77.9269 93.1846 77.8799 93.1611 77.8329C93.0208 77.6103 92.8352 77.4198 92.6163 77.2739C92.3974 77.128 92.1502 77.0299 91.8908 76.9861C90.8323 76.7626 89.174 77.8917 87.9625 79.7617C86.7511 81.6318 86.3748 83.5959 87.0099 84.4663C87.1468 84.6677 87.3228 84.8397 87.5274 84.972Z" fill="#F0F0F0"/>
<path d="M89.0685 83.7962C88.457 83.3963 88.6452 82.0202 89.492 80.7265C90.3388 79.4327 91.5032 78.727 92.1147 79.1269C92.5029 79.3739 92.5734 79.9855 92.3735 80.7265C92.3735 79.8679 91.656 79.5503 90.8563 80.1149C90.0495 80.8022 89.4677 81.7159 89.1862 82.7376C89.0686 83.361 89.1862 83.8197 89.6566 83.9138C89.5557 83.9348 89.4516 83.9352 89.3506 83.915C89.2495 83.8948 89.1536 83.8544 89.0685 83.7962Z" fill="#E0E0E0"/>
<path d="M79.1768 62.3069C79.1713 59.6259 79.5962 56.9614 80.4353 54.415C80.4353 55.7794 81.6114 57.0731 84.4224 57.767C86.7159 58.3198 88.9623 58.755 90.5736 59.0255L91.2558 59.1431L90.9265 61.1896L90.2443 61.0955C88.6212 60.8485 86.363 60.5545 83.999 60.3663C81.1174 60.1664 79.5532 61.0132 79.1768 62.3069Z" fill="#F0F0F0"/>
<path d="M89.9854 61.1315C89.9985 60.7846 90.0338 60.4389 90.0912 60.0965C90.15 59.7319 90.2323 59.3908 90.3147 59.0732L91.2556 59.2261L90.9263 61.2726L89.9854 61.1315Z" fill="#E0E0E0"/>
<path d="M92.044 63.8245C92.2339 63.8659 92.4304 63.8659 92.6203 63.8245H92.7379L92.9261 63.7186L92.9967 63.6598L93.1261 63.5657C93.7682 62.7917 94.1909 61.8597 94.3502 60.8667C94.5095 59.8737 94.3995 58.8562 94.0317 57.9202L93.9494 57.7909V57.7085L93.8082 57.5556L93.7024 57.4851C93.546 57.3722 93.3642 57.2995 93.1731 57.2734C92.9872 57.2318 92.7945 57.2318 92.6086 57.2734C91.8323 57.4263 91.0561 58.6847 90.7973 60.296C90.5386 61.9074 90.8796 63.3422 91.5736 63.7303C91.7223 63.7937 91.8824 63.8257 92.044 63.8245Z" fill="#F0F0F0"/>
<path d="M92.714 62.5784C92.1847 62.4961 91.9025 61.5199 92.0789 60.4026C92.2553 59.2852 92.8316 58.4619 93.3609 58.5442C93.6902 58.5442 93.9254 58.9912 94.0195 59.544C93.7607 58.9559 93.1844 58.9677 92.8434 59.544C92.5149 60.244 92.4003 61.0255 92.514 61.7904C92.6199 62.2491 92.8081 62.5196 93.1727 62.4255C93.1119 62.4827 93.0394 62.526 92.9602 62.5524C92.881 62.5788 92.797 62.5877 92.714 62.5784Z" fill="#E0E0E0"/>
<path d="M80.0118 47.4648C79.4031 45.6101 78.9043 43.7211 78.5181 41.8076C78.7651 42.5839 79.4002 43.513 80.2117 43.5012C80.8216 43.5003 81.4293 43.4292 82.023 43.2895H82.2112L82.5287 44.4657H82.3405C81.7605 44.6376 81.2095 44.8953 80.7057 45.2302C80.3781 45.4892 80.1365 45.8412 80.0127 46.24C79.8888 46.6389 79.8885 47.0658 80.0118 47.4648Z" fill="#F0F0F0"/>
<path d="M82.0945 44.56C82.0177 44.3687 81.9548 44.1722 81.9063 43.9719C81.8475 43.7602 81.8004 43.5602 81.7651 43.3603L82.2121 43.2427L82.5296 44.4188L82.0945 44.56Z" fill="#E0E0E0"/>
<path d="M84.3636 46.0187C84.5084 45.9782 84.6442 45.9104 84.7635 45.8188L84.834 45.7482L84.9399 45.6188V45.5482L84.9987 45.4424C85.2027 44.6906 85.2012 43.8979 84.9943 43.1469C84.7874 42.3959 84.3828 41.7142 83.8226 41.173L83.7167 41.1142H83.6462H83.505H83.4109C83.2633 41.0856 83.1116 41.0856 82.964 41.1142C82.8171 41.1494 82.6804 41.2178 82.5641 41.3141C82.0701 41.667 81.9172 42.7961 82.2465 44.0075C82.5759 45.2189 83.258 46.1363 83.8696 46.1951C84.046 46.1768 84.2155 46.1163 84.3636 46.0187Z" fill="#F0F0F0"/>
<path d="M84.4461 44.9249C84.0462 45.0308 83.5405 44.431 83.27 43.5841C82.9994 42.7373 83.1876 41.9728 83.5875 41.867C83.9874 41.7611 84.1285 42.0081 84.3638 42.3727C83.9992 42.0434 83.5875 42.2316 83.5287 42.7843C83.5129 43.3832 83.6767 43.9731 83.9992 44.478C84.2226 44.7603 84.4461 44.9014 84.6578 44.7132C84.6163 44.8079 84.5407 44.8834 84.4461 44.9249Z" fill="#E0E0E0"/>
<path d="M75.0832 34.8329C73.0512 33.2413 71.3797 31.237 70.1787 28.9522C71.1784 29.8108 72.1546 30.3401 75.0832 28.1642C77.4355 26.4 77.6825 26.353 79.2703 25.0357L79.9406 24.4829L81.2109 26.0001L80.5523 26.5647C78.9762 27.8937 78.8586 28.0466 76.6945 30.0931C74.0482 32.6336 74.4128 33.7038 75.0832 34.8329Z" fill="#F0F0F0"/>
<path d="M80.2585 26.8346C80.0098 26.6129 79.7779 26.3731 79.5646 26.1171C79.3506 25.8601 79.1541 25.589 78.9766 25.3056L79.941 24.5176L81.2112 26.0348L80.2585 26.8346Z" fill="#E0E0E0"/>
<path d="M83.6699 25.8469C83.1877 26.2585 82.0939 25.7528 81.2353 24.7295C80.3767 23.7063 80.0591 22.5419 80.5531 22.1303C81.0471 21.7186 81.3999 21.9774 81.9645 22.3302C81.2353 22.1067 80.7884 22.6243 81.0706 23.4358C81.4408 24.2785 82.0501 24.9942 82.8231 25.494C83.317 25.741 83.7169 25.7881 83.8934 25.3882C83.8885 25.4757 83.8662 25.5613 83.8278 25.64C83.7895 25.7188 83.7358 25.7891 83.6699 25.8469Z" fill="#E0E0E0"/>
<path d="M64.5922 24.9414C62.5038 24.3863 60.5427 23.4317 58.8174 22.1304C59.8641 22.4598 61.2638 21.6129 62.6634 19.1548C63.1569 18.4412 63.6009 17.6945 63.9924 16.9202L64.2982 16.3203L65.7919 17.0495L65.4978 17.6611C65.1298 18.4451 64.8193 19.2549 64.5687 20.084C63.4984 22.695 63.6748 24.3181 64.5922 24.9414Z" fill="#F0F0F0"/>
<path d="M65.3336 18.0022C65.0677 17.9146 64.8083 17.8085 64.5573 17.6846C64.3036 17.5627 64.0598 17.4212 63.8281 17.2612L64.2986 16.3203L65.7923 17.0495L65.3336 18.0022Z" fill="#E0E0E0"/>
<path d="M68.0384 17.0737C68.1065 16.9214 68.1464 16.7581 68.1561 16.5915C68.1618 16.5565 68.1618 16.5207 68.1561 16.4857C68.166 16.4312 68.166 16.3754 68.1561 16.321C68.1599 16.2937 68.1599 16.266 68.1561 16.2387V16.1211C67.7246 15.3865 67.0693 14.8095 66.286 14.4745C65.5345 14.0685 64.6761 13.9042 63.8279 14.004H63.6985H63.6162L63.4633 14.0746L63.3809 14.1334C63.2575 14.2443 63.1541 14.3756 63.0751 14.5215C63.0073 14.6656 62.9674 14.8212 62.9575 14.9802C62.8987 15.6388 63.722 16.568 64.957 17.1796C66.1919 17.7912 67.4386 17.8618 67.9208 17.4031C67.9762 17.2998 68.0159 17.1887 68.0384 17.0737Z" fill="#F0F0F0"/>
<path d="M67.2033 16.2152C67.0034 16.6269 66.1566 16.6151 65.298 16.2152C64.4394 15.8153 63.9101 15.1214 64.1218 14.7098C64.3335 14.2981 64.6158 14.3687 65.0863 14.4392C64.557 14.4981 64.4159 14.9685 64.8275 15.4154C65.3111 15.8596 65.918 16.1467 66.5682 16.2387C66.9563 16.2387 67.2268 16.2387 67.2268 15.8624C67.2478 15.9195 67.2566 15.9805 67.2525 16.0413C67.2485 16.1021 67.2317 16.1613 67.2033 16.2152Z" fill="#E0E0E0"/>
<path d="M52.1609 20.284C49.6351 20.8009 47.0224 20.7081 44.5396 20.0135C45.8451 19.8253 46.8918 17.8612 47.3152 13.7682C47.6093 10.428 47.7974 7.20534 47.8915 4.87659C47.8915 4.52375 47.8915 4.20619 47.8915 3.90039L49.8792 3.97096C49.8792 4.26499 49.8792 4.59431 49.8792 4.94715C49.8086 7.29943 49.7733 10.5103 49.8792 13.8623C49.9027 17.967 50.8672 19.9664 52.1609 20.284Z" fill="#F0F0F0"/>
<path d="M49.8671 5.2178C49.5382 5.24193 49.208 5.24193 48.8791 5.2178C48.5437 5.20768 48.2095 5.17228 47.8794 5.11194C47.8794 4.66501 47.8794 4.25336 47.8794 3.86523L49.8671 3.9358C49.9024 4.34745 49.8788 4.77087 49.8671 5.2178Z" fill="#E0E0E0"/>
<path d="M53.2076 2.47759C53.2098 2.23134 53.1618 1.98722 53.0665 1.76015C53.0519 1.71114 53.0322 1.66382 53.0076 1.619V1.56021L52.8665 1.34849L52.7724 1.26617L52.6313 1.12502C51.6023 0.391208 50.3665 0.00398585 49.1028 0.0194507C47.8441 -0.0818524 46.5854 0.214332 45.5039 0.866272L45.351 0.983893C45.3167 1.01222 45.2852 1.04373 45.2569 1.07799L45.0922 1.26617V1.33674L45.0217 1.46611C44.9098 1.68539 44.8456 1.9259 44.8335 2.17179C44.8344 2.40901 44.8782 2.64412 44.9629 2.86572C45.2687 3.79487 46.9388 4.55936 48.9735 4.62993C51.0082 4.7005 52.7371 4.05361 53.1135 3.14798C53.1851 2.93204 53.217 2.70491 53.2076 2.47759Z" fill="#F0F0F0"/>
<path d="M51.5491 1.83031C51.5491 2.50071 50.373 3.00644 48.9499 2.94764C47.5267 2.88883 46.4329 2.31251 46.4564 1.65388C46.4564 1.23047 46.9151 0.877635 47.6326 0.689453C46.9386 1.1011 47.0445 1.80678 47.8678 2.17138C48.789 2.47443 49.779 2.49897 50.7141 2.24195C51.2433 2.03024 51.5609 1.75973 51.3844 1.32456C51.499 1.46749 51.5576 1.64731 51.5491 1.83031Z" fill="#E0E0E0"/>
<path d="M38.1421 21.1433C36.0271 22.3373 33.7655 23.2506 31.4145 23.8602C32.5201 23.2839 33.0376 21.9549 32.4378 19.8966C31.9438 18.2265 31.3793 16.6387 30.9323 15.5096C30.8735 15.345 30.8029 15.1803 30.7441 15.0392L32.4966 14.3335C32.5554 14.4746 32.6142 14.6393 32.6848 14.8039C33.1552 15.9801 33.8609 17.4502 34.6489 19.0027C35.6486 20.8846 36.9542 21.4844 38.1421 21.1433Z" fill="#F0F0F0"/>
<path d="M32.8024 15.074C32.5319 15.2034 32.2496 15.3445 31.9438 15.4621C31.6522 15.5851 31.3538 15.6911 31.0499 15.7797L30.7441 15.027L32.4966 14.3213C32.5907 14.5565 32.6848 14.8035 32.8024 15.074Z" fill="#E0E0E0"/>
<path d="M34.048 12.3339C33.9778 12.1754 33.878 12.0317 33.754 11.9105C33.7236 11.8861 33.696 11.8585 33.6716 11.8282L33.507 11.7341H33.4246H33.2953C32.4107 11.5555 31.4922 11.6626 30.6725 12.0399C29.8225 12.3432 29.0872 12.9019 28.5672 13.6395C28.543 13.6762 28.5232 13.7157 28.5084 13.7571V13.8394C28.5031 13.8981 28.5031 13.9571 28.5084 14.0158C28.5084 14.0158 28.5084 14.0982 28.5084 14.1334C28.5053 14.3066 28.5373 14.4787 28.6025 14.6392C28.6645 14.7992 28.7609 14.9438 28.8848 15.0626C29.3552 15.5801 30.6725 15.5919 32.0133 15.0626C33.3541 14.5333 34.3068 13.5924 34.2832 12.8867C34.2605 12.6834 34.1787 12.4913 34.048 12.3339Z" fill="#F0F0F0"/>
<path d="M32.7783 12.3921C32.9547 12.839 32.3431 13.4977 31.414 13.874C30.4848 14.2504 29.5792 14.2033 29.4028 13.7564C29.2852 13.4859 29.4851 13.1213 29.8615 12.792C29.5322 13.2624 29.8027 13.6976 30.4495 13.6976C31.142 13.6309 31.798 13.3562 32.3314 12.9096C32.6254 12.6156 32.743 12.345 32.5078 12.1216C32.6299 12.1729 32.727 12.27 32.7783 12.3921Z" fill="#E0E0E0"/>
<path d="M25.9447 27.6709C24.7737 29.9967 22.9239 31.9121 20.6403 33.1634C21.3342 31.9873 20.2287 29.5056 16.6297 25.7302C15.7711 24.8246 14.0187 22.6017 11.9251 20.5435L11.0312 19.6731L12.4073 18.25L13.313 19.1086C15.4418 21.1551 17.747 23.3427 18.3939 23.919C22.2751 27.3886 24.8627 28.4001 25.9447 27.6709Z" fill="#F0F0F0"/>
<path d="M13.2895 19.1086C13.0921 19.3787 12.88 19.6378 12.6544 19.8848C12.421 20.1236 12.1693 20.3438 11.9017 20.5435L11.0078 19.6731L12.3839 18.25L13.2895 19.1086Z" fill="#E0E0E0"/>
<path d="M13.5956 14.3687C13.4048 14.1843 13.176 14.0438 12.9252 13.957H12.7606H12.69H12.4077H12.0549C10.7324 14.3226 9.53195 15.0357 8.57843 16.0223C7.6249 17.009 6.95311 18.233 6.63289 19.5672C6.62705 19.6377 6.62705 19.7085 6.63289 19.7789V19.9201C6.62628 20.0101 6.62628 20.1005 6.63289 20.1906C6.63289 20.1906 6.63289 20.1906 6.63289 20.2729C6.63289 20.3552 6.63289 20.3787 6.63289 20.4258C6.72559 20.6758 6.87447 20.9011 7.06806 21.0844C7.25637 21.2662 7.48075 21.4065 7.72669 21.4961C8.71465 21.9313 10.5494 21.1315 12.1019 19.5202C13.6544 17.9089 14.3837 16.0506 13.925 15.0861C13.8696 14.8256 13.7572 14.5805 13.5956 14.3687Z" fill="#F0F0F0"/>
<path d="M11.9253 15.2619C12.4545 15.7676 12.0076 17.0849 10.9373 18.1905C9.86705 19.2961 8.58507 19.7783 8.04405 19.2725C7.72649 18.955 7.76176 18.3316 8.10284 17.6495C7.92642 18.4963 8.58507 18.9432 9.47894 18.5316C10.4008 18.008 11.146 17.2219 11.6195 16.2734C11.8429 15.6853 11.843 15.2266 11.3725 15.0972C11.5708 15.0815 11.7679 15.1402 11.9253 15.2619Z" fill="#E0E0E0"/>
<path d="M17.7349 38.1142C17.3574 40.7835 16.4238 43.3439 14.9945 45.6297C15.2533 44.2772 13.9125 42.6306 10.4546 41.1251C7.63189 39.949 7.90241 40.0666 5.90297 39.3256L5.05615 39.0081L5.77358 37.0557L6.6204 37.3615C8.61984 38.0789 8.40813 37.7731 11.325 38.6435C14.971 39.7137 17.0645 39.3256 17.7349 38.1142Z" fill="#F0F0F0"/>
<path d="M6.66746 37.3732C6.58549 37.7122 6.48336 38.0461 6.36165 38.3729C6.25019 38.7048 6.11257 39.0273 5.95003 39.3374L5.05615 39.0081L5.77358 37.0557L6.66746 37.3732Z" fill="#E0E0E0"/>
<path d="M5.17388 34.2798C4.9907 34.2085 4.79253 34.1843 4.59755 34.2093H4.42114L4.23295 34.2681H4.13888L3.99774 34.3504C3.18794 34.9579 2.591 35.806 2.29233 36.7732C1.90462 37.7076 1.81828 38.7396 2.04535 39.7254L2.10414 39.8665C2.09994 39.8977 2.09994 39.9294 2.10414 39.9606L2.20999 40.1252L2.3041 40.2193C2.44135 40.3542 2.60556 40.4585 2.78596 40.5254C2.96637 40.5922 3.15887 40.6202 3.35085 40.6075C4.13886 40.6075 5.12682 39.5137 5.70312 37.9847C6.27943 36.4557 6.19711 34.9738 5.59728 34.4563C5.46624 34.3757 5.32338 34.3161 5.17388 34.2798Z" fill="#F0F0F0"/>
<path d="M4.26816 35.3863C4.7739 35.5628 4.86799 36.5625 4.49163 37.6328C4.11527 38.7031 3.37429 39.4087 2.86855 39.2205C2.56276 39.1029 2.39813 38.6795 2.42165 38.115C2.56279 38.7383 3.1391 38.8442 3.59779 38.3032C4.05464 37.6743 4.32011 36.9269 4.36227 36.1508C4.36227 35.6921 4.1976 35.3746 3.833 35.4099C3.89994 35.376 3.97318 35.3564 4.0481 35.3524C4.12302 35.3483 4.19796 35.3599 4.26816 35.3863Z" fill="#E0E0E0"/>
<path d="M13.8895 52.6284C14.1411 54.579 14.2785 56.5425 14.3011 58.5091C14.1953 57.7093 13.7483 56.6743 12.9486 56.5214C12.3476 56.4108 11.7361 56.3674 11.1256 56.3921H10.9374L10.8433 55.1571H11.0432C11.6468 55.1062 12.2384 54.9593 12.7957 54.7219C13.1743 54.5315 13.4836 54.227 13.6798 53.8514C13.8761 53.4758 13.9495 53.048 13.8895 52.6284Z" fill="#F0F0F0"/>
<path d="M11.3015 55.0864C11.338 55.2886 11.3615 55.4929 11.3721 55.698C11.3836 55.9057 11.3836 56.1138 11.3721 56.3214H10.9251L10.8311 55.0864H11.3015Z" fill="#E0E0E0"/>
<path d="M9.34968 53.2282C9.19696 53.2296 9.04715 53.2701 8.91452 53.3458L8.83218 53.4046C8.78806 53.4293 8.74831 53.4611 8.71456 53.4987V53.5575L8.63226 53.6633C8.24584 54.3447 8.08912 55.1324 8.18532 55.9098C8.20443 56.692 8.4676 57.4486 8.93803 58.0739L9.03214 58.1562V58.215C9.0706 58.2492 9.11426 58.277 9.1615 58.2973H9.25561C9.3991 58.3275 9.54728 58.3275 9.69078 58.2973C9.8398 58.2961 9.98584 58.2555 10.1142 58.1797C10.667 57.9327 11.0316 56.8507 10.9493 55.5922C10.8669 54.3337 10.3494 53.3223 9.77311 53.1458C9.62767 53.1421 9.48315 53.1702 9.34968 53.2282Z" fill="#F0F0F0"/>
<path d="M9.05534 54.2866C9.46699 54.2866 9.85512 54.9335 9.91393 55.8038C9.97274 56.6742 9.69044 57.4034 9.26703 57.4387C8.84362 57.4739 8.77306 57.1917 8.6084 56.7918C8.90243 57.1917 9.33762 57.0858 9.50228 56.5566C9.62875 55.9673 9.57969 55.354 9.36114 54.7924C9.19648 54.4748 9.00829 54.2984 8.7613 54.4395C8.79654 54.3945 8.84101 54.3576 8.89174 54.3312C8.94246 54.3048 8.99824 54.2896 9.05534 54.2866Z" fill="#E0E0E0"/>
<path d="M32.1667 23.2956C38.0712 20.3006 44.7312 19.1239 51.3045 19.9142C57.8778 20.7045 64.0692 23.4264 69.0955 27.7355C74.1218 32.0447 77.7573 37.7477 79.5423 44.1232C81.3273 50.4987 81.1815 57.2603 79.1234 63.553C77.0653 69.8456 73.1874 75.3866 67.9801 79.4752C62.7728 83.5638 56.4699 86.0163 49.8686 86.5226C43.2674 87.0289 36.6642 85.5662 30.8943 82.3196C25.1244 79.0729 20.4468 74.1881 17.4532 68.2829C13.4397 60.3659 12.7351 51.1789 15.4943 42.7425C18.2535 34.306 24.2506 27.311 32.1667 23.2956Z" fill="#F0F0F0"/>
<path d="M32.1667 23.2956C38.0712 20.3006 44.7312 19.1239 51.3045 19.9142C57.8778 20.7045 64.0692 23.4264 69.0955 27.7355C74.1218 32.0447 77.7573 37.7477 79.5423 44.1232C81.3273 50.4987 81.1815 57.2603 79.1234 63.553C77.0653 69.8456 73.1874 75.3866 67.9801 79.4752C62.7728 83.5638 56.4699 86.0163 49.8686 86.5226C43.2674 87.0289 36.6642 85.5662 30.8943 82.3196C25.1244 79.0729 20.4468 74.1881 17.4532 68.2829C13.4397 60.3659 12.7351 51.1789 15.4943 42.7425C18.2535 34.306 24.2506 27.311 32.1667 23.2956Z" fill="#F5F5F5"/>
<path d="M43.1167 19.9668C52.9963 19.0023 76.0486 29.3171 76.7543 53.6514C77.4599 77.9857 52.5493 86.5832 44.0341 86.4891C48.722 86.9495 53.4544 86.4153 57.9217 84.9213C62.389 83.4274 66.4907 81.0074 69.9586 77.8195C73.4265 74.6317 76.1826 70.7478 78.0465 66.4217C79.9105 62.0957 80.8403 57.425 80.7754 52.7149C80.7104 48.0049 79.6521 43.3616 77.6696 39.0886C75.687 34.8156 72.8249 31.0092 69.2704 27.9182C65.716 24.8272 61.5491 22.5212 57.0422 21.151C52.5354 19.7808 47.7902 19.3773 43.1167 19.9668Z" fill="#E0E0E0"/>
<path d="M64.9928 62.6135C65.7926 60.2612 67.8979 58.7793 69.6973 59.3791C71.4968 59.9789 72.3084 62.4135 71.4968 64.8011C70.6853 67.1886 68.5918 68.6471 66.7923 68.0355C64.9928 67.4239 64.1813 65.001 64.9928 62.6135Z" fill="#E0E0E0"/>
<path opacity="0.1" d="M68.3798 67.0121C67.3095 67.5414 66.0275 66.0241 66.5685 63.766C67.0507 61.9782 68.3915 60.5786 69.4736 60.5904C69.663 60.5948 69.8497 60.6373 70.0224 60.7155C70.1951 60.7936 70.3503 60.9057 70.4787 61.0451C70.6072 61.1845 70.7062 61.3483 70.7699 61.5269C70.8336 61.7054 70.8608 61.8949 70.8497 62.0841C70.5439 61.3666 69.7558 61.1314 68.862 61.8018C68.3029 62.2492 67.8601 62.8251 67.5714 63.4804C67.2827 64.1356 67.1565 64.8509 67.2036 65.5654C67.2859 66.4358 67.7799 67.0121 68.3798 67.0121Z" fill="black"/>
<path d="M33.0957 37.9265C31.649 39.9965 29.2144 40.7962 27.6619 39.7142C26.1094 38.6321 26.0036 36.0682 27.4502 33.9981C28.8969 31.9281 31.3197 31.1401 32.884 32.2222C34.4482 33.3042 34.5658 35.8565 33.0957 37.9265Z" fill="#E0E0E0"/>
<path opacity="0.1" d="M31.1196 32.7987C32.2957 32.5752 33.1425 34.4218 31.9428 36.4212C30.9784 37.9972 29.3083 38.9616 28.2616 38.6441C27.9017 38.5233 27.6044 38.2649 27.4347 37.9255C27.265 37.586 27.2366 37.1931 27.3559 36.8328C27.4618 37.5973 28.1557 38.009 29.2024 37.6561C29.8622 37.3805 30.446 36.9503 30.9045 36.4017C31.363 35.8531 31.6828 35.2022 31.837 34.5041C31.9899 33.622 31.6723 32.9633 31.1196 32.7987Z" fill="black"/>
<path d="M43.6814 63.0492C45.7631 63.4726 47.2098 65.0839 46.857 66.6482C46.5041 68.2124 44.5988 69.1298 42.517 68.7064C40.4352 68.283 38.9886 66.6599 39.3532 65.1074C39.7178 63.5549 41.5996 62.6258 43.6814 63.0492Z" fill="#E0E0E0"/>
<path opacity="0.1" d="M40.3762 66.2953C39.8235 65.4602 40.9525 64.19 42.8932 64.4723C44.4339 64.684 45.7394 65.6484 45.8335 66.5658C45.8514 66.725 45.8365 66.8861 45.7899 67.0394C45.7432 67.1926 45.6658 67.3347 45.5623 67.4569C45.4587 67.5792 45.3313 67.679 45.1879 67.7503C45.0444 67.8215 44.8879 67.8627 44.728 67.8713C45.2925 67.5302 45.4101 66.8481 44.728 66.1777C44.2985 65.7569 43.7736 65.4462 43.1982 65.2722C42.6227 65.0981 42.0136 65.0658 41.423 65.178C40.7173 65.3544 40.3174 65.8366 40.3762 66.2953Z" fill="black"/>
<path d="M55.1838 47.9354C53.7371 45.8772 53.8194 43.3132 55.3719 42.2194C56.9244 41.1256 59.359 41.9254 60.8057 43.9836C62.2523 46.0419 62.17 48.6058 60.6175 49.6996C59.065 50.7935 56.6186 49.9937 55.1838 47.9354Z" fill="#E0E0E0"/>
<path opacity="0.1" d="M60.6997 47.8174C60.488 48.9936 58.4768 49.1582 57.0066 47.3352C55.8305 45.9003 55.5247 43.995 56.1716 43.1246C56.2884 42.9753 56.434 42.8509 56.5996 42.7586C56.7652 42.6663 56.9476 42.608 57.1361 42.5872C57.3245 42.5664 57.5152 42.5834 57.697 42.6374C57.8788 42.6913 58.0479 42.781 58.1946 42.9012C57.4301 42.7248 56.7832 43.2305 56.7949 44.3361C56.8287 45.0451 57.0322 45.7356 57.3884 46.3496C57.7445 46.9636 58.2428 47.4831 58.8414 47.8645C59.6177 48.3467 60.3469 48.2761 60.6997 47.8174Z" fill="black"/>
<path d="M43.6102 74.0692C46.0448 74.7043 47.6326 76.7155 47.1386 78.5502C46.6447 80.385 44.2924 81.3494 41.846 80.7143C39.3997 80.0792 37.8236 78.0562 38.3176 76.2215C38.8116 74.3867 41.1756 73.434 43.6102 74.0692Z" fill="#E0E0E0"/>
<path opacity="0.1" d="M39.4817 77.727C38.8701 76.692 40.3049 75.2571 42.5984 75.704C44.4097 76.0686 45.8916 77.3153 45.9622 78.3974C45.9685 78.5862 45.9371 78.7744 45.8698 78.951C45.8026 79.1276 45.7008 79.289 45.5706 79.4259C45.4403 79.5627 45.2841 79.6723 45.111 79.7481C44.9379 79.8239 44.7515 79.8645 44.5626 79.8675C45.2447 79.5029 45.4329 78.6914 44.7037 77.8564C44.2204 77.3303 43.6175 76.9284 42.946 76.6848C42.2745 76.4412 41.5541 76.3629 40.846 76.4567C39.9521 76.6214 39.4464 77.1506 39.4817 77.727Z" fill="black"/>
<path d="M42.6813 43.6773C40.4583 43.9008 38.5177 42.7364 38.3531 41.0663C38.1884 39.3962 39.8468 37.8554 42.0697 37.632C44.2926 37.4085 46.2214 38.5729 46.3861 40.243C46.5507 41.9131 44.8571 43.4891 42.6813 43.6773Z" fill="#E0E0E0"/>
<path opacity="0.1" d="M44.9635 39.3728C45.7868 40.0432 45.0458 41.6663 43.0111 42.0073C41.3998 42.2779 39.7767 41.7016 39.3886 40.8312C39.3255 40.676 39.2936 40.5099 39.295 40.3424C39.2963 40.1749 39.3308 40.0093 39.3964 39.8552C39.4619 39.7011 39.5574 39.5614 39.6771 39.4443C39.7969 39.3272 39.9387 39.235 40.0943 39.1729C39.6356 39.6904 39.7296 40.349 40.6 40.8782C41.1607 41.1719 41.7842 41.3253 42.4171 41.3253C43.05 41.3253 43.6736 41.1719 44.2343 40.8782C44.9164 40.4313 45.1752 39.8432 44.9635 39.3728Z" fill="black"/>
<path d="M28.3913 51.8044C28.7206 55.3328 26.8623 58.3084 24.2395 58.5554C21.6168 58.8024 19.241 56.2032 18.9116 52.6747C18.5823 49.1463 20.4524 46.1825 23.0752 45.9355C25.698 45.6885 28.0855 48.323 28.3913 51.8044Z" fill="#E0E0E0"/>
<path opacity="0.1" d="M21.6874 48.1942C22.7459 46.924 25.2864 48.1001 25.8039 51.2992C26.2037 53.8279 25.2746 56.3449 23.8985 56.9565C23.6517 57.0522 23.3882 57.0976 23.1235 57.0901C22.8589 57.0826 22.5983 57.0223 22.3573 56.9128C22.1163 56.8032 21.8996 56.6466 21.7199 56.4521C21.5402 56.2577 21.4012 56.0293 21.311 55.7803C22.1108 56.5095 23.2399 56.3684 23.9926 55.0158C24.4532 54.1378 24.6938 53.1611 24.6938 52.1696C24.6938 51.1781 24.4532 50.2014 23.9926 49.3233C23.3575 48.253 22.4283 47.8414 21.6874 48.1942Z" fill="black"/>
<path d="M68.8266 47.8645C68.2621 46.065 68.8972 44.2655 70.2498 43.8421C71.6023 43.4187 73.1666 44.536 73.7782 46.3355C74.3898 48.135 73.6958 49.9345 72.3433 50.3579C70.9907 50.7813 69.3794 49.664 68.8266 47.8645Z" fill="#E0E0E0"/>
<path opacity="0.1" d="M72.7786 49.0289C72.367 49.8287 70.8851 49.4876 70.2617 47.8528C70.0077 47.3411 69.907 46.7669 69.9717 46.1994C70.0364 45.6318 70.2637 45.0951 70.6263 44.6537C70.7427 44.5733 70.8741 44.5174 71.0127 44.4892C71.1513 44.4611 71.2941 44.4613 71.4326 44.4899C71.5711 44.5184 71.7024 44.5748 71.8185 44.6555C71.9346 44.7362 72.0332 44.8396 72.1083 44.9594C71.6143 44.6654 71.0262 44.8654 70.791 45.6651C70.6503 46.1803 70.6357 46.7217 70.7482 47.2437C70.8608 47.7657 71.0974 48.2529 71.4379 48.6643C71.9083 49.17 72.4258 49.2876 72.7786 49.0289Z" fill="black"/>
<path d="M58.0063 35.7735C55.8658 34.3738 54.9837 31.9157 56.0422 30.3044C57.1007 28.6931 59.7 28.5284 61.8406 29.928C63.9811 31.3276 64.8632 33.7858 63.8047 35.3971C62.7462 37.0084 60.1469 37.1848 58.0063 35.7735Z" fill="#E0E0E0"/>
<path opacity="0.1" d="M63.1812 33.5868C63.4282 34.7629 61.5817 35.7038 59.5117 34.5277C57.8768 33.5986 56.8536 31.9167 57.1594 30.8581C57.2145 30.6741 57.3055 30.5027 57.4271 30.3539C57.5487 30.2051 57.6986 30.0818 57.868 29.9911C58.0374 29.9004 58.2231 29.844 58.4143 29.8253C58.6056 29.8066 58.7986 29.8258 58.9824 29.8819C58.2062 30.0113 57.8063 30.7288 58.2062 31.7755C58.5015 32.439 58.9532 33.0209 59.5226 33.4716C60.0921 33.9222 60.7623 34.2281 61.4758 34.363C62.3579 34.5042 63.0165 34.1513 63.1812 33.5868Z" fill="black"/>
<path d="M44.7164 30.3399C43.1051 30.6693 41.5996 29.9518 41.3527 28.7404C41.1057 27.529 42.1995 26.2822 43.8226 25.9529C45.4456 25.6236 46.9393 26.3293 47.1863 27.5407C47.4333 28.7521 46.3277 30.0106 44.7164 30.3399Z" fill="#E0E0E0"/>
<path opacity="0.1" d="M46.0338 27.0234C46.6807 27.4468 46.2573 28.6936 44.7871 29.1052C44.3212 29.2808 43.8145 29.3175 43.3281 29.2111C42.8417 29.1046 42.3966 28.8595 42.0467 28.5054C41.9874 28.3968 41.9504 28.2774 41.9379 28.1544C41.9254 28.0313 41.9375 27.907 41.9736 27.7886C42.0098 27.6703 42.0692 27.5604 42.1484 27.4654C42.2276 27.3703 42.325 27.292 42.4348 27.2351C42.1408 27.6468 42.2702 28.1643 42.9406 28.4113C43.3757 28.5771 43.8443 28.6358 44.3069 28.5826C44.7695 28.5294 45.2125 28.3658 45.5987 28.1055C46.1162 27.7879 46.269 27.341 46.0338 27.0234Z" fill="black"/>
<path d="M30.1785 68.8357C31.3546 70.0118 31.5664 71.6467 30.6843 72.5288C29.8022 73.4109 28.1556 73.1639 27.0029 71.9995C25.8503 70.8351 25.6151 69.1768 26.4854 68.3064C27.3558 67.4361 29.0141 67.6713 30.1785 68.8357Z" fill="#E0E0E0"/>
<path opacity="0.1" d="M26.6509 69.5294C26.6509 68.7414 27.9211 68.4121 29.062 69.4235C29.4656 69.7138 29.776 70.1152 29.9556 70.5788C30.1352 71.0424 30.1761 71.5481 30.0734 72.0346C30.0155 72.1434 29.9365 72.2397 29.841 72.3177C29.7455 72.3957 29.6354 72.4539 29.5172 72.4889C29.399 72.5239 29.2749 72.5351 29.1524 72.5217C29.0298 72.5083 28.9111 72.4707 28.8032 72.4109C29.309 72.4109 29.6736 72.0346 29.5442 71.3171C29.4416 70.8625 29.2324 70.4388 28.9338 70.081C28.6353 69.7231 28.2559 69.4413 27.827 69.2589C27.2742 69.059 26.8155 69.1883 26.6509 69.5294Z" fill="black"/>
<path d="M54.537 61.1903C54.7536 60.5296 55.2173 59.9783 55.8311 59.6516C56.4449 59.325 57.1612 59.2484 57.8302 59.4378C59.0063 59.9671 59.2886 61.6019 58.5946 63.0839C57.9007 64.5658 56.4306 65.3656 55.3015 64.8363C54.1724 64.3071 53.8431 62.684 54.537 61.1903Z" fill="#E0E0E0"/>
<path opacity="0.1" d="M56.3949 64.2714C55.6656 64.5302 54.9129 63.4481 55.4657 62.0367C55.9126 60.8606 56.8771 60.1079 57.5828 60.1902C57.7054 60.2074 57.8233 60.2489 57.9297 60.3123C58.036 60.3757 58.1286 60.4598 58.2021 60.5595C58.2755 60.6592 58.3282 60.7726 58.3572 60.893C58.3862 61.0134 58.3908 61.1383 58.3708 61.2605C58.2179 60.7665 57.7239 60.5666 57.0888 60.9312C56.6897 61.1834 56.3587 61.5299 56.1249 61.94C55.8911 62.3502 55.7617 62.8115 55.748 63.2834C55.748 63.8362 56.0185 64.2244 56.3949 64.2714Z" fill="black"/>
<path d="M36.1771 53.9219C36.4006 55.545 35.5891 57.0034 34.3659 57.1799C33.1427 57.3563 31.9548 56.1566 31.7313 54.5336C31.5079 52.9105 32.3194 51.4403 33.5426 51.2756C34.7658 51.111 35.9537 52.2871 36.1771 53.9219Z" fill="#E0E0E0"/>
<path opacity="0.1" d="M32.9429 52.3461C33.4134 51.7228 34.6366 52.2285 34.9306 53.7222C35.078 54.1969 35.0842 54.7043 34.9485 55.1824C34.8127 55.6606 34.5409 56.089 34.1661 56.4155C34.0534 56.4667 33.9317 56.4951 33.808 56.4991C33.6843 56.5032 33.561 56.4828 33.4452 56.4391C33.3293 56.3953 33.2233 56.3292 33.1331 56.2444C33.0429 56.1597 32.9703 56.058 32.9194 55.9451C33.3193 56.2627 33.8486 56.1686 34.1661 55.5217C34.3636 55.1003 34.456 54.6373 34.4355 54.1723C34.4151 53.7074 34.2823 53.2543 34.0485 52.8518C33.731 52.3579 33.284 52.1815 32.9429 52.3461Z" fill="black"/>
<path d="M56.7478 75.2457C58.2298 74.5282 59.8646 74.8575 60.4056 75.9749C60.9467 77.0922 60.1822 78.5624 58.7002 79.2798C57.2183 79.9973 55.5835 79.668 55.0424 78.5624C54.5014 77.4568 55.2659 75.9161 56.7478 75.2457Z" fill="#E0E0E0"/>
<path opacity="0.1" d="M56.2421 78.773C55.5129 78.5142 55.607 77.1969 56.936 76.4207C57.3462 76.136 57.8302 75.9767 58.3293 75.962C58.8283 75.9474 59.3209 76.0782 59.747 76.3383C59.8293 76.4292 59.8928 76.5355 59.9338 76.6511C59.9749 76.7667 59.9926 76.8892 59.9861 77.0117C59.9795 77.1341 59.9488 77.2541 59.8956 77.3646C59.8425 77.4751 59.768 77.574 59.6765 77.6556C59.8646 77.1852 59.6059 76.7147 58.8884 76.5971C58.4259 76.5406 57.9567 76.5967 57.5205 76.7605C57.0843 76.9243 56.6942 77.1911 56.3832 77.538C56.0186 78.0085 55.9834 78.4907 56.2421 78.773Z" fill="black"/>
<path d="M45.5864 48.8055C46.5047 48.6521 47.4481 48.7833 48.2897 49.1814C49.1314 49.5796 49.8311 50.2257 50.295 51.033C50.7589 51.8403 50.9647 52.7701 50.8849 53.6978C50.8051 54.6255 50.4434 55.5065 49.8484 56.2227C49.2535 56.9389 48.4536 57.4559 47.5563 57.7044C46.659 57.953 45.7072 57.921 44.8285 57.613C43.9498 57.3049 43.1865 56.7355 42.6408 55.9811C42.0951 55.2267 41.7932 54.3234 41.7757 53.3925C41.6775 52.2799 42.0228 51.1735 42.7366 50.3144C43.4503 49.4552 44.4746 48.9129 45.5864 48.8055Z" fill="#E0E0E0"/>
<path opacity="0.1" d="M44.5044 56.2505C45.6805 56.9679 47.5741 56.2505 48.1975 54.1805C48.8208 52.1105 47.0213 49.3348 45.1748 49.9346C45.8482 50.2551 46.398 50.7875 46.74 51.4503C47.082 52.113 47.1973 52.8696 47.0684 53.6042C46.9037 55.3331 45.7276 56.4269 44.5044 56.2505Z" fill="black"/>
</g>
<g opacity="0.3">
<path d="M150.563 100.462C148.603 99.8191 146.806 98.7598 145.294 97.3567C146.282 97.733 147.164 97.8624 148.822 95.369C150.187 93.346 150.34 93.2402 151.175 91.8406C151.316 91.6289 151.433 91.4172 151.551 91.229L152.915 92.0405L152.551 92.6521C151.704 94.1223 151.645 94.2752 150.528 96.4511C149.199 99.1091 149.751 99.8148 150.563 100.462Z" fill="#64CF83"/>
<path d="M155.656 92.2293C155.755 92.0731 155.815 91.8958 155.832 91.7118V91.5825C155.844 91.5203 155.844 91.4565 155.832 91.3943C155.839 91.3633 155.839 91.3312 155.832 91.3002C155.836 91.2493 155.836 91.1982 155.832 91.1473C155.369 90.3061 154.688 89.6055 153.86 89.119C153.032 88.6326 152.088 88.3785 151.128 88.3834H150.975H150.881L150.704 88.4539L150.61 88.5245C150.455 88.6262 150.326 88.7633 150.234 88.9244C150.137 89.0772 150.077 89.2502 150.058 89.4301C149.928 90.1711 150.763 91.2884 152.104 92.0764C153.445 92.8645 154.833 93.0644 155.409 92.5939C155.511 92.487 155.595 92.3638 155.656 92.2293Z" fill="#64CF83"/>
<path d="M140.096 95.7576C138.369 95.9064 136.629 95.7064 134.98 95.1695C135.862 95.1695 136.697 94.111 137.097 91.841C137.28 91.161 137.418 90.4695 137.509 89.771C137.509 89.5711 137.509 89.3947 137.579 89.2183L138.908 89.3712C138.908 89.5476 138.908 89.724 138.908 89.9239C138.831 90.6229 138.811 91.3271 138.849 92.0292C138.673 94.3109 139.238 95.4988 140.096 95.7576Z" fill="#64CF83"/>
<path opacity="0.2" d="M138.813 90.1827C138.59 90.1999 138.366 90.1999 138.143 90.1827C137.92 90.16 137.699 90.1167 137.484 90.0533C137.484 89.7593 137.484 89.477 137.578 89.2183L138.907 89.3712C138.884 89.6064 138.849 89.8769 138.813 90.1827Z" fill="black"/>
<path d="M140.613 88.7594C140.636 88.6311 140.636 88.4996 140.613 88.3713C140.617 88.344 140.617 88.3163 140.613 88.289C140.599 88.2413 140.575 88.1973 140.543 88.1596L140.472 88.0773C139.946 87.6408 139.296 87.3815 138.614 87.3363C137.941 87.2281 137.251 87.3308 136.638 87.6303L136.556 87.6891L136.462 87.795V87.8655C136.387 87.9737 136.343 88.0994 136.332 88.2301C136.303 88.3539 136.303 88.4828 136.332 88.6065C136.462 89.124 137.332 89.6062 138.426 89.7826C139.52 89.9591 140.472 89.6415 140.719 89.1593C140.716 89.0196 140.679 88.8826 140.613 88.7594Z" fill="#64CF83"/>
<path opacity="0.3" d="M139.743 88.3476C139.743 88.7004 139.049 88.9239 138.296 88.8416C137.544 88.7592 136.955 88.3829 136.991 88.03C137.026 87.6772 137.285 87.6301 137.649 87.5596C137.273 87.7478 137.285 88.1359 137.72 88.3711C138.203 88.5729 138.735 88.6261 139.249 88.524C139.555 88.4417 139.731 88.3005 139.661 88.0653C139.72 88.147 139.749 88.2468 139.743 88.3476Z" fill="black"/>
<path d="M129.499 95.5351C127.745 96.602 125.76 97.2313 123.712 97.3699C124.641 96.8759 124.947 95.0881 124.124 91.8655C123.453 89.2427 122.724 86.7376 122.16 84.9381C122.077 84.6676 122.007 84.4206 121.924 84.1853L123.442 83.7031C123.524 83.9384 123.594 84.1853 123.689 84.4559C124.265 86.2436 125.1 88.7252 126.041 91.2657C127.24 94.3707 128.417 95.6644 129.499 95.5351Z" fill="#64CF83"/>
<path opacity="0.2" d="M123.712 84.6558C123.475 84.7769 123.227 84.8753 122.971 84.9498C122.716 85.0265 122.457 85.0893 122.195 85.138L121.889 84.1853L123.406 83.7031L123.712 84.6558Z" fill="black"/>
<path opacity="0.3" d="M124.077 81.6442C124.242 82.1617 123.501 82.8204 122.419 83.1967C121.337 83.5731 120.337 83.3849 120.172 82.8792C120.078 82.5616 120.325 82.1735 120.784 81.8442C120.372 82.3381 120.631 82.8556 121.36 82.9027C122.135 82.8869 122.889 82.6413 123.524 82.197C123.877 81.8912 124.042 81.5972 123.795 81.3267C123.924 81.3954 124.024 81.508 124.077 81.6442Z" fill="black"/>
<path d="M119.149 99.8742C117.875 101.343 116.412 102.637 114.797 103.72C115.468 102.991 115.503 101.838 114.48 100.439C113.656 99.2626 112.786 98.2276 112.127 97.4867L111.857 97.1809L113.033 96.1812L113.315 96.487C113.962 97.2162 114.915 98.2041 115.95 99.1685C117.197 100.345 118.337 100.462 119.149 99.8742Z" fill="#64CF83"/>
<path opacity="0.2" d="M113.444 96.6634C113.279 96.8398 113.103 97.0162 112.903 97.1926C112.715 97.3638 112.514 97.5211 112.303 97.6631L111.88 97.1809L113.056 96.1812L113.444 96.6634Z" fill="black"/>
<path d="M113.656 94.2641C113.563 94.1619 113.451 94.0781 113.327 94.0171H113.233H113.091H112.903C112.186 94.1181 111.519 94.4434 110.998 94.9462C110.432 95.4029 110.021 96.0232 109.822 96.7222C109.827 96.7612 109.827 96.8008 109.822 96.8398V96.9104C109.816 96.9573 109.816 97.0047 109.822 97.0515C109.827 97.0827 109.827 97.1145 109.822 97.1456C109.867 97.2776 109.935 97.4009 110.022 97.5102C110.115 97.6091 110.227 97.689 110.351 97.7455C110.845 98.016 111.845 97.6749 112.703 96.8986C113.562 96.1224 114.044 95.1815 113.879 94.6522C113.833 94.5084 113.757 94.376 113.656 94.2641Z" fill="#64CF83"/>
<path opacity="0.3" d="M112.715 94.6515C112.974 94.9338 112.715 95.6042 112.08 96.1334C111.445 96.6627 110.775 96.8626 110.528 96.5804C110.281 96.2981 110.41 96.0746 110.622 95.7335C110.492 96.1687 110.822 96.4275 111.304 96.251C111.793 96.0069 112.201 95.6272 112.48 95.1572C112.621 94.8632 112.645 94.628 112.398 94.5221C112.457 94.5188 112.516 94.5287 112.571 94.551C112.626 94.5734 112.675 94.6077 112.715 94.6515Z" fill="black"/>
<path d="M111.668 107.884C111.271 109.898 110.4 111.789 109.128 113.4C109.386 112.377 108.269 110.954 105.34 109.425C102.988 108.178 100.636 107.072 98.9186 106.261L98.2012 105.932L98.8716 104.485L99.589 104.814C101.294 105.579 103.682 106.602 106.187 107.59C109.257 108.837 111.056 108.695 111.668 107.884Z" fill="#64CF83"/>
<path opacity="0.2" d="M99.7772 104.932C99.7019 105.189 99.6076 105.441 99.4949 105.684C99.3908 105.93 99.2649 106.167 99.1186 106.39L98.2012 105.967L98.8716 104.52L99.7772 104.932Z" fill="black"/>
<path d="M98.7427 101.262C98.5491 101.18 98.3414 101.136 98.1311 101.132H97.9312H97.7077H97.6136C97.5549 101.146 97.4991 101.17 97.4489 101.203C96.546 101.83 95.8283 102.688 95.371 103.687C94.9137 104.687 94.7336 105.791 94.8497 106.884C94.8497 106.884 94.8497 107.001 94.8497 107.048V107.154L94.9555 107.354L95.0378 107.46C95.1746 107.626 95.3476 107.759 95.5436 107.848C95.7327 107.931 95.9368 107.975 96.1434 107.977C97.002 107.977 98.1781 106.942 98.9309 105.319C99.6836 103.696 99.7189 102.085 99.1073 101.473C98.9968 101.385 98.8739 101.314 98.7427 101.262Z" fill="#64CF83"/>
<path opacity="0.3" d="M97.6725 102.391C98.2018 102.626 98.2253 103.743 97.6725 104.861C97.1198 105.978 96.3082 106.696 95.779 106.449C95.4496 106.307 95.3085 105.825 95.3791 105.272C95.4849 105.955 96.0965 106.119 96.6611 105.578C97.2138 104.933 97.5654 104.14 97.6725 103.297C97.6725 102.791 97.5667 102.438 97.1668 102.438C97.2422 102.393 97.3268 102.365 97.4143 102.357C97.5019 102.349 97.5901 102.36 97.6725 102.391Z" fill="black"/>
<path d="M108.081 118.222C108.405 120.349 108.381 122.513 108.011 124.632C107.893 123.538 106.776 122.656 104.482 122.445C102.589 122.28 100.766 122.198 99.4601 122.174H98.8955V120.504H99.4483C100.754 120.504 102.589 120.504 104.482 120.327C106.799 120.163 107.928 119.281 108.081 118.222Z" fill="#64CF83"/>
<path opacity="0.2" d="M99.6597 120.457C99.6597 120.728 99.6597 120.998 99.6597 121.292C99.6585 121.575 99.6389 121.858 99.6009 122.139H98.8364V120.469L99.6597 120.457Z" fill="black"/>
<path d="M97.6964 118.563C97.5427 118.565 97.3908 118.597 97.2494 118.657H97.1553L97.026 118.752H96.9671L96.873 118.846C96.4125 119.541 96.1859 120.365 96.2262 121.198C96.1696 122.028 96.3842 122.853 96.8378 123.55L96.9201 123.644H96.9789L97.1083 123.738H97.2024C97.3421 123.805 97.4945 123.841 97.6493 123.844C97.803 123.842 97.9548 123.81 98.0962 123.75C98.6843 123.538 99.1548 122.456 99.1665 121.139C99.1783 119.822 98.7313 118.787 98.1433 118.516C97.9927 118.495 97.8392 118.511 97.6964 118.563Z" fill="#64CF83"/>
<path opacity="0.3" d="M97.3085 119.633C97.7437 119.633 98.0848 120.374 98.073 121.279C98.0613 122.185 97.7084 122.914 97.285 122.914C96.8616 122.914 96.7793 122.632 96.6499 122.197C96.9204 122.632 97.3791 122.561 97.5908 122.02C97.7683 121.426 97.7683 120.792 97.5908 120.197C97.4497 119.845 97.2615 119.656 96.991 119.774C97.0756 119.689 97.1888 119.639 97.3085 119.633Z" fill="black"/>
<path d="M109.187 130.101C109.891 131.497 110.512 132.935 111.045 134.405C110.763 133.817 110.151 133.159 109.504 133.229C109.022 133.308 108.55 133.434 108.093 133.605L107.952 133.676L107.552 132.759H107.693C108.124 132.555 108.521 132.285 108.869 131.959C109.106 131.719 109.263 131.412 109.32 131.08C109.377 130.747 109.33 130.406 109.187 130.101Z" fill="#64CF83"/>
<path opacity="0.2" d="M107.893 132.653C107.963 132.783 108.034 132.936 108.105 133.1C108.172 133.25 108.23 133.403 108.281 133.559L107.952 133.712L107.552 132.794L107.893 132.653Z" fill="black"/>
<path opacity="0.3" d="M105.976 132.642C106.282 132.513 106.752 132.924 107.035 133.571C107.317 134.218 107.282 134.83 107.035 134.971C106.788 135.112 106.599 134.971 106.364 134.665C106.693 134.877 106.999 134.665 106.976 134.241C106.915 133.763 106.715 133.313 106.399 132.948C106.199 132.748 106 132.665 105.858 132.842C105.872 132.763 105.914 132.692 105.976 132.642Z" fill="black"/>
<path d="M114.609 139.533C116.403 140.539 117.962 141.914 119.184 143.567C118.29 143.015 117.455 142.709 115.397 144.743C113.715 146.437 113.55 146.496 112.445 147.731L111.986 148.248L110.81 147.202L111.269 146.672C112.351 145.426 112.445 145.285 113.903 143.414C115.679 141.145 115.268 140.345 114.609 139.533Z" fill="#64CF83"/>
<path opacity="0.2" d="M111.457 146.484C111.682 146.626 111.895 146.787 112.092 146.967C112.291 147.14 112.476 147.329 112.645 147.531L111.986 148.284L110.81 147.237L111.457 146.484Z" fill="black"/>
<path d="M108.187 146.52C108.068 146.663 107.977 146.826 107.917 147.002V147.119C107.917 147.19 107.917 147.249 107.917 147.319C107.917 147.39 107.917 147.378 107.917 147.413C107.917 147.449 107.917 147.507 107.917 147.566C108.176 148.493 108.719 149.316 109.469 149.919C110.157 150.593 111.043 151.03 111.998 151.165H112.256H112.445H112.55C112.72 151.093 112.873 150.984 112.997 150.848C113.119 150.713 113.207 150.552 113.256 150.377C113.527 149.672 112.915 148.425 111.751 147.39C110.586 146.355 109.269 145.908 108.599 146.214C108.441 146.284 108.3 146.389 108.187 146.52Z" fill="#64CF83"/>
<path opacity="0.3" d="M108.846 147.708C109.175 147.32 110.104 147.59 110.916 148.296C111.727 149.002 112.092 149.896 111.751 150.272C111.41 150.648 111.116 150.507 110.575 150.272C111.175 150.366 111.457 149.907 111.151 149.296C110.754 148.674 110.187 148.18 109.516 147.873C109.093 147.732 108.775 147.743 108.669 148.084C108.673 148.013 108.69 147.943 108.72 147.879C108.75 147.814 108.793 147.756 108.846 147.708Z" fill="black"/>
<path d="M124.1 146.108C125.823 146.299 127.493 146.822 129.016 147.649C128.134 147.52 127.135 148.355 126.323 150.472C126.013 151.09 125.75 151.731 125.535 152.389C125.464 152.577 125.417 152.754 125.37 152.906L124.088 152.507C124.088 152.342 124.194 152.177 124.241 151.989C124.442 151.323 124.596 150.643 124.7 149.954C125.241 147.755 124.888 146.497 124.1 146.108Z" fill="#64CF83"/>
<path opacity="0.2" d="M124.335 151.707C124.559 151.736 124.78 151.788 124.994 151.859C125.208 151.925 125.416 152.008 125.617 152.106C125.523 152.389 125.441 152.659 125.37 152.906L124.088 152.506C124.171 152.212 124.253 151.989 124.335 151.707Z" fill="black"/>
<path d="M122.312 152.765C122.277 152.892 122.277 153.026 122.312 153.153C122.307 153.18 122.307 153.208 122.312 153.235C122.308 153.278 122.308 153.322 122.312 153.365V153.459C122.748 153.99 123.341 154.369 124.006 154.541C124.647 154.781 125.347 154.81 126.006 154.623H126.1H126.17L126.276 154.553H126.335C126.419 154.455 126.483 154.341 126.521 154.217C126.56 154.094 126.572 153.964 126.558 153.835C126.558 153.306 125.77 152.659 124.712 152.33C124.337 152.156 123.924 152.081 123.513 152.112C123.101 152.143 122.704 152.279 122.359 152.506C122.331 152.589 122.315 152.677 122.312 152.765Z" fill="#64CF83"/>
<path opacity="0.3" d="M123.077 153.388C123.183 153.035 123.865 152.941 124.594 153.176C125.323 153.412 125.829 153.87 125.711 154.211C125.594 154.552 125.359 154.552 124.982 154.552C125.394 154.435 125.453 154.047 125.076 153.741C124.637 153.45 124.121 153.295 123.594 153.294C123.277 153.294 123.077 153.423 123.112 153.67C123.066 153.584 123.054 153.483 123.077 153.388Z" fill="black"/>
<path d="M134.509 148.319C136.447 147.607 138.528 147.369 140.578 147.625C139.566 147.931 138.919 149.613 139.119 152.906C139.284 155.587 139.531 158.163 139.731 159.963C139.731 160.245 139.731 160.504 139.813 160.739L138.237 160.927C138.237 160.68 138.237 160.421 138.143 160.139C137.92 158.293 137.567 155.717 137.12 153.082C136.567 149.86 135.567 148.389 134.509 148.319Z" fill="#64CF83"/>
<path opacity="0.2" d="M138.12 159.987C138.378 159.92 138.642 159.872 138.908 159.846C139.174 159.823 139.441 159.823 139.707 159.846C139.707 160.198 139.743 160.528 139.813 160.834L138.237 161.022C138.202 160.681 138.167 160.34 138.12 159.987Z" fill="black"/>
<path d="M135.815 162.562C135.834 162.755 135.899 162.94 136.003 163.104C136.018 163.144 136.042 163.18 136.074 163.209L136.215 163.35L136.297 163.421L136.426 163.515C137.346 163.924 138.358 164.078 139.357 163.962C140.356 163.846 141.306 163.464 142.107 162.857L142.213 162.739L142.272 162.657C142.316 162.603 142.351 162.544 142.378 162.48V162.363C142.419 162.173 142.419 161.976 142.378 161.786C142.353 161.595 142.289 161.411 142.19 161.245C141.837 160.551 140.425 160.14 138.802 160.328C137.179 160.516 135.885 161.233 135.697 161.998C135.699 162.192 135.739 162.384 135.815 162.562Z" fill="#64CF83"/>
<path opacity="0.3" d="M137.202 162.88C137.132 162.339 137.99 161.798 139.119 161.703C140.249 161.609 141.201 161.915 141.26 162.444C141.26 162.774 140.978 163.103 140.472 163.338C140.966 162.938 140.801 162.374 140.107 162.162C139.339 162.029 138.549 162.127 137.837 162.444C137.438 162.668 137.226 162.927 137.414 163.244C137.356 163.201 137.308 163.146 137.271 163.083C137.235 163.021 137.211 162.951 137.202 162.88Z" fill="black"/>
<path d="M145.517 145.967C147.053 144.771 148.737 143.779 150.527 143.015C149.728 143.603 149.457 144.72 150.186 146.284C150.786 147.555 151.421 148.742 151.904 149.578L152.103 149.93L150.81 150.695C150.739 150.589 150.68 150.471 150.598 150.354C150.092 149.519 149.363 148.39 148.54 147.249C147.528 145.873 146.423 145.555 145.517 145.967Z" fill="#64CF83"/>
<path opacity="0.2" d="M150.481 150.142C150.67 150.001 150.881 149.86 151.105 149.719L151.787 149.366C151.893 149.566 152.01 149.754 152.105 149.931L150.811 150.695C150.764 150.531 150.599 150.342 150.481 150.142Z" fill="black"/>
<path d="M149.811 152.459C149.886 152.577 149.981 152.68 150.093 152.765H150.175H150.304H150.375H150.493C151.217 152.808 151.935 152.614 152.539 152.212C153.173 151.868 153.686 151.339 154.009 150.695C154.019 150.66 154.019 150.624 154.009 150.589C154.014 150.566 154.014 150.542 154.009 150.518C154.015 150.472 154.015 150.424 154.009 150.377V150.248C153.995 150.111 153.951 149.978 153.88 149.86C153.812 149.74 153.72 149.636 153.609 149.554C153.163 149.201 152.127 149.354 151.116 149.942C150.105 150.53 149.481 151.377 149.575 151.93C149.608 152.123 149.689 152.305 149.811 152.459Z" fill="#64CF83"/>
<path opacity="0.3" d="M150.764 152.212C150.576 151.883 150.975 151.283 151.669 150.871C152.363 150.459 153.093 150.401 153.281 150.73C153.469 151.059 153.281 151.247 153.022 151.541C153.234 151.142 153.022 150.824 152.457 150.906C151.918 151.04 151.431 151.33 151.058 151.741C150.87 152.012 150.799 152.247 151.058 152.388C150.999 152.383 150.941 152.365 150.89 152.334C150.839 152.304 150.796 152.262 150.764 152.212Z" fill="black"/>
<path d="M149.999 143.544C145.678 146.624 140.541 148.353 135.237 148.512C129.933 148.672 124.701 147.255 120.202 144.441C115.704 141.627 112.14 137.543 109.963 132.704C107.786 127.864 107.093 122.488 107.972 117.255C108.85 112.022 111.261 107.167 114.899 103.304C118.536 99.4415 123.238 96.7441 128.409 95.5533C133.58 94.3626 138.988 94.732 143.949 96.6149C148.91 98.4978 153.201 101.81 156.28 106.131C160.407 111.926 162.065 119.122 160.887 126.138C159.709 133.154 155.793 139.415 149.999 143.544Z" fill="#64CF83"/>
<path d="M149.999 143.544C145.678 146.624 140.541 148.353 135.237 148.512C129.933 148.672 124.701 147.255 120.202 144.441C115.704 141.627 112.14 137.543 109.963 132.704C107.786 127.864 107.093 122.488 107.972 117.255C108.85 112.022 111.261 107.167 114.899 103.304C118.536 99.4415 123.238 96.7441 128.409 95.5533C133.58 94.3626 138.988 94.732 143.949 96.6149C148.91 98.4978 153.201 101.81 156.28 106.131C160.407 111.926 162.065 119.122 160.887 126.138C159.709 133.154 155.793 139.415 149.999 143.544Z" fill="#64CF83"/>
<path opacity="0.4" d="M149.999 143.544C145.678 146.624 140.541 148.353 135.237 148.512C129.933 148.672 124.701 147.255 120.202 144.441C115.704 141.627 112.14 137.543 109.963 132.704C107.786 127.864 107.093 122.488 107.972 117.255C108.85 112.022 111.261 107.167 114.899 103.304C118.536 99.4415 123.238 96.7441 128.409 95.5533C133.58 94.3626 138.988 94.732 143.949 96.6149C148.91 98.4978 153.201 101.81 156.28 106.131C160.407 111.926 162.065 119.122 160.887 126.138C159.709 133.154 155.793 139.415 149.999 143.544Z" fill="white"/>
<path opacity="0.1" d="M141.719 147.508C134.004 149.448 114.468 143.979 111.034 124.832C107.599 105.684 126.323 95.8516 133.051 94.8872C129.284 95.087 125.602 96.079 122.244 97.7983C118.887 99.5176 115.93 101.926 113.566 104.865C111.202 107.805 109.484 111.21 108.526 114.858C107.567 118.506 107.388 122.316 108.001 126.038C108.614 129.76 110.006 133.311 112.084 136.459C114.162 139.606 116.881 142.281 120.063 144.307C123.245 146.333 126.818 147.665 130.55 148.217C134.281 148.768 138.087 148.527 141.719 147.508Z" fill="black"/>
<path d="M119.289 116.293C118.937 118.293 117.431 119.692 115.937 119.422C114.444 119.151 113.515 117.328 113.856 115.34C114.197 113.353 115.714 111.953 117.208 112.212C118.701 112.471 119.642 114.305 119.289 116.293Z" fill="#64CF83"/>
<path opacity="0.1" d="M119.289 116.293C118.937 118.293 117.431 119.692 115.937 119.422C114.444 119.151 113.515 117.328 113.856 115.34C114.197 113.353 115.714 111.953 117.208 112.212C118.701 112.471 119.642 114.305 119.289 116.293Z" fill="black"/>
<path opacity="0.25" d="M116.103 113.235C116.879 112.682 118.114 113.729 117.914 115.587C117.749 117.057 116.855 118.316 115.997 118.445C115.694 118.472 115.392 118.38 115.155 118.19C114.919 117.999 114.765 117.724 114.727 117.422C115.056 117.951 115.715 118.045 116.338 117.422C116.728 117.002 117.01 116.494 117.16 115.94C117.309 115.387 117.322 114.806 117.196 114.247C117.008 113.541 116.55 113.176 116.103 113.235Z" fill="black"/>
<path d="M147.494 132.053C148.388 130.242 150.211 129.324 151.575 129.995C152.939 130.665 153.328 132.688 152.422 134.499C151.516 136.311 149.705 137.228 148.341 136.558C146.976 135.887 146.588 133.876 147.494 132.053Z" fill="#64CF83"/>
<path opacity="0.1" d="M147.494 132.053C148.388 130.242 150.211 129.324 151.575 129.995C152.939 130.665 153.328 132.688 152.422 134.499C151.516 136.311 149.705 137.228 148.341 136.558C146.976 135.887 146.588 133.876 147.494 132.053Z" fill="black"/>
<path opacity="0.25" d="M149.693 135.888C148.787 136.205 147.893 134.841 148.611 133.124C149.175 131.748 150.398 130.771 151.257 130.912C151.553 130.972 151.814 131.144 151.987 131.391C152.16 131.639 152.231 131.943 152.186 132.242C152.021 131.642 151.41 131.371 150.634 131.806C150.14 132.1 149.726 132.509 149.427 132.999C149.128 133.489 148.952 134.044 148.916 134.617C148.905 135.335 149.234 135.829 149.693 135.888Z" fill="black"/>
<path d="M136.132 113.4C134.427 113.306 133.109 112.224 133.18 110.918C133.251 109.613 134.685 108.683 136.379 108.778C138.073 108.872 139.39 109.954 139.319 111.247C139.249 112.541 137.826 113.494 136.132 113.4Z" fill="#64CF83"/>
<path opacity="0.1" d="M136.132 113.4C134.427 113.306 133.109 112.224 133.18 110.918C133.251 109.613 134.685 108.683 136.379 108.778C138.073 108.872 139.39 109.954 139.319 111.247C139.249 112.541 137.826 113.494 136.132 113.4Z" fill="black"/>
<path opacity="0.25" d="M138.356 110.435C138.897 111.035 138.144 112.175 136.58 112.187C135.333 112.187 134.228 111.587 133.992 110.882C133.961 110.757 133.955 110.628 133.974 110.501C133.993 110.374 134.037 110.252 134.104 110.143C134.171 110.033 134.259 109.938 134.363 109.863C134.467 109.788 134.585 109.735 134.71 109.706C134.31 110.035 134.298 110.588 134.898 111.046C135.286 111.329 135.738 111.513 136.213 111.583C136.688 111.653 137.173 111.606 137.627 111.446C138.191 111.235 138.462 110.811 138.356 110.435Z" fill="black"/>
<path d="M128.817 126.761C130.204 128.231 130.451 130.289 129.346 131.313C128.24 132.336 126.217 132.03 124.829 130.56C123.442 129.09 123.195 127.032 124.288 126.02C125.382 125.009 127.417 125.303 128.817 126.761Z" fill="#64CF83"/>
<path opacity="0.1" d="M128.817 126.761C130.204 128.231 130.451 130.289 129.346 131.313C128.24 132.336 126.217 132.03 124.829 130.56C123.442 129.09 123.195 127.032 124.288 126.02C125.382 125.009 127.417 125.303 128.817 126.761Z" fill="black"/>
<path opacity="0.25" d="M124.453 127.513C124.453 126.561 126.053 126.184 127.429 127.513C128.523 128.513 129.005 129.983 128.605 130.759C128.446 131.018 128.193 131.205 127.9 131.282C127.606 131.359 127.294 131.319 127.029 131.171C127.652 131.171 128.111 130.748 127.97 129.866C127.864 129.302 127.622 128.773 127.265 128.325C126.909 127.876 126.448 127.521 125.923 127.29C125.241 126.96 124.677 127.113 124.453 127.513Z" fill="black"/>
<path d="M134.862 104.661C132.851 104.438 131.334 103.038 131.522 101.533C131.71 100.027 133.451 98.9686 135.45 99.1803C137.45 99.392 138.979 100.803 138.802 102.321C138.626 103.838 136.874 104.885 134.862 104.661Z" fill="#64CF83"/>
<path opacity="0.1" d="M134.862 104.661C132.851 104.438 131.334 103.038 131.522 101.533C131.71 100.027 133.451 98.9686 135.45 99.1803C137.45 99.392 138.979 100.803 138.802 102.321C138.626 103.838 136.874 104.885 134.862 104.661Z" fill="black"/>
<path opacity="0.25" d="M137.696 101.273C138.307 102.014 137.343 103.332 135.473 103.249C133.991 103.179 132.662 102.367 132.485 101.52C132.437 101.22 132.506 100.913 132.68 100.663C132.853 100.413 133.116 100.24 133.414 100.18C132.909 100.556 132.862 101.215 133.544 101.791C133.988 102.152 134.514 102.4 135.075 102.513C135.637 102.625 136.217 102.6 136.766 102.438C137.46 102.203 137.825 101.732 137.696 101.273Z" fill="black"/>
<path d="M139.237 128.689C140.966 128.243 142.637 128.948 142.978 130.254C143.319 131.559 142.178 132.971 140.437 133.406C138.696 133.841 137.038 133.159 136.697 131.853C136.356 130.548 137.497 129.089 139.237 128.689Z" fill="#64CF83"/>
<path opacity="0.1" d="M139.237 128.689C140.966 128.243 142.637 128.948 142.978 130.254C143.319 131.559 142.178 132.971 140.437 133.406C138.696 133.841 137.038 133.159 136.697 131.853C136.356 130.548 137.497 129.089 139.237 128.689Z" fill="black"/>
<path opacity="0.25" d="M137.931 132.335C137.202 131.9 137.59 130.512 139.107 129.983C139.604 129.767 140.153 129.699 140.688 129.789C141.222 129.879 141.719 130.122 142.118 130.489C142.255 130.723 142.294 131.001 142.226 131.264C142.157 131.526 141.988 131.751 141.754 131.888C142.059 131.418 141.895 130.865 141.154 130.595C140.675 130.43 140.162 130.386 139.662 130.466C139.161 130.546 138.688 130.748 138.284 131.053C137.825 131.477 137.708 131.982 137.931 132.335Z" fill="black"/>
<path d="M149.587 120.456C148.905 117.739 150.022 115.128 152.069 114.575C154.115 114.023 156.326 115.857 156.997 118.586C157.667 121.315 156.55 123.914 154.503 124.467C152.457 125.02 150.246 123.22 149.587 120.456Z" fill="#64CF83"/>
<path opacity="0.1" d="M149.587 120.456C148.905 117.739 150.022 115.128 152.069 114.575C154.115 114.023 156.326 115.857 156.997 118.586C157.667 121.315 156.55 123.914 154.503 124.467C152.457 125.02 150.246 123.22 149.587 120.456Z" fill="black"/>
<path d="M118.007 128.443C118.076 128.834 118.035 129.238 117.887 129.607C117.74 129.977 117.492 130.298 117.172 130.535C116.853 130.772 116.473 130.914 116.076 130.947C115.68 130.98 115.282 130.902 114.927 130.721C114.573 130.541 114.276 130.265 114.069 129.924C113.863 129.584 113.755 129.193 113.759 128.795C113.762 128.397 113.877 128.008 114.089 127.672C114.302 127.335 114.604 127.064 114.961 126.89C115.571 126.706 116.229 126.765 116.796 127.054C117.364 127.343 117.798 127.841 118.007 128.443Z" fill="#64CF83"/>
<path opacity="0.1" d="M118.007 128.443C118.076 128.834 118.035 129.238 117.887 129.607C117.74 129.977 117.492 130.298 117.172 130.535C116.853 130.772 116.473 130.914 116.076 130.947C115.68 130.98 115.282 130.902 114.927 130.721C114.573 130.541 114.276 130.265 114.069 129.924C113.863 129.584 113.755 129.193 113.759 128.795C113.762 128.397 113.877 128.008 114.089 127.672C114.302 127.335 114.604 127.064 114.961 126.89C115.571 126.706 116.229 126.765 116.796 127.054C117.364 127.343 117.798 127.841 118.007 128.443Z" fill="black"/>
<path opacity="0.25" d="M114.738 127.996C114.973 127.314 116.173 127.408 116.867 128.619C117.131 128.993 117.281 129.436 117.298 129.893C117.315 130.351 117.197 130.803 116.961 131.195C116.801 131.345 116.591 131.428 116.373 131.428C116.154 131.428 115.944 131.345 115.785 131.195C116.22 131.371 116.643 131.195 116.749 130.478C116.81 130.044 116.762 129.602 116.61 129.192C116.458 128.781 116.207 128.415 115.879 128.125C115.479 127.784 114.985 127.749 114.738 127.996Z" fill="black"/>
<path d="M128.029 136.734C129.887 137.593 130.887 139.427 130.24 140.839C129.593 142.25 127.547 142.685 125.689 141.827C123.83 140.968 122.819 139.133 123.466 137.734C124.113 136.334 126.159 135.875 128.029 136.734Z" fill="#64CF83"/>
<path opacity="0.1" d="M128.029 136.734C129.887 137.593 130.887 139.427 130.24 140.839C129.593 142.25 127.547 142.685 125.689 141.827C123.83 140.968 122.819 139.133 123.466 137.734C124.113 136.334 126.159 135.875 128.029 136.734Z" fill="black"/>
<path opacity="0.25" d="M124.195 139.086C123.842 138.181 125.206 137.228 126.982 137.91C128.382 138.451 129.405 139.651 129.334 140.533C129.288 140.84 129.122 141.115 128.873 141.3C128.624 141.486 128.312 141.565 128.005 141.521C128.605 141.333 128.864 140.709 128.405 139.933C128.09 139.443 127.661 139.035 127.156 138.745C126.65 138.454 126.083 138.289 125.5 138.263C124.724 138.263 124.242 138.616 124.195 139.086Z" fill="black"/>
<path d="M139.202 139.463C139.549 139.436 139.897 139.506 140.206 139.666C140.516 139.826 140.774 140.069 140.953 140.368C141.131 140.667 141.223 141.01 141.217 141.358C141.212 141.706 141.109 142.046 140.92 142.339C140.732 142.632 140.465 142.866 140.151 143.016C139.837 143.165 139.487 143.224 139.14 143.186C138.794 143.147 138.466 143.013 138.192 142.798C137.918 142.582 137.71 142.295 137.591 141.968C137.487 141.423 137.597 140.86 137.897 140.394C138.197 139.928 138.664 139.595 139.202 139.463Z" fill="#64CF83"/>
<path opacity="0.1" d="M139.202 139.463C139.549 139.436 139.897 139.506 140.206 139.666C140.516 139.826 140.774 140.069 140.953 140.368C141.131 140.667 141.223 141.01 141.217 141.358C141.212 141.706 141.109 142.046 140.92 142.339C140.732 142.632 140.465 142.866 140.151 143.016C139.837 143.165 139.487 143.224 139.14 143.186C138.794 143.147 138.466 143.013 138.192 142.798C137.918 142.582 137.71 142.295 137.591 141.968C137.487 141.423 137.597 140.86 137.897 140.394C138.197 139.928 138.664 139.595 139.202 139.463Z" fill="black"/>
<path opacity="0.25" d="M138.531 142.262C137.955 142.004 138.143 140.957 139.261 140.463C139.61 140.27 140.006 140.181 140.404 140.206C140.802 140.231 141.185 140.369 141.507 140.604C141.568 140.683 141.612 140.774 141.637 140.871C141.662 140.968 141.666 141.069 141.651 141.168C141.636 141.267 141.6 141.362 141.547 141.447C141.494 141.532 141.425 141.605 141.342 141.662C141.531 141.298 141.342 140.898 140.801 140.757C140.437 140.678 140.06 140.688 139.7 140.784C139.34 140.88 139.008 141.06 138.731 141.31C138.402 141.627 138.343 142.027 138.531 142.262Z" fill="black"/>
<path d="M146.141 107.213C145.932 106.935 145.804 106.605 145.772 106.259C145.741 105.913 145.806 105.564 145.961 105.253C146.116 104.942 146.355 104.68 146.651 104.498C146.946 104.315 147.287 104.218 147.635 104.218C147.982 104.218 148.323 104.315 148.619 104.498C148.914 104.68 149.153 104.942 149.308 105.253C149.463 105.564 149.529 105.913 149.497 106.259C149.465 106.605 149.338 106.935 149.128 107.213C148.727 107.6 148.192 107.816 147.635 107.816C147.078 107.816 146.542 107.6 146.141 107.213Z" fill="#64CF83"/>
<path opacity="0.1" d="M146.141 107.213C145.932 106.935 145.804 106.605 145.772 106.259C145.741 105.913 145.806 105.564 145.961 105.253C146.116 104.942 146.355 104.68 146.651 104.498C146.946 104.315 147.287 104.218 147.635 104.218C147.982 104.218 148.323 104.315 148.619 104.498C148.914 104.68 149.153 104.942 149.308 105.253C149.463 105.564 149.529 105.913 149.497 106.259C149.465 106.605 149.338 106.935 149.128 107.213C148.727 107.6 148.192 107.816 147.635 107.816C147.078 107.816 146.542 107.6 146.141 107.213Z" fill="black"/>
<path opacity="0.25" d="M148.846 106.249C148.94 106.86 147.976 107.272 146.941 106.613C146.129 106.096 145.659 105.202 145.835 104.661C145.904 104.474 146.044 104.322 146.225 104.238C146.406 104.154 146.613 104.146 146.8 104.214C146.4 104.214 146.153 104.614 146.341 105.167C146.476 105.514 146.691 105.823 146.969 106.071C147.248 106.318 147.58 106.496 147.941 106.59C148.411 106.684 148.752 106.531 148.846 106.249Z" fill="black"/>
<path d="M127.735 116.175C127.37 117.446 126.288 118.245 125.382 117.963C124.857 117.971 124.343 117.814 123.912 117.512C123.482 117.211 123.158 116.781 122.986 116.285C122.815 115.788 122.804 115.25 122.957 114.747C123.109 114.245 123.416 113.803 123.834 113.485C124.253 113.167 124.76 112.989 125.286 112.977C125.811 112.965 126.326 113.119 126.759 113.418C127.191 113.716 127.518 114.143 127.694 114.638C127.869 115.134 127.883 115.671 127.735 116.175Z" fill="#64CF83"/>
<path opacity="0.1" d="M127.735 116.175C127.37 117.446 126.288 118.245 125.382 117.963C124.857 117.971 124.343 117.814 123.912 117.512C123.482 117.211 123.158 116.781 122.986 116.285C122.815 115.788 122.804 115.25 122.957 114.747C123.109 114.245 123.416 113.803 123.834 113.485C124.253 113.167 124.76 112.989 125.286 112.977C125.811 112.965 126.326 113.119 126.759 113.418C127.191 113.716 127.518 114.143 127.694 114.638C127.869 115.134 127.883 115.671 127.735 116.175Z" fill="black"/>
<path opacity="0.25" d="M125.9 113.964C126.441 113.658 127.17 114.434 126.9 115.622C126.688 116.563 126.018 117.316 125.453 117.339C125.354 117.341 125.255 117.323 125.163 117.285C125.071 117.248 124.987 117.193 124.917 117.122C124.847 117.052 124.792 116.969 124.754 116.877C124.717 116.784 124.699 116.686 124.7 116.587C124.877 116.951 125.288 117.057 125.747 116.692C126.028 116.446 126.246 116.136 126.383 115.788C126.52 115.44 126.572 115.065 126.535 114.693C126.464 114.223 126.206 113.952 125.9 113.964Z" fill="black"/>
<path d="M143.165 119.751C142.943 119.24 142.928 118.662 143.124 118.14C143.319 117.618 143.709 117.192 144.212 116.952C145.165 116.669 146.235 117.469 146.564 118.739C146.721 118.984 146.818 119.262 146.848 119.55C146.878 119.839 146.841 120.13 146.74 120.402C146.638 120.674 146.474 120.918 146.262 121.116C146.049 121.313 145.793 121.459 145.515 121.54C145.237 121.622 144.943 121.638 144.657 121.587C144.372 121.535 144.102 121.418 143.869 121.244C143.637 121.071 143.448 120.846 143.318 120.586C143.187 120.327 143.119 120.041 143.118 119.751H143.165Z" fill="#64CF83"/>
<path opacity="0.1" d="M143.165 119.751C142.943 119.24 142.928 118.662 143.124 118.14C143.319 117.618 143.709 117.192 144.212 116.952C145.165 116.669 146.235 117.469 146.564 118.739C146.721 118.984 146.818 119.262 146.848 119.55C146.878 119.839 146.841 120.13 146.74 120.402C146.638 120.674 146.474 120.918 146.262 121.116C146.049 121.313 145.793 121.459 145.515 121.54C145.237 121.622 144.943 121.638 144.657 121.587C144.372 121.535 144.102 121.418 143.869 121.244C143.637 121.071 143.448 120.846 143.318 120.586C143.187 120.327 143.119 120.041 143.118 119.751H143.165Z" fill="black"/>
<path opacity="0.25" d="M145.917 120.61C145.612 121.163 144.588 120.904 144.165 119.763C143.993 119.402 143.929 118.999 143.981 118.602C144.033 118.206 144.199 117.833 144.459 117.528C144.542 117.475 144.635 117.438 144.732 117.421C144.83 117.403 144.93 117.406 145.026 117.428C145.122 117.45 145.214 117.491 145.294 117.548C145.374 117.606 145.442 117.679 145.494 117.764C145.153 117.552 144.741 117.681 144.565 118.246C144.463 118.602 144.448 118.978 144.52 119.342C144.591 119.706 144.748 120.047 144.976 120.339C145.294 120.704 145.67 120.786 145.917 120.61Z" fill="black"/>
<path d="M124.312 105.343C123.982 105.45 123.629 105.464 123.291 105.381C122.954 105.299 122.646 105.125 122.402 104.878C122.158 104.631 121.988 104.321 121.911 103.982C121.833 103.644 121.851 103.291 121.963 102.962C122.075 102.633 122.276 102.342 122.544 102.121C122.812 101.901 123.136 101.759 123.48 101.712C123.824 101.665 124.174 101.714 124.491 101.855C124.809 101.995 125.08 102.222 125.277 102.508C125.512 103.014 125.543 103.591 125.364 104.119C125.184 104.647 124.807 105.086 124.312 105.343Z" fill="#64CF83"/>
<path opacity="0.1" d="M124.312 105.343C123.982 105.45 123.629 105.464 123.291 105.381C122.954 105.299 122.646 105.125 122.402 104.878C122.158 104.631 121.988 104.321 121.911 103.982C121.833 103.644 121.851 103.291 121.963 102.962C122.075 102.633 122.276 102.342 122.544 102.121C122.812 101.901 123.136 101.759 123.48 101.712C123.824 101.665 124.174 101.714 124.491 101.855C124.809 101.995 125.08 102.222 125.277 102.508C125.512 103.014 125.543 103.591 125.364 104.119C125.184 104.647 124.807 105.086 124.312 105.343Z" fill="black"/>
<path opacity="0.25" d="M124.289 102.462C124.9 102.568 124.982 103.638 124.018 104.379C123.728 104.653 123.366 104.838 122.973 104.911C122.581 104.984 122.176 104.942 121.807 104.791C121.653 104.664 121.555 104.482 121.535 104.283C121.515 104.085 121.575 103.887 121.701 103.732C121.607 104.132 121.866 104.473 122.442 104.473C122.816 104.461 123.182 104.36 123.51 104.178C123.837 103.996 124.116 103.738 124.324 103.426C124.559 103.026 124.524 102.638 124.289 102.462Z" fill="black"/>
<path d="M136.309 124.926C135.598 125.156 134.835 125.163 134.12 124.947C133.406 124.73 132.775 124.3 132.312 123.714C131.849 123.129 131.577 122.415 131.531 121.67C131.486 120.925 131.669 120.184 132.057 119.546C132.445 118.908 133.018 118.404 133.701 118.102C134.384 117.8 135.142 117.713 135.875 117.855C136.608 117.996 137.28 118.359 137.801 118.893C138.323 119.428 138.668 120.109 138.79 120.845C138.996 121.715 138.852 122.631 138.387 123.395C137.923 124.159 137.176 124.709 136.309 124.926Z" fill="#64CF83"/>
<path opacity="0.1" d="M136.309 124.926C135.598 125.156 134.835 125.163 134.12 124.947C133.406 124.73 132.775 124.3 132.312 123.714C131.849 123.129 131.577 122.415 131.531 121.67C131.486 120.925 131.669 120.184 132.057 119.546C132.445 118.908 133.018 118.404 133.701 118.102C134.384 117.8 135.142 117.713 135.875 117.855C136.608 117.996 137.28 118.359 137.801 118.893C138.323 119.428 138.668 120.109 138.79 120.845C138.996 121.715 138.852 122.631 138.387 123.395C137.923 124.159 137.176 124.709 136.309 124.926Z" fill="black"/>
<path opacity="0.25" d="M136.285 118.893C135.227 118.481 133.85 119.281 133.592 120.974C133.333 122.668 135.074 124.679 136.497 123.985C135.969 123.746 135.513 123.372 135.175 122.902C134.836 122.431 134.627 121.88 134.568 121.304C134.519 121.032 134.525 120.754 134.585 120.485C134.646 120.216 134.759 119.962 134.919 119.737C135.079 119.512 135.282 119.322 135.517 119.177C135.751 119.032 136.013 118.935 136.285 118.893Z" fill="black"/>
</g>
</svg>
