<svg width="30" height="33" viewBox="0 0 30 33" fill="none" xmlns="http://www.w3.org/2000/svg">
<g clip-path="url(#clip0_116_6195)">
<path fill-rule="evenodd" clip-rule="evenodd" d="M11.8044 5.87233C11.8041 5.70749 11.8364 5.54423 11.8994 5.3919C11.9624 5.23957 12.0548 5.10116 12.1713 4.9846C12.2879 4.86804 12.4263 4.77563 12.5786 4.71266C12.731 4.64968 12.8942 4.61739 13.0591 4.61762H25.6079C25.7727 4.61739 25.936 4.64968 26.0883 4.71266C26.2407 4.77563 26.3791 4.86804 26.4956 4.9846C26.6122 5.10116 26.7046 5.23957 26.7676 5.3919C26.8305 5.54423 26.8628 5.70749 26.8626 5.87233V13.4023C26.8628 13.5672 26.8305 13.7304 26.7676 13.8828C26.7046 14.0351 26.6122 14.1735 26.4956 14.2901C26.3791 14.4066 26.2407 14.499 26.0883 14.562C25.936 14.625 25.7727 14.6573 25.6079 14.657H15.5685C15.3737 14.6569 15.1815 14.7022 15.0073 14.7894L11.8044 16.3917V5.87233ZM13.0591 2.10645C10.9803 2.10645 9.29496 3.79174 9.29496 5.87056V18.4194C9.29445 18.6335 9.34879 18.8441 9.45281 19.0312C9.55683 19.2183 9.70706 19.3756 9.88915 19.4882C10.0713 19.6007 10.2792 19.6647 10.493 19.6741C10.7069 19.6835 10.9196 19.6379 11.1108 19.5417L15.865 17.1664H25.6079C27.6867 17.1664 29.372 15.4812 29.372 13.4023V5.87233C29.372 3.7935 27.6867 2.10821 25.6079 2.10821H13.0591V2.10645ZM4.27437 4.61762C2.19555 4.61762 0.510254 6.30292 0.510254 8.38174V28.4606C0.510254 30.5394 2.19555 32.2247 4.27437 32.2247H18.0779C20.1567 32.2247 21.842 30.5394 21.842 28.4606V19.6759C21.842 19.3431 21.7098 19.0239 21.4745 18.7886C21.2392 18.5533 20.9201 18.4212 20.5873 18.4212C20.2545 18.4212 19.9354 18.5533 19.7001 18.7886C19.4648 19.0239 19.3326 19.3431 19.3326 19.6759V28.4606C19.3328 28.6254 19.3005 28.7887 19.2376 28.941C19.1746 29.0933 19.0822 29.2317 18.9656 29.3483C18.8491 29.4648 18.7107 29.5573 18.5583 29.6202C18.406 29.6832 18.2427 29.7155 18.0779 29.7153H4.27437C4.10954 29.7155 3.94627 29.6832 3.79394 29.6202C3.64161 29.5573 3.5032 29.4648 3.38664 29.3483C3.27009 29.2317 3.17767 29.0933 3.1147 28.941C3.05173 28.7887 3.01943 28.6254 3.01967 28.4606V8.38174C3.01943 8.2169 3.05173 8.05364 3.1147 7.90131C3.17767 7.74898 3.27009 7.61057 3.38664 7.49401C3.5032 7.37745 3.64161 7.28504 3.79394 7.22207C3.94627 7.1591 4.10954 7.1268 4.27437 7.12703H6.78378C6.94855 7.12703 7.11171 7.09458 7.26394 7.03152C7.41617 6.96847 7.55448 6.87605 7.67099 6.75954C7.7875 6.64303 7.87992 6.50471 7.94298 6.35248C8.00603 6.20025 8.03849 6.0371 8.03849 5.87233C8.03849 5.70756 8.00603 5.5444 7.94298 5.39217C7.87992 5.23994 7.7875 5.10163 7.67099 4.98512C7.55448 4.86861 7.41617 4.77619 7.26394 4.71313C7.11171 4.65008 6.94855 4.61762 6.78378 4.61762H4.27437Z" fill="#64CF83"/>
</g>
<defs>
<clipPath id="clip0_116_6195">
<rect width="30" height="31.7647" fill="white" transform="translate(0 0.617188)"/>
</clipPath>
</defs>
</svg>
