<svg width="17" height="18" viewBox="0 0 17 18" fill="none" xmlns="http://www.w3.org/2000/svg">
<g clip-path="url(#clip0_116_6214)">
<path fill-rule="evenodd" clip-rule="evenodd" d="M6.68906 2.97775C6.68893 2.88434 6.70723 2.79183 6.74292 2.70551C6.7786 2.61918 6.83097 2.54075 6.89702 2.4747C6.96306 2.40865 7.0415 2.35629 7.12782 2.3206C7.21414 2.28492 7.30665 2.26662 7.40006 2.26675H14.5111C14.6045 2.26662 14.697 2.28492 14.7833 2.3206C14.8696 2.35629 14.9481 2.40865 15.0141 2.4747C15.0802 2.54075 15.1325 2.61918 15.1682 2.70551C15.2039 2.79183 15.2222 2.88434 15.2221 2.97775V7.24475C15.2222 7.33816 15.2039 7.43067 15.1682 7.51699C15.1325 7.60332 15.0802 7.68175 15.0141 7.7478C14.9481 7.81385 14.8696 7.86621 14.7833 7.9019C14.697 7.93758 14.6045 7.95588 14.5111 7.95575H8.82206C8.71167 7.95569 8.60279 7.98137 8.50406 8.03075L6.68906 8.93875V2.97775ZM7.40006 0.84375C6.22206 0.84375 5.26706 1.79875 5.26706 2.97675V10.0878C5.26677 10.2091 5.29757 10.3284 5.35651 10.4344C5.41546 10.5405 5.50058 10.6296 5.60377 10.6934C5.70696 10.7572 5.82477 10.7935 5.94596 10.7988C6.06716 10.8041 6.18769 10.7783 6.29606 10.7238L8.99006 9.37775H14.5111C15.6891 9.37775 16.6441 8.42275 16.6441 7.24475V2.97775C16.6441 1.79975 15.6891 0.84475 14.5111 0.84475H7.40006V0.84375ZM2.42206 2.26675C1.24406 2.26675 0.289062 3.22175 0.289062 4.39975V15.7778C0.289062 16.9557 1.24406 17.9107 2.42206 17.9107H10.2441C11.4221 17.9107 12.3771 16.9557 12.3771 15.7778V10.7998C12.3771 10.6112 12.3022 10.4303 12.1688 10.297C12.0355 10.1637 11.8546 10.0887 11.6661 10.0887C11.4775 10.0887 11.2966 10.1637 11.1633 10.297C11.03 10.4303 10.9551 10.6112 10.9551 10.7998V15.7778C10.9552 15.8712 10.9369 15.9637 10.9012 16.05C10.8655 16.1363 10.8132 16.2147 10.7471 16.2808C10.6811 16.3468 10.6026 16.3992 10.5163 16.4349C10.43 16.4706 10.3375 16.4889 10.2441 16.4888H2.42206C2.32866 16.4889 2.23614 16.4706 2.14982 16.4349C2.0635 16.3992 1.98506 16.3468 1.91902 16.2808C1.85297 16.2147 1.8006 16.1363 1.76492 16.05C1.72923 15.9637 1.71093 15.8712 1.71106 15.7778V4.39975C1.71093 4.30634 1.72923 4.21383 1.76492 4.12751C1.8006 4.04118 1.85297 3.96275 1.91902 3.8967C1.98506 3.83066 2.0635 3.77829 2.14982 3.7426C2.23614 3.70692 2.32866 3.68862 2.42206 3.68875H3.84406C3.93743 3.68875 4.02989 3.67036 4.11615 3.63463C4.20241 3.5989 4.28079 3.54653 4.34682 3.4805C4.41284 3.41448 4.46521 3.3361 4.50094 3.24984C4.53667 3.16358 4.55506 3.07112 4.55506 2.97775C4.55506 2.88438 4.53667 2.79192 4.50094 2.70566C4.46521 2.6194 4.41284 2.54102 4.34682 2.475C4.28079 2.40897 4.20241 2.3566 4.11615 2.32087C4.02989 2.28514 3.93743 2.26675 3.84406 2.26675H2.42206Z" fill="#777777"/>
</g>
<defs>
<clipPath id="clip0_116_6214">
<rect width="17" height="18" fill="white"/>
</clipPath>
</defs>
</svg>
