<svg width="323" height="347" viewBox="0 0 323 347" fill="none" xmlns="http://www.w3.org/2000/svg">
<g opacity="0.2">
<path d="M249.651 153.05C246 156.189 243.174 160.173 241.419 164.656C243.175 162.955 247.428 163.586 254.041 167.784C259.528 171.241 264.577 174.726 268.198 177.278L269.735 178.348L271.875 175.33L270.366 174.232C266.744 171.653 261.805 167.949 256.784 163.97C250.611 159.087 248.608 155.3 249.651 153.05Z" fill="#64CF83"/>
<path opacity="0.2" d="M269.954 173.985C269.526 174.431 269.132 174.908 268.774 175.412C268.41 175.915 268.089 176.447 267.814 177.003L269.707 178.348L271.847 175.33L269.954 173.985Z" fill="black"/>
<path d="M276.21 172.804C276.503 173.013 276.747 173.285 276.923 173.6C276.938 173.672 276.938 173.747 276.923 173.819C276.923 173.819 276.923 174.039 276.923 174.176C276.923 174.313 276.923 174.176 276.923 174.368C276.923 174.56 276.923 174.56 276.923 174.67C276.86 176.569 276.187 178.397 275.003 179.883C273.979 181.473 272.482 182.702 270.722 183.395H270.421H269.515C269.159 183.334 268.821 183.194 268.527 182.983C268.234 182.774 267.99 182.502 267.814 182.188C266.991 180.981 267.594 178.292 269.378 175.795C271.161 173.298 273.466 171.844 274.865 172.228C275.357 172.295 275.822 172.494 276.21 172.804Z" fill="#64CF83"/>
<path opacity="0.3" d="M275.47 175.548C274.647 174.972 273 175.877 271.766 177.606C270.531 179.335 270.229 181.173 271.025 181.776C271.821 182.38 272.369 181.776 273.22 181.283C272.095 181.722 271.354 180.953 271.656 179.664C272.137 178.287 273.016 177.084 274.18 176.207C274.921 175.768 275.525 175.63 275.881 176.207C275.861 176.075 275.814 175.948 275.743 175.835C275.672 175.722 275.579 175.624 275.47 175.548Z" fill="black"/>
<path d="M233.05 172.806C228.478 174.306 224.284 176.777 220.758 180.05C223.063 179.172 225.12 178.87 228.989 184.687C232.172 189.406 232.528 189.653 234.477 192.918C234.806 193.412 235.08 193.906 235.355 194.345L238.537 192.452L237.687 191.025C235.711 187.595 235.574 187.238 232.967 182.163C229.867 175.962 231.157 174.315 233.05 172.806Z" fill="#64CF83"/>
<path opacity="0.2" d="M237.467 190.503C236.888 190.733 236.329 191.008 235.793 191.326C235.252 191.639 234.738 191.997 234.257 192.396L235.464 194.399L238.647 192.506L237.467 190.503Z" fill="black"/>
<path d="M244.931 192.011C245.161 192.376 245.302 192.789 245.343 193.218V193.52C245.37 193.665 245.37 193.814 245.343 193.959C245.358 194.032 245.358 194.106 245.343 194.179C245.351 194.298 245.351 194.417 245.343 194.535C244.262 196.498 242.673 198.132 240.741 199.267C238.81 200.402 236.608 200.995 234.368 200.983H234.011H233.792L233.38 200.819L233.161 200.654C232.798 200.417 232.498 200.097 232.283 199.721C232.056 199.365 231.916 198.961 231.871 198.541C231.569 196.813 233.517 194.206 236.645 192.368C239.773 190.53 243.011 190.063 244.355 191.161C244.593 191.41 244.788 191.698 244.931 192.011Z" fill="#64CF83"/>
<path opacity="0.3" d="M242.901 194.453C242.298 193.438 240.158 193.63 237.908 194.892C235.658 196.154 234.506 198.02 235.164 199.063C235.521 199.694 236.536 199.858 237.743 199.584C236.344 199.584 235.877 198.349 236.865 197.087C238.036 195.817 239.568 194.936 241.255 194.563C242.27 194.426 242.984 194.563 243.066 195.414C243.104 195.251 243.108 195.082 243.08 194.917C243.052 194.752 242.991 194.595 242.901 194.453Z" fill="black"/>
<path d="M208.632 183.78C204.601 183.433 200.543 183.9 196.696 185.152C198.754 185.152 200.702 187.622 201.635 192.917C202.063 194.503 202.384 196.117 202.595 197.746C202.595 198.213 202.595 198.624 202.76 199.036L205.86 198.679C205.86 198.267 205.86 197.856 205.86 197.389C205.679 195.759 205.633 194.116 205.723 192.478C205.312 187.155 206.629 184.384 208.632 183.78Z" fill="#64CF83"/>
<path opacity="0.2" d="M205.64 196.786C205.12 196.746 204.597 196.746 204.077 196.786C203.556 196.839 203.042 196.94 202.54 197.088C202.54 197.774 202.54 198.432 202.76 199.036L205.86 198.679C205.805 198.13 205.723 197.499 205.64 196.786Z" fill="black"/>
<path d="M209.838 200.106C209.892 200.405 209.892 200.712 209.838 201.011C209.847 201.075 209.847 201.14 209.838 201.203C209.805 201.314 209.749 201.417 209.674 201.505L209.509 201.697C208.282 202.715 206.765 203.32 205.174 203.426C203.603 203.678 201.993 203.439 200.564 202.74L200.372 202.603L200.153 202.356V202.191C199.98 201.939 199.876 201.646 199.851 201.341C199.782 201.052 199.782 200.751 199.851 200.463C200.153 199.255 202.183 198.13 204.735 197.719C207.286 197.307 209.509 198.048 210.085 199.173C210.077 199.499 209.992 199.819 209.838 200.106Z" fill="#64CF83"/>
<path opacity="0.3" d="M207.809 201.066C207.809 200.243 206.19 199.722 204.434 199.914C202.678 200.106 201.306 200.984 201.388 201.807C201.471 202.63 202.074 202.74 202.925 202.905C202.047 202.466 202.074 201.56 203.089 201.012C204.217 200.541 205.458 200.417 206.656 200.655C207.37 200.847 207.781 201.176 207.617 201.725C207.755 201.534 207.823 201.302 207.809 201.066Z" fill="black"/>
<path d="M136.525 103.664C138.169 100.405 139.616 97.052 140.86 93.6215C140.202 94.9934 138.775 96.5298 137.266 96.3652C136.142 96.1814 135.04 95.8873 133.974 95.4872L133.644 95.3226L132.711 97.4627H133.041C134.046 97.939 134.972 98.5684 135.784 99.3285C136.337 99.8883 136.704 100.604 136.837 101.38C136.969 102.155 136.86 102.952 136.525 103.664Z" fill="#64CF83"/>
<path opacity="0.2" d="M133.507 97.7085C133.672 97.4067 133.836 97.05 134.001 96.6659C134.157 96.3169 134.295 95.9597 134.413 95.5958L133.644 95.2391L132.711 97.3793L133.507 97.7085Z" fill="black"/>
<path opacity="0.3" d="M129.036 97.7351C129.749 98.0369 130.846 97.0766 131.505 95.5676C132.163 94.0585 132.081 92.6318 131.505 92.3025C130.929 91.9733 130.49 92.3025 129.941 93.0159C130.709 92.522 131.423 93.0159 131.368 94.0036C131.227 95.1202 130.759 96.1703 130.023 97.0217C129.557 97.4882 129.09 97.6802 128.761 97.2687C128.793 97.4523 128.891 97.6181 129.036 97.7351Z" fill="black"/>
<path d="M149.175 81.6592C153.359 79.3136 156.997 76.1058 159.848 72.2482C157.763 73.5377 155.815 74.2511 151.013 69.5044C147.09 65.5534 146.705 65.4162 144.126 62.5353L143.056 61.3281L140.312 63.77L141.383 65.0047C143.907 67.9131 144.126 68.2423 147.529 72.6049C151.672 77.9003 150.711 79.766 149.175 81.6592Z" fill="#64CF83"/>
<path opacity="0.2" d="M141.822 65.4429C142.348 65.1122 142.843 64.7357 143.303 64.3179C143.767 63.9138 144.198 63.4734 144.593 63.0009L143.056 61.2449L140.312 63.6869L141.822 65.4429Z" fill="black"/>
<path d="M134.193 65.3609C133.916 65.0273 133.702 64.6461 133.562 64.2359V63.9616C133.562 63.7969 133.562 63.6598 133.562 63.4951C133.562 63.3305 133.562 63.3579 133.562 63.2756C133.562 63.1933 133.562 63.0561 133.562 62.9189C134.167 60.7566 135.433 58.8377 137.184 57.4315C138.789 55.8574 140.856 54.8383 143.083 54.5231H143.686H144.125H144.372C144.769 54.6927 145.124 54.9453 145.415 55.2639C145.698 55.5783 145.905 55.9539 146.019 56.3614C146.65 58.0076 145.223 60.916 142.507 63.3305C139.79 65.745 136.717 66.7876 135.153 66.0742C134.785 65.91 134.457 65.6664 134.193 65.3609Z" fill="#64CF83"/>
<path opacity="0.3" d="M135.73 62.5883C136.498 63.4937 138.666 62.8627 140.559 61.2164C142.452 59.5702 143.303 57.485 142.507 56.607C141.711 55.729 141.025 56.0582 139.763 56.607C141.163 56.3875 141.821 57.4575 141.108 58.8843C140.182 60.3347 138.858 61.4874 137.294 62.2042C136.306 62.5334 135.565 62.506 135.318 61.7103C135.326 61.8766 135.366 62.0397 135.436 62.1904C135.507 62.3411 135.607 62.4763 135.73 62.5883Z" fill="black"/>
<path d="M171.316 66.3203C175.336 65.8762 179.231 64.6555 182.785 62.726C180.727 63.0278 178.395 61.0798 176.502 56.141C175.778 54.6981 175.164 53.2032 174.663 51.6687C174.499 51.2297 174.389 50.8182 174.279 50.4615L171.289 51.3944C171.289 51.7785 171.535 52.1626 171.645 52.6016C172.114 54.1564 172.472 55.7426 172.715 57.3483C173.977 62.4791 173.154 65.4149 171.316 66.3203Z" fill="#64CF83"/>
<path opacity="0.2" d="M171.865 53.2607C172.387 53.1913 172.902 53.0719 173.401 52.9041C173.9 52.7501 174.386 52.5574 174.855 52.3279C174.636 51.6694 174.444 51.0383 174.279 50.4621L171.289 51.395C171.481 52.0809 171.673 52.6022 171.865 53.2607Z" fill="black"/>
<path d="M167.146 50.7919C167.065 50.4957 167.065 50.1828 167.146 49.8865C167.133 49.8232 167.133 49.7578 167.146 49.6944C167.135 49.5941 167.135 49.4929 167.146 49.3926V49.1731C168.162 47.9335 169.546 47.0494 171.097 46.6489C172.592 46.0877 174.226 46.0204 175.762 46.4568H175.981H176.146L176.393 46.6215H176.53C176.727 46.8496 176.875 47.116 176.965 47.404C177.055 47.692 177.084 47.9953 177.051 48.2951C177.051 49.5298 175.213 51.0389 172.744 51.8071C171.87 52.2117 170.907 52.3863 169.946 52.3142C168.986 52.2422 168.06 51.926 167.256 51.3956C167.19 51.201 167.153 50.9975 167.146 50.7919Z" fill="#64CF83"/>
<path opacity="0.3" d="M168.928 49.338C169.175 50.1611 170.767 50.3806 172.468 49.8319C174.169 49.2831 175.349 48.2131 175.074 47.4174C174.8 46.6217 174.251 46.6217 173.373 46.6217C174.334 46.8961 174.471 47.8015 173.593 48.5148C172.567 49.1932 171.365 49.5557 170.136 49.5575C169.395 49.5575 168.928 49.2557 169.011 48.6795C168.904 48.8815 168.874 49.1158 168.928 49.338Z" fill="black"/>
<path d="M195.597 61.1633C200.12 62.8252 204.974 63.3803 209.755 62.7821C207.395 62.0687 205.886 58.1452 206.353 50.4627C206.737 44.207 207.313 38.1982 207.779 34.0003C207.779 33.3418 207.779 32.7382 207.971 32.1894L204.295 31.7504C204.295 32.3266 204.295 32.9302 204.075 33.5887C203.554 37.8964 202.731 43.9052 201.688 50.0512C200.399 57.569 198.067 60.9987 195.597 61.1633Z" fill="#64CF83"/>
<path opacity="0.2" d="M204.022 33.944C204.625 34.1006 205.24 34.2107 205.86 34.2733C206.481 34.3262 207.105 34.3262 207.726 34.2733C207.726 33.4501 207.808 32.6819 207.973 31.9685L204.296 31.5295C204.214 32.3252 204.132 33.1209 204.022 33.944Z" fill="black"/>
<path d="M198.644 27.9354C198.69 27.4861 198.84 27.0538 199.083 26.6733C199.119 26.5795 199.175 26.4951 199.248 26.4264L199.577 26.0971L199.769 25.9325L200.071 25.713C202.216 24.7601 204.576 24.4001 206.907 24.6703C209.238 24.9406 211.454 25.8313 213.323 27.2495L213.57 27.5239L213.708 27.7159C213.81 27.8403 213.893 27.979 213.955 28.1275V28.4019C214.052 28.8447 214.052 29.3035 213.955 29.7463C213.896 30.1926 213.747 30.6221 213.516 31.0084C212.692 32.6272 209.4 33.5875 205.614 33.1485C201.827 32.7095 198.809 31.0359 198.37 29.2524C198.375 28.7998 198.468 28.3524 198.644 27.9354Z" fill="#64CF83"/>
<path opacity="0.3" d="M201.882 27.1958C201.717 28.458 203.72 29.7201 206.354 29.9396C208.988 30.1591 211.21 29.4457 211.347 28.211C211.347 27.4428 210.689 26.6745 209.509 26.1258C210.661 27.0586 210.277 28.3756 208.659 28.8695C206.867 29.1802 205.024 28.951 203.363 28.211C202.43 27.6897 201.936 27.0861 202.375 26.3453C202.24 26.4468 202.127 26.5744 202.042 26.7205C201.957 26.8666 201.903 27.0282 201.882 27.1958Z" fill="black"/>
<path d="M221.279 66.6508C224.862 69.4408 228.79 71.7556 232.967 73.5376C231.101 72.1657 230.47 69.5592 232.171 65.91C233.571 62.9468 235.052 60.1756 236.177 58.2275L236.644 57.4044L233.626 55.621C233.461 55.8679 233.324 56.1423 233.132 56.4167C231.952 58.3647 230.251 60.9987 228.33 63.6601C225.971 66.8703 223.391 67.6111 221.279 66.6508Z" fill="#64CF83"/>
<path opacity="0.2" d="M232.859 56.9094C233.298 57.2386 233.792 57.5679 234.313 57.8971L235.904 58.7202C236.151 58.2538 236.426 57.8148 236.645 57.4032L233.627 55.6198C233.517 56.0039 233.133 56.4429 232.859 56.9094Z" fill="black"/>
<path d="M231.294 51.5052C231.47 51.2302 231.693 50.9886 231.953 50.7918H232.145H232.447H232.611H232.886C234.575 50.6919 236.251 51.1446 237.66 52.0814C239.138 52.8832 240.334 54.1184 241.089 55.6208C241.113 55.7014 241.113 55.7871 241.089 55.8678C241.101 55.922 241.101 55.9782 241.089 56.0324C241.103 56.1417 241.103 56.2523 241.089 56.3616V56.6634C241.056 56.9835 240.953 57.2925 240.788 57.5689C240.63 57.8485 240.415 58.0916 240.157 58.2823C239.114 59.1054 236.699 58.7487 234.34 57.3768C231.98 56.0049 230.526 54.0295 230.745 52.7399C230.823 52.289 231.011 51.8646 231.294 51.5052Z" fill="#64CF83"/>
<path opacity="0.3" d="M233.518 52.0817C233.079 52.85 234.012 54.2493 235.631 55.2096C237.249 56.1699 238.951 56.3071 239.39 55.5388C239.829 54.7706 239.39 54.3316 238.786 53.6456C239.28 54.5785 238.786 55.3193 237.469 55.1273C236.212 54.8161 235.075 54.138 234.204 53.1792C233.765 52.5481 233.6 51.9994 234.204 51.6701C234.066 51.6816 233.932 51.7247 233.813 51.7961C233.694 51.8674 233.593 51.9652 233.518 52.0817Z" fill="black"/>
<path d="M242.022 82.1258C243.527 86.7466 246.396 90.8027 250.253 93.7593C249.32 91.4545 252.064 87.1194 259.746 81.1106C261.585 79.7113 265.453 76.0896 269.926 72.8794L271.819 71.535L269.679 68.5169L267.786 69.8613C263.258 73.0441 258.375 76.4463 257.03 77.3243C248.881 82.6197 243.888 83.7721 242.022 82.1258Z" fill="#64CF83"/>
<path opacity="0.2" d="M267.814 69.8335C268.083 70.3931 268.405 70.9259 268.774 71.4248C269.132 71.9288 269.526 72.4057 269.954 72.8516L271.847 71.5071L269.707 68.489L267.814 69.8335Z" fill="black"/>
<path d="M268.553 60.9709C268.952 60.6788 269.411 60.4817 269.898 60.3947H270.227H270.364C270.538 60.3809 270.712 60.3809 270.885 60.3947H271.132H271.544C273.952 61.3346 275.999 63.0162 277.388 65.1962C279.003 67.2204 279.918 69.7141 279.995 72.3025C279.995 72.3025 279.995 72.5769 279.995 72.7141C279.995 72.8513 279.995 72.8787 279.995 72.961C279.964 73.1296 279.919 73.2949 279.857 73.4549V73.5921C279.823 73.6887 279.777 73.7808 279.72 73.8665C279.467 74.294 279.131 74.667 278.733 74.9639C278.341 75.2507 277.892 75.4474 277.416 75.5402C275.467 76.0615 272.285 74.086 269.87 70.6837C267.456 67.2815 266.605 63.6323 267.73 61.9586C267.944 61.5833 268.223 61.2488 268.553 60.9709Z" fill="#64CF83"/>
<path opacity="0.3" d="M271.518 63.0567C270.393 63.8524 270.832 66.404 272.506 68.7636C274.18 71.1233 276.457 72.3579 277.554 71.5074C278.24 71.0135 278.35 69.8337 277.911 68.4893C277.911 70.1081 276.649 70.7391 275.167 69.7514C273.621 68.5156 272.468 66.8569 271.847 64.9773C271.6 63.7975 271.71 62.9744 272.643 62.7823C272.447 62.7517 272.246 62.7602 272.053 62.8073C271.86 62.8544 271.678 62.9391 271.518 63.0567Z" fill="black"/>
<path d="M254.287 103.717C254.24 108.764 255.25 113.764 257.25 118.396C257.25 115.817 259.994 113.129 266.908 111.318C272.395 109.836 271.929 110.056 275.825 109.26L277.471 108.903L276.703 105.089L275.057 105.419C271.133 106.187 271.627 105.693 265.92 106.489C258.951 107.449 255.192 106.132 254.287 103.717Z" fill="#64CF83"/>
<path opacity="0.2" d="M274.947 105.446C274.947 106.05 275.111 106.709 275.221 107.367C275.346 108.008 275.511 108.64 275.715 109.26L277.471 108.904L276.703 105.09L274.947 105.446Z" fill="black"/>
<path d="M278.571 100.123C278.933 100.054 279.306 100.054 279.668 100.123H279.888C280.007 100.156 280.119 100.212 280.217 100.288H280.382L280.601 100.48C281.846 101.885 282.698 103.595 283.069 105.436C283.44 107.277 283.317 109.183 282.714 110.961L282.549 111.208V111.373L282.302 111.647C282.239 111.634 282.174 111.634 282.11 111.647C281.808 111.848 281.474 111.997 281.122 112.086C280.77 112.168 280.404 112.168 280.052 112.086C278.598 111.867 277.062 109.589 276.458 106.599C275.854 103.608 276.458 100.892 277.638 100.123C277.947 100.07 278.262 100.07 278.571 100.123Z" fill="#64CF83"/>
<path opacity="0.3" d="M279.941 102.429C278.953 102.621 278.487 104.459 278.926 106.517C279.365 108.575 280.462 110.111 281.45 109.919C282.438 109.727 282.465 109.041 282.603 107.999C282.164 109.096 281.066 109.124 280.353 107.999C279.673 106.711 279.396 105.248 279.557 103.801C279.722 102.978 280.051 102.429 280.737 102.594C280.502 102.439 280.218 102.38 279.941 102.429Z" fill="black"/>
<path d="M257.361 131.648C256.358 135.156 255.561 138.72 254.974 142.321C255.385 140.867 256.483 139.083 258.019 139.028C259.16 138.987 260.302 139.079 261.421 139.303H261.778L262.272 137.053H261.943C260.837 136.795 259.781 136.36 258.815 135.763C258.183 135.306 257.706 134.667 257.446 133.932C257.187 133.197 257.157 132.4 257.361 131.648Z" fill="#64CF83"/>
<path opacity="0.2" d="M261.447 136.891C261.447 137.248 261.228 137.632 261.146 138.016C261.063 138.4 261.008 138.784 260.954 139.168L261.777 139.333L262.271 137.083L261.447 136.891Z" fill="black"/>
<path d="M265.59 134.011C265.901 134.067 266.193 134.199 266.441 134.395L266.633 134.614C266.623 134.687 266.623 134.761 266.633 134.834C267.069 136.219 267.132 137.694 266.814 139.111C266.496 140.528 265.808 141.835 264.822 142.9H264.63H264.355H264.191C263.91 142.955 263.621 142.955 263.34 142.9C263.074 142.827 262.823 142.706 262.599 142.544C261.667 141.94 261.282 139.8 261.804 137.523C262.325 135.245 263.532 133.489 264.548 133.325C264.97 133.41 265.344 133.656 265.59 134.011Z" fill="#64CF83"/>
<path opacity="0.3" d="M265.838 136.04C265.069 135.876 264.164 137.028 263.807 138.62C263.451 140.211 263.807 141.638 264.548 141.802C265.289 141.967 265.536 141.5 265.947 140.815C265.316 141.446 264.521 141.144 264.356 140.101C264.277 138.978 264.545 137.857 265.124 136.891C265.508 136.342 265.92 136.095 266.332 136.397C266.278 136.307 266.206 136.229 266.121 136.168C266.037 136.106 265.94 136.063 265.838 136.04Z" fill="black"/>
<path d="M225.89 99.1092C227.975 103.335 232.228 105.475 235.411 103.911C238.594 102.347 239.499 97.6276 237.386 93.4022C235.274 89.1768 231.048 87.0367 227.866 88.6007C224.683 90.1646 223.778 94.8564 225.89 99.1092Z" fill="#64CF83"/>
<path opacity="0.1" d="M225.89 99.1092C227.975 103.335 232.228 105.475 235.411 103.911C238.594 102.347 239.499 97.6276 237.386 93.4022C235.274 89.1768 231.048 87.0367 227.866 88.6007C224.683 90.1646 223.778 94.8564 225.89 99.1092Z" fill="black"/>
<path opacity="0.25" d="M231.019 90.1636C228.907 89.4228 226.822 92.6056 228.495 96.6114C229.812 99.8216 232.666 102.099 234.669 101.77C235.359 101.63 235.969 101.23 236.372 100.653C236.776 100.076 236.942 99.3654 236.836 98.6692C236.452 100.069 235.025 100.7 233.214 99.6844C232.064 98.9996 231.097 98.0445 230.399 96.9018C229.701 95.7591 229.292 94.4633 229.209 93.1269C229.181 91.4532 229.949 90.3008 231.019 90.1636Z" fill="black"/>
<path d="M199.385 142.624C195.406 142.844 192.333 145.368 192.498 148.413C192.663 151.459 196.01 153.627 199.961 153.407C203.912 153.188 206.985 150.663 206.82 147.645C206.656 144.627 203.336 142.405 199.385 142.624Z" fill="#64CF83"/>
<path opacity="0.1" d="M199.385 142.624C195.406 142.844 192.333 145.368 192.498 148.413C192.663 151.459 196.01 153.627 199.961 153.407C203.912 153.188 206.985 150.663 206.82 147.645C206.656 144.627 203.336 142.405 199.385 142.624Z" fill="black"/>
<path opacity="0.25" d="M204.572 149.541C205.834 148.142 204.078 145.48 200.429 145.453C197.52 145.453 194.941 146.852 194.392 148.498C194.319 148.789 194.304 149.09 194.349 149.386C194.394 149.682 194.497 149.966 194.653 150.222C194.809 150.477 195.014 150.699 195.257 150.874C195.499 151.05 195.775 151.175 196.066 151.242C195.133 150.474 195.106 149.184 196.505 148.114C197.411 147.455 198.464 147.025 199.573 146.862C200.682 146.7 201.813 146.809 202.871 147.181C204.188 147.675 204.819 148.663 204.572 149.541Z" fill="black"/>
<path d="M196.422 163.01C191.73 163.531 188.191 166.797 188.63 170.309C189.069 173.821 193.13 176.29 197.794 175.796C202.459 175.302 206.025 172.01 205.614 168.47C205.202 164.931 201.114 162.489 196.422 163.01Z" fill="#64CF83"/>
<path opacity="0.1" d="M196.422 163.01C191.73 163.531 188.191 166.797 188.63 170.309C189.069 173.821 193.13 176.29 197.794 175.796C202.459 175.302 206.025 172.01 205.614 168.47C205.202 164.931 201.114 162.489 196.422 163.01Z" fill="black"/>
<path opacity="0.25" d="M203.033 170.913C204.459 169.184 202.21 166.111 197.847 166.303C194.39 166.468 191.29 168.361 190.878 170.336C190.765 171.037 190.927 171.754 191.331 172.337C191.735 172.92 192.35 173.324 193.046 173.464C191.866 172.586 191.756 171.05 193.347 169.705C194.384 168.863 195.61 168.285 196.92 168.022C198.23 167.759 199.584 167.819 200.865 168.196C202.484 168.745 203.335 169.843 203.033 170.913Z" fill="black"/>
<path d="M206.63 106.956C210.663 107.998 214.559 106.352 215.355 103.307C216.15 100.261 213.489 96.9685 209.428 95.9533C205.368 94.9381 201.499 96.5295 200.703 99.575C199.907 102.621 202.569 106.023 206.63 106.956Z" fill="#64CF83"/>
<path opacity="0.1" d="M206.63 106.956C210.663 107.998 214.559 106.352 215.355 103.307C216.15 100.261 213.489 96.9685 209.428 95.9533C205.368 94.9381 201.499 96.5295 200.703 99.575C199.907 102.621 202.569 106.023 206.63 106.956Z" fill="black"/>
<path opacity="0.25" d="M203.582 98.4508C201.881 99.466 202.786 102.704 206.325 103.938C207.485 104.443 208.766 104.6 210.012 104.39C211.259 104.181 212.419 103.614 213.349 102.758C213.669 102.213 213.759 101.562 213.6 100.95C213.44 100.338 213.044 99.8138 212.499 99.4934C213.212 100.591 212.828 101.88 211.1 102.511C209.981 102.895 208.786 102.998 207.619 102.812C206.451 102.625 205.348 102.155 204.405 101.441C203.335 100.454 203.06 99.2739 203.582 98.4508Z" fill="black"/>
<path d="M230.773 126.163C229.182 132.501 231.788 138.592 236.562 139.881C241.336 141.171 246.495 136.891 248.059 130.525C249.622 124.16 247.016 118.096 242.242 116.806C237.468 115.517 232.309 119.715 230.773 126.163Z" fill="#64CF83"/>
<path opacity="0.1" d="M230.773 126.163C229.182 132.501 231.788 138.592 236.562 139.881C241.336 141.171 246.495 136.891 248.059 130.525C249.622 124.16 247.016 118.096 242.242 116.806C237.468 115.517 232.309 119.715 230.773 126.163Z" fill="black"/>
<path opacity="0.25" d="M244.162 121.196C242.571 118.452 237.55 120.016 235.711 125.778C234.257 130.36 235.272 135.271 237.632 136.753C238.056 137.002 238.526 137.165 239.013 137.231C239.501 137.297 239.996 137.265 240.471 137.137C240.947 137.009 241.391 136.788 241.78 136.487C242.169 136.185 242.494 135.809 242.735 135.381C241.062 136.506 239.004 135.93 237.989 133.213C237.386 131.462 237.218 129.59 237.5 127.759C237.782 125.928 238.505 124.194 239.608 122.705C241.062 120.922 242.9 120.4 244.162 121.196Z" fill="black"/>
<path opacity="0.25" d="M149.476 108.573C150.025 110.165 152.823 109.945 154.442 107.119C155.06 106.248 155.409 105.215 155.448 104.148C155.487 103.08 155.214 102.025 154.662 101.11C154.29 100.761 153.8 100.567 153.29 100.567C152.78 100.567 152.289 100.761 151.918 101.11C152.933 100.699 153.921 101.11 154.168 102.784C154.31 103.795 154.198 104.826 153.844 105.784C153.49 106.741 152.903 107.596 152.138 108.272C151.205 109.067 150.052 109.15 149.476 108.573Z" fill="black"/>
<path d="M180.482 88.1888C184.817 86.1859 187.15 81.9057 185.64 78.6132C184.131 75.3207 179.357 74.3055 175.022 76.3085C170.687 78.3114 168.327 82.5916 169.837 85.8567C171.346 89.1217 176.12 90.1918 180.482 88.1888Z" fill="#64CF83"/>
<path opacity="0.1" d="M180.482 88.1888C184.817 86.1859 187.15 81.9057 185.64 78.6132C184.131 75.3207 179.357 74.3055 175.022 76.3085C170.687 78.3114 168.327 82.5916 169.837 85.8567C171.346 89.1217 176.12 90.1918 180.482 88.1888Z" fill="black"/>
<path opacity="0.25" d="M171.537 82.7015C170.713 84.8142 173.896 87.0367 178.039 85.4453C181.304 84.1832 183.691 81.3845 183.527 79.3267C183.418 78.6114 183.032 77.9679 182.451 77.5362C181.87 77.1046 181.143 76.9197 180.426 77.022C181.826 77.461 182.429 78.9152 181.359 80.726C180.623 81.87 179.624 82.8209 178.445 83.4988C177.266 84.1767 175.941 84.5619 174.582 84.6222C172.771 84.6222 171.646 83.799 171.537 82.7015Z" fill="black"/>
<path d="M206.546 81.8237C207.356 81.8869 208.167 81.7227 208.889 81.3496C209.61 80.9765 210.213 80.4093 210.63 79.7119C211.047 79.0145 211.26 78.2146 211.247 77.4024C211.234 76.5901 210.994 75.7977 210.554 75.1144C210.115 74.4312 209.493 73.8842 208.76 73.5351C208.026 73.186 207.21 73.0487 206.402 73.1386C205.595 73.2286 204.829 73.5422 204.19 74.0441C203.551 74.546 203.065 75.2163 202.787 75.9795C202.546 77.2497 202.801 78.5639 203.501 79.6512C204.2 80.7385 205.29 81.5161 206.546 81.8237Z" fill="#64CF83"/>
<path opacity="0.1" d="M206.546 81.8237C207.356 81.8869 208.167 81.7227 208.889 81.3496C209.61 80.9765 210.213 80.4093 210.63 79.7119C211.047 79.0145 211.26 78.2146 211.247 77.4024C211.234 76.5901 210.994 75.7977 210.554 75.1144C210.115 74.4312 209.493 73.8842 208.76 73.5351C208.026 73.186 207.21 73.0487 206.402 73.1386C205.595 73.2286 204.829 73.5422 204.19 74.0441C203.551 74.546 203.065 75.2163 202.787 75.9795C202.546 77.2497 202.801 78.5639 203.501 79.6512C204.2 80.7385 205.29 81.5161 206.546 81.8237Z" fill="black"/>
<path opacity="0.25" d="M204.982 75.2925C203.638 75.8961 204.077 78.338 206.684 79.4904C207.498 79.9403 208.423 80.1483 209.352 80.09C210.28 80.0317 211.173 79.7094 211.924 79.1612C212.066 78.9758 212.169 78.7635 212.227 78.5372C212.284 78.3108 212.296 78.0752 212.26 77.8444C212.224 77.6136 212.142 77.3925 212.018 77.1944C211.894 76.9963 211.732 76.8253 211.54 76.6918C211.979 77.5424 211.54 78.4752 210.278 78.8045C209.428 78.9872 208.548 78.9656 207.708 78.7414C206.868 78.5172 206.094 78.0969 205.449 77.5149C204.681 76.7741 204.543 75.8412 204.982 75.2925Z" fill="black"/>
<path d="M222.734 157.057C222.247 157.704 221.949 158.475 221.875 159.283C221.801 160.09 221.953 160.903 222.315 161.628C222.677 162.354 223.234 162.964 223.923 163.391C224.613 163.818 225.408 164.044 226.219 164.044C227.03 164.044 227.825 163.818 228.514 163.391C229.204 162.964 229.761 162.354 230.123 161.628C230.485 160.903 230.637 160.09 230.563 159.283C230.489 158.475 230.191 157.704 229.703 157.057C228.768 156.155 227.519 155.651 226.219 155.651C224.919 155.651 223.67 156.155 222.734 157.057Z" fill="#64CF83"/>
<path opacity="0.1" d="M222.734 157.057C222.247 157.704 221.949 158.475 221.875 159.283C221.801 160.09 221.953 160.903 222.315 161.628C222.677 162.354 223.234 162.964 223.923 163.391C224.613 163.818 225.408 164.044 226.219 164.044C227.03 164.044 227.825 163.818 228.514 163.391C229.204 162.964 229.761 162.354 230.123 161.628C230.485 160.903 230.637 160.09 230.563 159.283C230.489 158.475 230.191 157.704 229.703 157.057C228.768 156.155 227.519 155.651 226.219 155.651C224.919 155.651 223.67 156.155 222.734 157.057Z" fill="black"/>
<path opacity="0.25" d="M229.045 159.306C229.264 157.879 227.014 156.919 224.6 158.456C222.707 159.663 221.609 161.748 222.021 163.01C222.181 163.446 222.508 163.801 222.93 163.996C223.352 164.192 223.834 164.212 224.271 164.053C223.338 164.053 222.761 163.12 223.2 161.83C223.515 161.021 224.018 160.298 224.667 159.721C225.315 159.144 226.092 158.729 226.932 158.51C228.029 158.291 228.825 158.648 229.045 159.306Z" fill="black"/>
<path opacity="0.25" d="M175.515 141.308C176.777 142.022 178.478 140.211 177.847 137.44C177.353 135.245 175.789 133.489 174.472 133.434C174.24 133.43 174.01 133.473 173.796 133.56C173.581 133.647 173.386 133.776 173.222 133.94C173.058 134.104 172.929 134.299 172.842 134.514C172.755 134.728 172.712 134.958 172.716 135.19C173.128 134.339 174.088 134.092 175.158 134.943C175.813 135.518 176.321 136.242 176.641 137.053C176.961 137.864 177.082 138.74 176.996 139.607C176.832 140.705 176.228 141.336 175.515 141.308Z" fill="black"/>
<path d="M215.792 127.808C215.274 129.001 215.24 130.348 215.695 131.566C216.15 132.784 217.061 133.778 218.234 134.338C220.457 134.997 222.953 133.131 223.722 130.168C224.086 129.597 224.313 128.95 224.384 128.276C224.454 127.603 224.368 126.923 224.13 126.289C223.893 125.655 223.511 125.085 223.015 124.624C222.519 124.163 221.923 123.824 221.274 123.633C220.624 123.443 219.939 123.406 219.273 123.526C218.607 123.645 217.977 123.919 217.435 124.324C216.893 124.729 216.452 125.254 216.148 125.859C215.843 126.464 215.684 127.131 215.682 127.808H215.792Z" fill="#64CF83"/>
<path opacity="0.1" d="M215.792 127.808C215.274 129.001 215.24 130.348 215.695 131.566C216.15 132.784 217.061 133.778 218.234 134.338C220.457 134.997 222.953 133.131 223.722 130.168C224.086 129.597 224.313 128.95 224.384 128.276C224.454 127.603 224.368 126.923 224.13 126.289C223.893 125.655 223.511 125.085 223.015 124.624C222.519 124.163 221.923 123.824 221.274 123.633C220.624 123.443 219.939 123.406 219.273 123.526C218.607 123.645 217.977 123.919 217.435 124.324C216.893 124.729 216.452 125.254 216.148 125.859C215.843 126.464 215.684 127.131 215.682 127.808H215.792Z" fill="black"/>
<path opacity="0.25" d="M222.212 125.804C221.498 124.514 219.111 125.118 218.123 127.78C217.722 128.622 217.573 129.562 217.695 130.488C217.816 131.413 218.203 132.283 218.809 132.993C219.003 133.118 219.22 133.204 219.447 133.244C219.674 133.284 219.907 133.279 220.132 133.228C220.357 133.176 220.57 133.081 220.757 132.946C220.945 132.812 221.103 132.641 221.224 132.444C220.428 132.938 219.468 132.636 219.056 131.319C218.82 130.487 218.784 129.611 218.951 128.762C219.118 127.913 219.483 127.116 220.017 126.435C220.757 125.585 221.635 125.392 222.212 125.804Z" fill="black"/>
<path d="M1.46175 317.292C3.74808 318.45 5.75484 320.091 7.34244 322.103C6.1663 321.456 5.14306 321.127 2.63789 323.891C0.567886 326.149 0.367934 326.243 -0.972863 327.878C-1.18457 328.113 -1.37274 328.348 -1.54916 328.56L-3.07812 327.313L-2.52534 326.619C-1.1963 324.961 -1.10223 324.784 0.685496 322.303C2.86135 319.268 2.33209 318.28 1.46175 317.292Z" fill="#F0F0F0"/>
<path d="M-6.35824 326.56C-6.50155 326.74 -6.60571 326.948 -6.66405 327.171V327.324C-6.66405 327.324 -6.66405 327.324 -6.66405 327.383C-6.67579 327.465 -6.67579 327.548 -6.66405 327.63C-6.66923 327.669 -6.66923 327.709 -6.66405 327.748C-6.66907 327.81 -6.66907 327.873 -6.66405 327.936C-6.2453 329.053 -5.53639 330.039 -4.61029 330.791C-3.68419 331.544 -2.57435 332.036 -1.39493 332.217H-1.07739H-0.842145H-0.783353L-0.653959 332.158C-0.444049 332.059 -0.259121 331.915 -0.112945 331.735C0.0300884 331.558 0.134306 331.354 0.192862 331.135C0.486897 330.253 -0.336413 328.712 -1.84187 327.489C-3.34733 326.266 -5.01746 325.772 -5.829 326.254C-6.02407 326.319 -6.20401 326.423 -6.35824 326.56Z" fill="#F0F0F0"/>
<path d="M13.4478 325.113C15.6077 325.255 17.7183 325.822 19.6578 326.783C18.5522 326.666 17.3055 327.783 16.4116 330.5C16.0635 331.308 15.765 332.137 15.5178 332.982C15.459 333.229 15.3884 333.44 15.3413 333.652L13.7183 333.217L13.8947 332.546C14.1227 331.694 14.28 330.825 14.3651 329.947C14.9885 327.136 14.5063 325.56 13.4478 325.113Z" fill="#F0F0F0"/>
<path d="M14.0361 332.194C14.3183 332.227 14.5975 332.282 14.8712 332.359C15.1407 332.427 15.4043 332.518 15.6592 332.629L15.3887 333.652L13.7656 333.217C13.8597 332.9 13.9538 332.558 14.0361 332.194Z" fill="#E0E0E0"/>
<path d="M12.5538 334.299C12.6714 333.864 13.5182 333.711 14.4356 333.958C15.353 334.205 15.9999 334.758 15.8823 335.193C15.7647 335.628 15.4589 335.628 14.9884 335.652C15.4942 335.487 15.553 335.005 15.059 334.64C14.5009 334.299 13.8542 334.131 13.2007 334.158C12.8126 334.158 12.5538 334.346 12.6126 334.664C12.5488 334.554 12.5279 334.424 12.5538 334.299Z" fill="#E0E0E0"/>
<path d="M26.5264 327.336C28.9037 326.342 31.4864 325.938 34.0536 326.16C32.8775 326.607 32.1013 328.747 32.5247 332.875C32.8658 336.239 33.3009 339.462 33.7008 341.79C33.7008 342.132 33.7949 342.461 33.8537 342.767L31.8896 343.072C31.8896 342.767 31.7955 342.437 31.7367 342.096C31.3603 339.744 30.784 336.568 30.0901 333.263C29.1844 329.182 27.8436 327.371 26.5264 327.336Z" fill="#F0F0F0"/>
<path d="M31.6426 341.826C31.9615 341.725 32.2879 341.651 32.6188 341.602C32.949 341.547 33.2835 341.519 33.6185 341.52C33.6773 341.955 33.7361 342.367 33.8067 342.755L31.8425 343.061C31.7837 342.673 31.7131 342.261 31.6426 341.826Z" fill="#E0E0E0"/>
<path d="M28.89 345.143C28.9336 345.383 29.0256 345.611 29.1605 345.813C29.185 345.861 29.2167 345.905 29.2546 345.943V346.002L29.4428 346.178L29.5369 346.249L29.7133 346.354C30.8712 346.915 32.1809 347.08 33.4417 346.825C34.6933 346.689 35.8703 346.162 36.8054 345.319L36.9348 345.167L37.0054 345.072C37.0513 345.002 37.0906 344.927 37.123 344.849C37.1281 344.826 37.1281 344.802 37.123 344.778C37.1296 344.728 37.1296 344.676 37.123 344.626C37.1822 344.39 37.1822 344.144 37.123 343.908C37.0854 343.674 37.0014 343.45 36.876 343.249C36.3938 342.391 34.606 341.956 32.5948 342.273C30.5836 342.591 29.0664 343.543 28.8194 344.508C28.8041 344.722 28.828 344.937 28.89 345.143Z" fill="#F0F0F0"/>
<path d="M30.6431 345.471C30.5373 344.801 31.584 344.095 32.9954 343.872C34.4068 343.648 35.5947 344.013 35.7005 344.683C35.7711 345.083 35.3947 345.519 34.7596 345.86C35.3594 345.33 35.136 344.683 34.2539 344.448C33.2911 344.332 32.3152 344.495 31.4429 344.919C30.9607 345.224 30.7019 345.554 30.9607 345.942C30.8785 345.889 30.808 345.82 30.7534 345.739C30.6988 345.659 30.6613 345.567 30.6431 345.471Z" fill="#E0E0E0"/>
<path d="M40.1108 323.902C41.9538 322.325 43.9986 321 46.1915 319.962C45.227 320.739 45.0153 322.15 45.968 324.079C46.7795 325.643 47.6381 327.113 48.3203 328.137L48.5908 328.583L47.0148 329.607L46.7325 329.172C46.0503 328.148 45.0741 326.76 43.9803 325.373C42.6042 323.679 41.2164 323.303 40.1108 323.902Z" fill="#F0F0F0"/>
<path d="M46.5449 328.924C46.7801 328.735 47.0389 328.547 47.3094 328.371C47.5799 328.194 47.8739 328.03 48.1327 327.889C48.2856 328.136 48.4385 328.359 48.5678 328.583L46.9918 329.606C46.8507 329.394 46.7096 329.182 46.5449 328.924Z" fill="#E0E0E0"/>
<path d="M45.8387 331.841C45.9318 331.988 46.0563 332.112 46.2033 332.205L46.3092 332.264L46.4856 332.323H46.5679H46.7208C47.6233 332.329 48.5044 332.049 49.2378 331.523C50.0155 331.068 50.6321 330.381 51.002 329.559V329.418C51.002 329.418 51.002 329.359 51.002 329.324C51.002 329.288 51.002 329.206 51.002 329.147C50.9962 329.108 50.9962 329.069 51.002 329.03C50.9724 328.858 50.9084 328.694 50.8138 328.548C50.7209 328.408 50.6009 328.288 50.461 328.195C49.8964 327.771 48.6027 328.006 47.3795 328.806C46.1563 329.606 45.4153 330.676 45.5682 331.359C45.6188 331.538 45.7115 331.704 45.8387 331.841Z" fill="#F0F0F0"/>
<path d="M47.0734 331.535C46.8147 331.135 47.2851 330.359 48.1319 329.818C48.9787 329.277 49.8726 329.159 50.1314 329.559C50.3901 329.959 50.1314 330.194 49.8609 330.582C50.0961 330.065 49.7433 329.688 49.1081 329.818C48.4481 330.02 47.8602 330.408 47.4145 330.935C47.191 331.276 47.1087 331.57 47.4145 331.746C47.3464 331.736 47.2812 331.711 47.2226 331.675C47.164 331.639 47.1133 331.591 47.0734 331.535Z" fill="#E0E0E0"/>
<path d="M50.8252 315.411C51.6801 312.982 53.1084 310.795 54.9887 309.036C54.483 310.212 55.5886 312.212 58.917 314.635C61.6222 316.622 64.3037 318.457 66.2561 319.739L67.0677 320.28L65.9856 321.938L65.1623 321.409C63.1982 320.139 60.4578 318.434 57.5409 316.705C53.9772 314.682 51.7308 314.458 50.8252 315.411Z" fill="#F0F0F0"/>
<path d="M64.9395 321.256C65.08 320.955 65.2411 320.664 65.4217 320.386C65.6036 320.107 65.8082 319.843 66.0333 319.598L67.0683 320.28L65.9862 321.938L64.9395 321.256Z" fill="#E0E0E0"/>
<path d="M65.5274 325.972C65.7512 326.118 66.0039 326.215 66.2683 326.254H66.5153H66.7976H66.927L67.1387 326.195C68.4049 325.639 69.4628 324.696 70.1614 323.502C70.9514 322.377 71.3632 321.03 71.3375 319.656V319.444C71.3441 319.402 71.3441 319.358 71.3375 319.315C71.3133 319.223 71.2818 319.132 71.2434 319.045V318.986C71.2434 318.927 71.1846 318.88 71.1611 318.833C71.0208 318.61 70.8352 318.42 70.6163 318.274C70.3974 318.128 70.1502 318.03 69.8908 317.986C68.8323 317.763 67.174 318.892 65.9625 320.762C64.7511 322.632 64.3748 324.596 65.0099 325.466C65.1468 325.668 65.3228 325.84 65.5274 325.972Z" fill="#F0F0F0"/>
<path d="M67.0681 324.796C66.4565 324.396 66.6447 323.02 67.4915 321.726C68.3383 320.433 69.5027 319.727 70.1143 320.127C70.5024 320.374 70.573 320.985 70.373 321.726C70.373 320.868 69.6556 320.55 68.8558 321.115C68.049 321.802 67.4672 322.716 67.1857 323.738C67.0681 324.361 67.1857 324.82 67.6561 324.914C67.5552 324.935 67.4511 324.935 67.3501 324.915C67.249 324.895 67.1531 324.854 67.0681 324.796Z" fill="#E0E0E0"/>
<path d="M57.1763 303.307C57.1708 300.626 57.5957 297.961 58.4348 295.415C58.4348 296.779 59.611 298.073 62.4219 298.767C64.7154 299.32 66.9618 299.755 68.5731 300.025L69.2553 300.143L68.926 302.19L68.2438 302.095C66.6207 301.849 64.3625 301.554 61.9985 301.366C59.117 301.166 57.5527 302.013 57.1763 303.307Z" fill="#F0F0F0"/>
<path d="M67.9854 302.131C67.9985 301.785 68.0338 301.439 68.0912 301.096C68.15 300.732 68.2323 300.391 68.3147 300.073L69.2556 300.226L68.9263 302.273L67.9854 302.131Z" fill="#E0E0E0"/>
<path d="M70.044 304.824C70.2339 304.866 70.4304 304.866 70.6203 304.824H70.7379L70.9261 304.719L70.9967 304.66L71.1261 304.566C71.7682 303.792 72.1909 302.86 72.3502 301.867C72.5095 300.874 72.3995 299.856 72.0317 298.92L71.9494 298.791V298.709L71.8082 298.556L71.7024 298.485C71.546 298.372 71.3642 298.299 71.1731 298.273C70.9872 298.232 70.7945 298.232 70.6086 298.273C69.8323 298.426 69.0561 299.685 68.7973 301.296C68.5386 302.907 68.8796 304.342 69.5736 304.73C69.7223 304.794 69.8824 304.826 70.044 304.824Z" fill="#F0F0F0"/>
<path d="M70.714 303.578C70.1847 303.496 69.9025 302.52 70.0789 301.403C70.2553 300.285 70.8316 299.462 71.3609 299.544C71.6902 299.544 71.9254 299.991 72.0195 300.544C71.7607 299.956 71.1844 299.968 70.8434 300.544C70.5149 301.244 70.4003 302.026 70.514 302.79C70.6199 303.249 70.8081 303.52 71.1727 303.426C71.1119 303.483 71.0394 303.526 70.9602 303.552C70.881 303.579 70.797 303.588 70.714 303.578Z" fill="#E0E0E0"/>
<path d="M58.0113 288.465C57.4026 286.61 56.9038 284.721 56.5176 282.808C56.7646 283.584 57.3997 284.513 58.2112 284.501C58.8211 284.5 59.4288 284.429 60.0225 284.29H60.2107L60.5282 285.466H60.34C59.76 285.638 59.209 285.895 58.7052 286.23C58.3776 286.489 58.136 286.841 58.0122 287.24C57.8883 287.639 57.888 288.066 58.0113 288.465Z" fill="#F0F0F0"/>
<path d="M60.094 285.56C60.0172 285.369 59.9543 285.172 59.9058 284.972C59.847 284.76 59.7999 284.56 59.7646 284.36L60.2116 284.243L60.5291 285.419L60.094 285.56Z" fill="#E0E0E0"/>
<path d="M62.3631 287.019C62.5079 286.978 62.6437 286.91 62.763 286.819L62.8335 286.748L62.9394 286.619V286.548L62.9982 286.442C63.2022 285.691 63.2007 284.898 62.9938 284.147C62.787 283.396 62.3823 282.714 61.8221 282.173L61.7162 282.114H61.6457H61.5045H61.4104C61.2628 282.086 61.1111 282.086 60.9635 282.114C60.8167 282.149 60.6799 282.218 60.5636 282.314C60.0696 282.667 59.9167 283.796 60.2461 285.008C60.5754 286.219 61.2575 287.136 61.8691 287.195C62.0456 287.177 62.215 287.116 62.3631 287.019Z" fill="#F0F0F0"/>
<path d="M62.4461 285.925C62.0462 286.031 61.5405 285.431 61.27 284.584C60.9994 283.737 61.1876 282.973 61.5875 282.867C61.9874 282.761 62.1285 283.008 62.3638 283.373C61.9992 283.043 61.5875 283.232 61.5287 283.784C61.5129 284.383 61.6767 284.973 61.9992 285.478C62.2226 285.76 62.4461 285.901 62.6578 285.713C62.6163 285.808 62.5407 285.883 62.4461 285.925Z" fill="#E0E0E0"/>
<path d="M53.0832 275.833C51.0512 274.241 49.3797 272.237 48.1787 269.952C49.1784 270.811 50.1546 271.34 53.0832 269.164C55.4355 267.4 55.6825 267.353 57.2703 266.036L57.9406 265.483L59.2109 267L58.5523 267.565C56.9762 268.894 56.8586 269.047 54.6945 271.093C52.0482 273.634 52.4128 274.704 53.0832 275.833Z" fill="#F0F0F0"/>
<path d="M58.2585 267.835C58.0098 267.613 57.7779 267.373 57.5646 267.117C57.3506 266.86 57.1541 266.589 56.9766 266.306L57.941 265.518L59.2112 267.035L58.2585 267.835Z" fill="#E0E0E0"/>
<path d="M61.6694 266.847C61.1872 267.259 60.0934 266.753 59.2348 265.73C58.3762 264.706 58.0587 263.542 58.5526 263.13C59.0466 262.719 59.3994 262.977 59.964 263.33C59.2348 263.107 58.7879 263.624 59.0701 264.436C59.4404 265.279 60.0497 265.994 60.8226 266.494C61.3166 266.741 61.7164 266.788 61.8929 266.388C61.888 266.476 61.8657 266.561 61.8274 266.64C61.789 266.719 61.7353 266.789 61.6694 266.847Z" fill="#E0E0E0"/>
<path d="M42.5922 265.941C40.5038 265.386 38.5427 264.432 36.8174 263.13C37.8641 263.46 39.2638 262.613 40.6634 260.155C41.1569 259.441 41.6009 258.695 41.9924 257.92L42.2982 257.32L43.7919 258.05L43.4978 258.661C43.1298 259.445 42.8193 260.255 42.5687 261.084C41.4984 263.695 41.6748 265.318 42.5922 265.941Z" fill="#F0F0F0"/>
<path d="M43.3336 259.002C43.0677 258.915 42.8083 258.808 42.5573 258.685C42.3036 258.563 42.0598 258.421 41.8281 258.261L42.2986 257.32L43.7923 258.05L43.3336 259.002Z" fill="#E0E0E0"/>
<path d="M46.0379 258.074C46.1061 257.921 46.1459 257.758 46.1556 257.592C46.1613 257.556 46.1613 257.521 46.1556 257.486C46.1655 257.431 46.1655 257.375 46.1556 257.321C46.1594 257.294 46.1594 257.266 46.1556 257.239V257.121C45.7241 256.387 45.0688 255.809 44.2855 255.474C43.534 255.069 42.6757 254.904 41.8274 255.004H41.698H41.6157L41.4628 255.075L41.3805 255.133C41.257 255.244 41.1536 255.376 41.0746 255.522C41.0068 255.666 40.9669 255.821 40.9571 255.98C40.8983 256.639 41.7215 257.568 42.9565 258.18C44.1914 258.791 45.4381 258.862 45.9203 258.403C45.9757 258.3 46.0154 258.189 46.0379 258.074Z" fill="#F0F0F0"/>
<path d="M45.2033 257.215C45.0034 257.627 44.1566 257.615 43.298 257.215C42.4394 256.815 41.9101 256.121 42.1218 255.71C42.3335 255.298 42.6158 255.369 43.0863 255.439C42.557 255.498 42.4159 255.969 42.8275 256.415C43.3111 256.86 43.918 257.147 44.5682 257.239C44.9563 257.239 45.2268 257.239 45.2268 256.862C45.2478 256.92 45.2566 256.981 45.2525 257.041C45.2485 257.102 45.2317 257.161 45.2033 257.215Z" fill="#E0E0E0"/>
<path d="M30.1604 261.284C27.6346 261.801 25.0219 261.708 22.5391 261.013C23.8446 260.825 24.8913 258.861 25.3147 254.768C25.6088 251.428 25.7969 248.205 25.891 245.877C25.891 245.524 25.891 245.206 25.891 244.9L27.8787 244.971C27.8787 245.265 27.8787 245.594 27.8787 245.947C27.8081 248.299 27.7729 251.51 27.8787 254.862C27.9022 258.967 28.8667 260.966 30.1604 261.284Z" fill="#F0F0F0"/>
<path d="M27.8666 246.218C27.5377 246.242 27.2075 246.242 26.8786 246.218C26.5432 246.208 26.209 246.172 25.8789 246.112C25.8789 245.665 25.8789 245.253 25.8789 244.865L27.8666 244.936C27.9019 245.347 27.8783 245.771 27.8666 246.218Z" fill="#E0E0E0"/>
<path d="M31.2071 243.478C31.2093 243.231 31.1613 242.987 31.066 242.76C31.0515 242.711 31.0317 242.664 31.0071 242.619V242.56L30.866 242.348L30.7719 242.266L30.6308 242.125C29.6019 241.391 28.3661 241.004 27.1024 241.019C25.8436 240.918 24.5849 241.214 23.5034 241.866L23.3505 241.984C23.3163 242.012 23.2847 242.044 23.2564 242.078L23.0918 242.266V242.337L23.0212 242.466C22.9093 242.685 22.8451 242.926 22.833 243.172C22.8339 243.409 22.8777 243.644 22.9624 243.866C23.2682 244.795 24.9383 245.559 26.973 245.63C29.0077 245.7 30.7366 245.054 31.113 244.148C31.1846 243.932 31.2165 243.705 31.2071 243.478Z" fill="#F0F0F0"/>
<path d="M29.5486 242.83C29.5486 243.501 28.3725 244.006 26.9494 243.948C25.5263 243.889 24.4324 243.313 24.4559 242.654C24.4559 242.23 24.9146 241.878 25.6321 241.689C24.9382 242.101 25.044 242.807 25.8673 243.171C26.7885 243.474 27.7786 243.499 28.7136 243.242C29.2429 243.03 29.5604 242.76 29.384 242.325C29.4986 242.467 29.5571 242.647 29.5486 242.83Z" fill="#E0E0E0"/>
<path d="M16.1416 262.143C14.0266 263.337 11.7651 264.251 9.41406 264.86C10.5196 264.284 11.0371 262.955 10.4373 260.897C9.94332 259.227 9.37877 257.639 8.93184 256.51C8.87303 256.345 8.80246 256.18 8.74365 256.039L10.4961 255.333C10.5549 255.475 10.6137 255.639 10.6843 255.804C11.1547 256.98 11.8604 258.45 12.6484 260.003C13.6482 261.885 14.9537 262.484 16.1416 262.143Z" fill="#F0F0F0"/>
<path d="M10.8019 256.074C10.5314 256.203 10.2491 256.345 9.9433 256.462C9.6517 256.585 9.35327 256.691 9.04946 256.78L8.74365 256.027L10.4961 255.321C10.5902 255.557 10.6843 255.804 10.8019 256.074Z" fill="#E0E0E0"/>
<path d="M12.0475 253.334C11.9773 253.175 11.8775 253.032 11.7535 252.911C11.7231 252.886 11.6955 252.859 11.6711 252.828L11.5065 252.734H11.4241H11.2948C10.4102 252.556 9.49175 252.663 8.67199 253.04C7.82206 253.343 7.0867 253.902 6.56669 254.639C6.54248 254.676 6.52275 254.716 6.5079 254.757V254.839C6.50258 254.898 6.50258 254.957 6.5079 255.016C6.5079 255.016 6.5079 255.098 6.5079 255.133C6.50477 255.307 6.53676 255.479 6.60198 255.639C6.66404 255.799 6.76041 255.944 6.88427 256.063C7.35473 256.58 8.67197 256.592 10.0128 256.063C11.3536 255.533 12.3063 254.592 12.2827 253.887C12.26 253.683 12.1782 253.491 12.0475 253.334Z" fill="#F0F0F0"/>
<path d="M10.7778 253.392C10.9542 253.839 10.3426 254.498 9.4135 254.874C8.48435 255.25 7.5787 255.203 7.40228 254.756C7.28466 254.486 7.48462 254.121 7.86099 253.792C7.53167 254.262 7.80218 254.698 8.44906 254.698C9.14149 254.631 9.79753 254.356 10.3309 253.91C10.6249 253.616 10.7425 253.345 10.5073 253.122C10.6294 253.173 10.7266 253.27 10.7778 253.392Z" fill="#E0E0E0"/>
<path d="M3.94471 268.671C2.77369 270.997 0.923933 272.912 -1.35968 274.163C-0.665762 272.987 -1.77134 270.506 -5.37032 266.73C-6.2289 265.825 -7.98135 263.602 -10.0749 261.543L-10.9688 260.673L-9.59265 259.25L-8.68704 260.109C-6.55823 262.155 -4.25299 264.343 -3.60611 264.919C0.275145 268.389 2.86267 269.4 3.94471 268.671Z" fill="#F0F0F0"/>
<path d="M10.1662 264.296C16.0707 261.301 22.7307 260.124 29.304 260.914C35.8773 261.704 42.0687 264.426 47.095 268.736C52.1213 273.045 55.7568 278.748 57.5418 285.123C59.3268 291.499 59.181 298.26 57.1229 304.553C55.0649 310.846 51.187 316.387 45.9796 320.475C40.7723 324.564 34.4694 327.016 27.8681 327.523C21.2669 328.029 14.6637 326.566 8.89381 323.32C3.12387 320.073 -1.55368 315.188 -4.54729 309.283C-8.56077 301.366 -9.2654 292.179 -6.50618 283.742C-3.74696 275.306 2.25012 268.311 10.1662 264.296Z" fill="#F0F0F0"/>
<path d="M10.1662 264.296C16.0707 261.301 22.7307 260.124 29.304 260.914C35.8773 261.704 42.0687 264.426 47.095 268.736C52.1213 273.045 55.7568 278.748 57.5418 285.123C59.3268 291.499 59.181 298.26 57.1229 304.553C55.0649 310.846 51.187 316.387 45.9796 320.475C40.7723 324.564 34.4694 327.016 27.8681 327.523C21.2669 328.029 14.6637 326.566 8.89381 323.32C3.12387 320.073 -1.55368 315.188 -4.54729 309.283C-8.56077 301.366 -9.2654 292.179 -6.50618 283.742C-3.74696 275.306 2.25012 268.311 10.1662 264.296Z" fill="#F5F5F5"/>
<path d="M21.1162 260.967C30.9958 260.002 54.0481 270.317 54.7538 294.651C55.4595 318.986 30.5488 327.583 22.0336 327.489C26.7215 327.95 31.4539 327.415 35.9212 325.921C40.3885 324.427 44.4902 322.007 47.9581 318.82C51.426 315.632 54.1821 311.748 56.046 307.422C57.91 303.096 58.8398 298.425 58.7749 293.715C58.7099 289.005 57.6516 284.362 55.6691 280.089C53.6865 275.816 50.8245 272.009 47.27 268.918C43.7155 265.827 39.5486 263.521 35.0418 262.151C30.5349 260.781 25.7897 260.377 21.1162 260.967Z" fill="#E0E0E0"/>
<path d="M42.9928 303.613C43.7926 301.261 45.8979 299.779 47.6973 300.379C49.4968 300.979 50.3084 303.414 49.4968 305.801C48.6853 308.189 46.5918 309.647 44.7923 309.035C42.9928 308.424 42.1813 306.001 42.9928 303.613Z" fill="#E0E0E0"/>
<path opacity="0.1" d="M46.3793 308.012C45.309 308.541 44.027 307.024 44.568 304.766C45.0502 302.978 46.391 301.579 47.4731 301.59C47.6626 301.595 47.8492 301.637 48.0219 301.715C48.1946 301.794 48.3498 301.906 48.4783 302.045C48.6067 302.184 48.7057 302.348 48.7694 302.527C48.8331 302.705 48.8603 302.895 48.8492 303.084C48.5434 302.367 47.7554 302.131 46.8615 302.802C46.3024 303.249 45.8597 303.825 45.5709 304.48C45.2822 305.136 45.156 305.851 45.2031 306.565C45.2855 307.436 45.7794 308.012 46.3793 308.012Z" fill="black"/>
<path d="M11.0952 278.926C9.64852 280.996 7.21392 281.796 5.66141 280.714C4.10891 279.632 4.00307 277.068 5.44972 274.998C6.89637 272.928 9.31921 272.14 10.8835 273.222C12.4477 274.304 12.5653 276.856 11.0952 278.926Z" fill="#E0E0E0"/>
<path opacity="0.1" d="M9.11956 273.799C10.2957 273.575 11.1425 275.422 9.94284 277.421C8.9784 278.997 7.30832 279.962 6.26155 279.644C5.90175 279.523 5.60442 279.265 5.43469 278.925C5.26496 278.586 5.23663 278.193 5.3559 277.833C5.46176 278.597 6.15569 279.009 7.20245 278.656C7.86219 278.381 8.44596 277.95 8.90449 277.402C9.36302 276.853 9.68283 276.202 9.83699 275.504C9.98989 274.622 9.67235 273.963 9.11956 273.799Z" fill="black"/>
<path d="M21.6814 304.049C23.7631 304.473 25.2098 306.084 24.857 307.648C24.5041 309.212 22.5988 310.13 20.517 309.706C18.4352 309.283 16.9886 307.66 17.3532 306.107C17.7178 304.555 19.5996 303.626 21.6814 304.049Z" fill="#E0E0E0"/>
<path opacity="0.1" d="M18.3757 307.295C17.823 306.46 18.952 305.19 20.8927 305.472C22.4334 305.684 23.7389 306.648 23.833 307.566C23.8509 307.725 23.836 307.886 23.7894 308.039C23.7427 308.193 23.6653 308.335 23.5618 308.457C23.4583 308.579 23.3308 308.679 23.1874 308.75C23.0439 308.822 22.8874 308.863 22.7275 308.871C23.292 308.53 23.4096 307.848 22.7275 307.178C22.298 306.757 21.7732 306.446 21.1977 306.272C20.6222 306.098 20.0132 306.066 19.4225 306.178C18.7168 306.354 18.3169 306.837 18.3757 307.295Z" fill="black"/>
<path d="M33.1833 288.935C31.7366 286.877 31.819 284.313 33.3715 283.219C34.924 282.126 37.3586 282.925 38.8052 284.984C40.2519 287.042 40.1695 289.606 38.617 290.7C37.0645 291.793 34.6182 290.994 33.1833 288.935Z" fill="#E0E0E0"/>
<path opacity="0.1" d="M38.6997 288.817C38.488 289.994 36.4768 290.158 35.0066 288.335C33.8305 286.9 33.5247 284.995 34.1716 284.125C34.2884 283.975 34.434 283.851 34.5996 283.759C34.7652 283.666 34.9476 283.608 35.1361 283.587C35.3245 283.566 35.5152 283.583 35.697 283.637C35.8788 283.691 36.0479 283.781 36.1946 283.901C35.4301 283.725 34.7832 284.23 34.7949 285.336C34.8287 286.045 35.0322 286.736 35.3884 287.35C35.7445 287.964 36.2428 288.483 36.8414 288.864C37.6177 289.347 38.3469 289.276 38.6997 288.817Z" fill="black"/>
<path d="M21.6097 315.069C24.0444 315.704 25.6321 317.715 25.1382 319.55C24.6442 321.385 22.2919 322.349 19.8455 321.714C17.3992 321.079 15.8231 319.056 16.3171 317.221C16.8111 315.387 19.1751 314.434 21.6097 315.069Z" fill="#E0E0E0"/>
<path opacity="0.1" d="M17.4812 318.727C16.8696 317.692 18.3045 316.257 20.5979 316.704C22.4092 317.069 23.8911 318.315 23.9617 319.397C23.968 319.586 23.9366 319.774 23.8694 319.951C23.8021 320.128 23.7004 320.289 23.5701 320.426C23.4398 320.563 23.2836 320.672 23.1105 320.748C22.9374 320.824 22.751 320.865 22.5621 320.868C23.2443 320.503 23.4324 319.691 22.7032 318.856C22.22 318.33 21.617 317.928 20.9455 317.685C20.274 317.441 19.5537 317.363 18.8455 317.457C17.9516 317.621 17.4459 318.151 17.4812 318.727Z" fill="black"/>
<path d="M20.6808 284.677C18.4579 284.901 16.5172 283.736 16.3526 282.066C16.1879 280.396 17.8463 278.855 20.0692 278.632C22.2921 278.408 24.2209 279.573 24.3856 281.243C24.5503 282.913 22.8566 284.489 20.6808 284.677Z" fill="#E0E0E0"/>
<path opacity="0.1" d="M22.963 280.373C23.7863 281.043 23.0453 282.666 21.0106 283.007C19.3993 283.278 17.7762 282.702 17.3881 281.831C17.325 281.676 17.2931 281.51 17.2945 281.342C17.2958 281.175 17.3303 281.009 17.3959 280.855C17.4615 280.701 17.5569 280.561 17.6767 280.444C17.7964 280.327 17.9382 280.235 18.0938 280.173C17.6351 280.69 17.7292 281.349 18.5995 281.878C19.1602 282.172 19.7837 282.325 20.4166 282.325C21.0496 282.325 21.6731 282.172 22.2338 281.878C22.9159 281.431 23.1747 280.843 22.963 280.373Z" fill="black"/>
<path d="M6.39131 292.804C6.72063 296.333 4.86233 299.308 2.23954 299.555C-0.383247 299.802 -2.75905 297.203 -3.08836 293.675C-3.41768 290.146 -1.54761 287.182 1.07518 286.935C3.69796 286.688 6.08551 289.323 6.39131 292.804Z" fill="#E0E0E0"/>
<path opacity="0.1" d="M-0.313116 289.194C0.745408 287.924 3.28587 289.1 3.80337 292.299C4.20325 294.828 3.27411 297.345 1.89803 297.956C1.65118 298.052 1.38769 298.098 1.12303 298.09C0.858369 298.083 0.59786 298.022 0.356825 297.913C0.115789 297.803 -0.100922 297.647 -0.280597 297.452C-0.460273 297.258 -0.599266 297.029 -0.689453 296.78C0.110321 297.51 1.23941 297.368 1.99214 296.016C2.45269 295.138 2.69327 294.161 2.69327 293.17C2.69327 292.178 2.45269 291.201 1.99214 290.323C1.35703 289.253 0.427851 288.841 -0.313116 289.194Z" fill="black"/>
<path d="M46.8261 288.864C46.2616 287.065 46.8967 285.265 48.2493 284.842C49.6018 284.419 51.1661 285.536 51.7777 287.335C52.3893 289.135 51.6953 290.934 50.3428 291.358C48.9902 291.781 47.3789 290.664 46.8261 288.864Z" fill="#E0E0E0"/>
<path opacity="0.1" d="M50.7781 290.029C50.3665 290.829 48.8846 290.488 48.2612 288.853C48.0073 288.341 47.9065 287.767 47.9712 287.199C48.0359 286.632 48.2632 286.095 48.6258 285.654C48.7422 285.573 48.8736 285.517 49.0122 285.489C49.1508 285.461 49.2936 285.461 49.4321 285.49C49.5706 285.518 49.7019 285.575 49.818 285.655C49.9341 285.736 50.0327 285.84 50.1078 285.959C49.6138 285.665 49.0257 285.865 48.7905 286.665C48.6498 287.18 48.6352 287.722 48.7478 288.244C48.8603 288.766 49.0969 289.253 49.4374 289.664C49.9078 290.17 50.4253 290.288 50.7781 290.029Z" fill="black"/>
<path d="M36.0059 276.773C33.8653 275.374 32.9832 272.916 34.0417 271.304C35.1003 269.693 37.6995 269.528 39.8401 270.928C41.9807 272.328 42.8627 274.786 41.8042 276.397C40.7457 278.008 38.1464 278.185 36.0059 276.773Z" fill="#E0E0E0"/>
<path opacity="0.1" d="M41.1812 274.587C41.4282 275.763 39.5817 276.704 37.5117 275.528C35.8768 274.599 34.8536 272.917 35.1594 271.858C35.2145 271.674 35.3055 271.503 35.4271 271.354C35.5487 271.205 35.6986 271.082 35.868 270.991C36.0374 270.9 36.2231 270.844 36.4143 270.825C36.6056 270.807 36.7986 270.826 36.9824 270.882C36.2062 271.011 35.8063 271.729 36.2062 272.776C36.5015 273.439 36.9532 274.021 37.5226 274.472C38.0921 274.922 38.7623 275.228 39.4758 275.363C40.3579 275.504 41.0165 275.151 41.1812 274.587Z" fill="black"/>
<path d="M22.7159 271.34C21.1046 271.669 19.5992 270.952 19.3522 269.74C19.1052 268.529 20.199 267.282 21.8221 266.953C23.4451 266.624 24.9389 267.329 25.1858 268.541C25.4328 269.752 24.3273 271.011 22.7159 271.34Z" fill="#E0E0E0"/>
<path opacity="0.1" d="M24.0333 268.023C24.6802 268.447 24.2568 269.694 22.7866 270.105C22.3207 270.281 21.814 270.318 21.3276 270.211C20.8413 270.105 20.3961 269.859 20.0462 269.505C19.9869 269.397 19.95 269.277 19.9374 269.154C19.9249 269.031 19.937 268.907 19.9732 268.789C20.0093 268.67 20.0687 268.56 20.1479 268.465C20.2271 268.37 20.3245 268.292 20.4343 268.235C20.1403 268.647 20.2697 269.164 20.9401 269.411C21.3752 269.577 21.8438 269.636 22.3064 269.583C22.769 269.529 23.212 269.366 23.5982 269.105C24.1157 268.788 24.2686 268.341 24.0333 268.023Z" fill="black"/>
<path d="M8.17801 309.836C9.35414 311.012 9.56588 312.647 8.68377 313.529C7.80167 314.411 6.15507 314.164 5.00245 312.999C3.84984 311.835 3.61461 310.177 4.48495 309.306C5.35529 308.436 7.01363 308.671 8.17801 309.836Z" fill="#E0E0E0"/>
<path opacity="0.1" d="M4.65039 310.529C4.65039 309.741 5.92064 309.412 7.0615 310.424C7.46508 310.714 7.77554 311.115 7.95512 311.579C8.1347 312.042 8.17564 312.548 8.07296 313.035C8.01502 313.143 7.93602 313.24 7.84052 313.318C7.74501 313.396 7.63495 313.454 7.51673 313.489C7.3985 313.524 7.27445 313.535 7.15187 313.522C7.02929 313.508 6.91062 313.471 6.80274 313.411C7.30848 313.411 7.67309 313.035 7.54372 312.317C7.44109 311.863 7.23188 311.439 6.93332 311.081C6.63476 310.723 6.25539 310.441 5.82653 310.259C5.27374 310.059 4.81505 310.188 4.65039 310.529Z" fill="black"/>
<path d="M32.537 302.19C32.7536 301.53 33.2173 300.978 33.8311 300.652C34.4449 300.325 35.1612 300.248 35.8302 300.438C37.0063 300.967 37.2886 302.602 36.5946 304.084C35.9007 305.566 34.4306 306.366 33.3015 305.836C32.1724 305.307 31.8431 303.684 32.537 302.19Z" fill="#E0E0E0"/>
<path opacity="0.1" d="M34.3944 305.271C33.6652 305.53 32.9124 304.448 33.4652 303.037C33.9121 301.861 34.8766 301.108 35.5823 301.19C35.7049 301.207 35.8228 301.249 35.9292 301.312C36.0355 301.376 36.1282 301.46 36.2016 301.559C36.275 301.659 36.3277 301.773 36.3567 301.893C36.3857 302.013 36.3903 302.138 36.3703 302.26C36.2174 301.766 35.7234 301.567 35.0883 301.931C34.6892 302.183 34.3582 302.53 34.1244 302.94C33.8906 303.35 33.7612 303.812 33.7475 304.283C33.7475 304.836 34.018 305.224 34.3944 305.271Z" fill="black"/>
<path d="M14.1767 294.922C14.4001 296.545 13.5886 298.003 12.3654 298.18C11.1422 298.356 9.95433 297.157 9.73086 295.534C9.50739 293.91 10.3189 292.44 11.5421 292.276C12.7653 292.111 13.9532 293.287 14.1767 294.922Z" fill="#E0E0E0"/>
<path opacity="0.1" d="M10.9429 293.346C11.4134 292.723 12.6366 293.229 12.9306 294.722C13.078 295.197 13.0842 295.704 12.9485 296.182C12.8127 296.661 12.5409 297.089 12.1661 297.416C12.0534 297.467 11.9317 297.495 11.808 297.499C11.6843 297.503 11.561 297.483 11.4452 297.439C11.3293 297.395 11.2233 297.329 11.1331 297.244C11.0429 297.16 10.9703 297.058 10.9194 296.945C11.3193 297.263 11.8486 297.169 12.1661 296.522C12.3636 296.1 12.456 295.637 12.4355 295.172C12.4151 294.707 12.2823 294.254 12.0485 293.852C11.731 293.358 11.284 293.181 10.9429 293.346Z" fill="black"/>
<path d="M34.7478 316.246C36.2298 315.528 37.8646 315.858 38.4056 316.975C38.9467 318.092 38.1822 319.562 36.7002 320.28C35.2183 320.997 33.5835 320.668 33.0424 319.562C32.5014 318.457 33.2659 316.916 34.7478 316.246Z" fill="#E0E0E0"/>
<path opacity="0.1" d="M34.2416 319.773C33.5124 319.514 33.6065 318.197 34.9355 317.421C35.3457 317.136 35.8297 316.977 36.3288 316.962C36.8278 316.947 37.3204 317.078 37.7465 317.338C37.8288 317.429 37.8923 317.536 37.9334 317.651C37.9744 317.767 37.9921 317.889 37.9856 318.012C37.979 318.134 37.9483 318.254 37.8951 318.365C37.842 318.475 37.7675 318.574 37.676 318.656C37.8641 318.185 37.6054 317.715 36.8879 317.597C36.4255 317.541 35.9562 317.597 35.52 317.761C35.0839 317.924 34.6937 318.191 34.3828 318.538C34.0182 319.008 33.9829 319.491 34.2416 319.773Z" fill="black"/>
<path d="M23.5859 289.806C24.5043 289.652 25.4476 289.783 26.2892 290.181C27.1309 290.58 27.8306 291.226 28.2945 292.033C28.7584 292.84 28.9643 293.77 28.8844 294.698C28.8046 295.625 28.4429 296.506 27.848 297.223C27.253 297.939 26.4531 298.456 25.5558 298.704C24.6585 298.953 23.7067 298.921 22.828 298.613C21.9494 298.305 21.186 297.736 20.6403 296.981C20.0946 296.227 19.7927 295.323 19.7752 294.392C19.677 293.28 20.0223 292.173 20.7361 291.314C21.4498 290.455 22.4741 289.913 23.5859 289.806Z" fill="#E0E0E0"/>
<path opacity="0.1" d="M22.5039 297.251C23.68 297.968 25.5736 297.25 26.197 295.18C26.8203 293.11 25.0208 290.335 23.1743 290.935C23.8477 291.255 24.3975 291.788 24.7395 292.45C25.0815 293.113 25.1968 293.87 25.0679 294.604C24.9032 296.333 23.7271 297.427 22.5039 297.251Z" fill="black"/>
<path d="M183.91 184.299C179.819 181.811 175.189 180.342 170.411 180.019C172.578 181.171 173.292 185.342 171.371 192.86C169.807 198.978 168.106 204.823 166.789 209.02C166.597 209.652 166.432 210.228 166.24 210.776L169.78 211.901C169.972 211.353 170.136 210.776 170.356 210.145C171.7 205.975 173.648 200.186 175.843 194.259C178.642 187.016 181.386 183.998 183.91 184.299Z" fill="#64CF83"/>
<path opacity="0.2" d="M170.411 209.679C169.858 209.396 169.279 209.167 168.682 208.993C168.087 208.814 167.483 208.668 166.872 208.554L166.158 210.776L169.698 211.901L170.411 209.679Z" fill="black"/>
<path opacity="0.3" d="M171.261 216.705C171.646 215.497 169.917 213.961 167.393 213.083C164.868 212.205 162.536 212.644 162.152 213.824C161.933 214.564 162.509 215.47 163.579 216.238C162.619 215.086 163.222 213.878 164.923 213.769C166.732 213.806 168.489 214.378 169.972 215.415C170.795 216.128 171.179 216.814 170.603 217.445C170.904 217.285 171.137 217.022 171.261 216.705Z" fill="black"/>
<path d="M159.767 174.177C156.795 170.749 153.381 167.732 149.615 165.205C151.179 166.906 151.261 169.595 148.874 172.86C146.953 175.603 144.923 178.018 143.386 179.746L142.755 180.46L145.499 182.792L146.158 182.079C147.667 180.377 149.889 178.073 152.304 175.823C155.212 173.079 157.873 172.805 159.767 174.177Z" fill="#64CF83"/>
<path opacity="0.2" d="M146.457 181.667C146.073 181.256 145.661 180.844 145.195 180.432C144.756 180.033 144.288 179.666 143.795 179.335L142.808 180.46L145.551 182.792L146.457 181.667Z" fill="black"/>
<path d="M146.952 187.264C146.734 187.503 146.473 187.698 146.184 187.84H145.964H145.635H145.196C143.523 187.605 141.967 186.846 140.751 185.673C139.431 184.607 138.473 183.16 138.007 181.53C138.019 181.439 138.019 181.346 138.007 181.255V181.091C137.994 180.981 137.994 180.871 138.007 180.761C138.019 180.689 138.019 180.615 138.007 180.542C138.113 180.234 138.271 179.947 138.474 179.691C138.692 179.461 138.953 179.274 139.242 179.143C140.394 178.512 142.726 179.307 144.729 181.118C146.732 182.929 147.857 185.124 147.473 186.359C147.366 186.694 147.188 187.003 146.952 187.264Z" fill="#64CF83"/>
<path opacity="0.3" d="M144.757 186.361C145.361 185.702 144.757 184.138 143.276 182.904C141.794 181.669 140.23 181.203 139.654 181.861C139.078 182.52 139.38 183.041 139.874 183.837C139.572 182.821 140.34 182.218 141.465 182.629C142.606 183.199 143.558 184.085 144.209 185.181C144.538 185.867 144.593 186.416 144.017 186.663C144.155 186.67 144.293 186.647 144.421 186.595C144.549 186.543 144.664 186.463 144.757 186.361Z" fill="black"/>
<path d="M142.314 155.491C141.388 150.793 139.356 146.382 136.388 142.623C136.991 145.01 134.385 148.33 127.553 151.897C122.065 154.806 116.578 157.385 112.572 159.278L110.898 160.046L112.462 163.421L114.136 162.653C118.114 160.869 123.684 158.482 129.528 156.177C136.69 153.269 140.887 153.598 142.314 155.491Z" fill="#64CF83"/>
<path opacity="0.2" d="M114.575 162.379C114.399 161.778 114.179 161.191 113.917 160.623C113.674 160.049 113.38 159.498 113.039 158.976L110.898 159.964L112.462 163.339L114.575 162.379Z" fill="black"/>
<path d="M112.162 170.94C111.71 171.131 111.225 171.234 110.735 171.242H110.268H109.747H109.528C109.391 171.211 109.26 171.155 109.144 171.077C107.037 169.615 105.363 167.613 104.296 165.282C103.229 162.95 102.809 160.375 103.08 157.825C103.08 157.825 103.08 157.55 103.08 157.441V157.194L103.327 156.727L103.519 156.48C103.838 156.093 104.242 155.783 104.699 155.575C105.14 155.381 105.616 155.278 106.098 155.273C108.101 155.273 110.845 157.688 112.601 161.474C114.357 165.26 114.439 169.019 113.012 170.446C112.754 170.651 112.468 170.818 112.162 170.94Z" fill="#64CF83"/>
<path opacity="0.3" d="M109.665 168.306C110.9 167.757 110.955 165.15 109.665 162.544C108.376 159.937 106.482 158.264 105.248 158.84C104.479 159.169 104.15 160.294 104.315 161.584C104.562 159.992 105.989 159.608 107.306 160.87C108.595 162.376 109.415 164.226 109.665 166.193C109.665 167.373 109.418 168.196 108.485 168.196C108.661 168.301 108.859 168.366 109.063 168.385C109.267 168.404 109.473 168.377 109.665 168.306Z" fill="black"/>
<path d="M133.946 131.374C134.701 126.414 134.646 121.363 133.782 116.421C133.507 118.972 130.901 121.03 125.55 121.524C121.133 121.908 116.88 122.1 113.835 122.155H112.518V126.051H113.807C116.853 126.051 121.133 126.051 125.55 126.463C130.955 126.847 133.59 128.905 133.946 131.374Z" fill="#64CF83"/>
<path opacity="0.2" d="M114.3 126.161C114.3 125.53 114.3 124.899 114.3 124.213C114.298 123.552 114.252 122.892 114.163 122.237H112.38V126.133L114.3 126.161Z" fill="black"/>
<path d="M109.72 130.578C109.362 130.574 109.008 130.499 108.678 130.359H108.458L108.157 130.139H108.019L107.8 129.92C106.725 128.298 106.197 126.375 106.291 124.432C106.159 122.497 106.659 120.571 107.717 118.945L107.91 118.725H108.047L108.349 118.506H108.568C108.894 118.35 109.249 118.266 109.611 118.259C109.969 118.263 110.323 118.338 110.653 118.478C112.025 118.972 113.123 121.496 113.15 124.569C113.178 127.642 112.135 130.057 110.763 130.688C110.412 130.737 110.054 130.7 109.72 130.578Z" fill="#64CF83"/>
<path opacity="0.3" d="M108.815 128.083C109.83 128.083 110.626 126.355 110.599 124.242C110.571 122.13 109.748 120.428 108.76 120.428C107.773 120.428 107.581 121.087 107.279 122.102C107.91 121.087 108.98 121.252 109.474 122.514C109.888 123.901 109.888 125.379 109.474 126.767C109.145 127.59 108.706 128.029 108.074 127.754C108.272 127.952 108.536 128.07 108.815 128.083Z" fill="black"/>
<path d="M231.734 72.302C221.654 65.1179 209.669 61.0846 197.296 60.7121C184.923 60.3395 172.717 63.6445 162.223 70.209C151.728 76.7736 143.416 86.3028 138.337 97.5916C133.259 108.88 131.642 121.422 133.691 133.63C135.741 145.837 141.364 157.163 149.851 166.175C158.337 175.186 169.305 181.479 181.368 184.257C193.431 187.035 206.047 186.173 217.62 181.78C229.193 177.388 239.204 169.662 246.386 159.58C256.015 146.063 259.881 129.274 257.133 112.907C254.386 96.5397 245.25 81.9339 231.734 72.302Z" fill="#64CF83"/>
<path d="M231.734 72.302C221.654 65.1179 209.669 61.0846 197.296 60.7121C184.923 60.3395 172.717 63.6445 162.223 70.209C151.728 76.7736 143.416 86.3028 138.337 97.5916C133.259 108.88 131.642 121.422 133.691 133.63C135.741 145.837 141.364 157.163 149.851 166.175C158.337 175.186 169.305 181.479 181.368 184.257C193.431 187.035 206.047 186.173 217.62 181.78C229.193 177.388 239.204 169.662 246.386 159.58C256.015 146.063 259.881 129.274 257.133 112.907C254.386 96.5397 245.25 81.9339 231.734 72.302Z" fill="#64CF83"/>
<path opacity="0.4" d="M231.734 72.302C221.654 65.1179 209.669 61.0846 197.296 60.7121C184.923 60.3395 172.717 63.6445 162.223 70.209C151.728 76.7736 143.416 86.3028 138.337 97.5916C133.259 108.88 131.642 121.422 133.691 133.63C135.741 145.837 141.364 157.163 149.851 166.175C158.337 175.186 169.305 181.479 181.368 184.257C193.431 187.035 206.047 186.173 217.62 181.78C229.193 177.388 239.204 169.662 246.386 159.58C256.015 146.063 259.881 129.274 257.133 112.907C254.386 96.5397 245.25 81.9339 231.734 72.302Z" fill="white"/>
<path opacity="0.1" d="M212.418 63.0557C194.419 58.5286 148.846 71.2869 140.834 115.955C132.822 160.623 176.503 183.561 192.197 185.811C183.409 185.344 174.819 183.03 166.987 179.019C159.154 175.009 152.255 169.391 146.741 162.533C141.226 155.676 137.22 147.732 134.983 139.222C132.746 130.711 132.33 121.824 133.76 113.141C135.19 104.459 138.436 96.175 143.284 88.8314C148.132 81.4878 154.475 75.2492 161.898 70.5228C169.32 65.7963 177.656 62.6884 186.362 61.4017C195.067 60.1151 203.946 60.6787 212.418 63.0557Z" fill="black"/>
<path d="M160.093 135.874C159.27 131.21 155.758 127.945 152.274 128.576C148.789 129.207 146.622 133.46 147.417 138.097C148.213 142.733 151.753 145.999 155.237 145.395C158.722 144.791 160.917 140.511 160.093 135.874Z" fill="#64CF83"/>
<path opacity="0.1" d="M160.093 135.874C159.27 131.21 155.758 127.945 152.274 128.576C148.789 129.207 146.622 133.46 147.417 138.097C148.213 142.733 151.753 145.999 155.237 145.395C158.722 144.791 160.917 140.511 160.093 135.874Z" fill="black"/>
<path opacity="0.25" d="M152.659 143.008C154.47 144.298 157.351 141.856 156.885 137.521C156.501 134.091 154.415 131.155 152.412 130.853C151.706 130.791 151.002 131.005 150.45 131.45C149.897 131.895 149.539 132.537 149.449 133.24C150.217 132.006 151.754 131.786 153.208 133.24C154.119 134.22 154.777 135.406 155.126 136.697C155.475 137.988 155.504 139.344 155.211 140.649C154.772 142.295 153.702 143.145 152.659 143.008Z" fill="black"/>
<path d="M182.319 111.454C185.557 108.025 186.133 103.223 183.554 100.836C180.975 98.449 176.256 99.1624 173.018 102.592C169.781 106.022 169.204 110.823 171.756 113.183C174.308 115.542 179.054 114.857 182.319 111.454Z" fill="#64CF83"/>
<path opacity="0.1" d="M182.319 111.454C185.557 108.025 186.133 103.223 183.554 100.836C180.975 98.449 176.256 99.1624 173.018 102.592C169.781 106.022 169.204 110.823 171.756 113.183C174.308 115.542 179.054 114.857 182.319 111.454Z" fill="black"/>
<path opacity="0.25" d="M172.139 109.7C172.139 111.922 175.871 112.8 179.081 109.7C181.632 107.367 182.757 103.938 181.825 102.127C181.454 101.523 180.865 101.086 180.179 100.907C179.494 100.728 178.766 100.821 178.148 101.166C179.602 101.166 180.672 102.154 180.343 104.212C180.095 105.526 179.531 106.76 178.699 107.807C177.867 108.854 176.793 109.682 175.569 110.221C173.977 110.989 172.66 110.632 172.139 109.7Z" fill="black"/>
<path d="M157.103 107.531C157.264 106.617 157.167 105.676 156.823 104.814C156.479 103.952 155.901 103.202 155.155 102.65C154.409 102.098 153.523 101.765 152.598 101.688C151.673 101.611 150.745 101.794 149.918 102.216C149.09 102.637 148.397 103.281 147.916 104.075C147.434 104.868 147.183 105.781 147.192 106.709C147.2 107.637 147.467 108.545 147.962 109.33C148.458 110.115 149.162 110.746 149.997 111.153C151.419 111.583 152.953 111.446 154.278 110.771C155.602 110.096 156.614 108.935 157.103 107.531Z" fill="#64CF83"/>
<path opacity="0.1" d="M157.103 107.531C157.264 106.617 157.167 105.676 156.823 104.814C156.479 103.952 155.901 103.202 155.155 102.65C154.409 102.098 153.523 101.765 152.598 101.688C151.673 101.611 150.745 101.794 149.918 102.216C149.09 102.637 148.397 103.281 147.916 104.075C147.434 104.868 147.183 105.781 147.192 106.709C147.2 107.637 147.467 108.545 147.962 109.33C148.458 110.115 149.162 110.746 149.997 111.153C151.419 111.583 152.953 111.446 154.278 110.771C155.602 110.096 156.614 108.935 157.103 107.531Z" fill="black"/>
<path d="M179.795 136.149C178.945 133.186 176.42 131.32 174.308 131.979C173.082 131.959 171.882 132.327 170.879 133.031C169.875 133.734 169.119 134.736 168.719 135.894C168.318 137.053 168.294 138.308 168.649 139.481C169.004 140.653 169.721 141.684 170.697 142.426C171.672 143.167 172.857 143.582 174.082 143.61C175.308 143.638 176.51 143.278 177.519 142.583C178.528 141.887 179.291 140.89 179.7 139.735C180.108 138.579 180.142 137.325 179.795 136.149Z" fill="#64CF83"/>
<path opacity="0.1" d="M179.795 136.149C178.945 133.186 176.42 131.32 174.308 131.979C173.082 131.959 171.882 132.327 170.879 133.031C169.875 133.734 169.119 134.736 168.719 135.894C168.318 137.053 168.294 138.308 168.649 139.481C169.004 140.653 169.721 141.684 170.697 142.426C171.672 143.167 172.857 143.582 174.082 143.61C175.308 143.638 176.51 143.278 177.519 142.583C178.528 141.887 179.291 140.89 179.7 139.735C180.108 138.579 180.142 137.325 179.795 136.149Z" fill="black"/>
<path d="M171.81 161.42C171.04 161.169 170.216 161.138 169.429 161.329C168.642 161.521 167.924 161.927 167.355 162.504C166.786 163.08 166.389 163.804 166.208 164.593C166.027 165.383 166.069 166.207 166.33 166.973C166.591 167.74 167.06 168.419 167.685 168.934C168.31 169.449 169.066 169.78 169.868 169.89C170.671 170 171.488 169.885 172.228 169.556C172.968 169.228 173.603 168.7 174.06 168.032C174.61 166.852 174.683 165.506 174.263 164.274C173.844 163.042 172.965 162.019 171.81 161.42Z" fill="#64CF83"/>
<path opacity="0.1" d="M171.81 161.42C171.04 161.169 170.216 161.138 169.429 161.329C168.642 161.521 167.924 161.927 167.355 162.504C166.786 163.08 166.389 163.804 166.208 164.593C166.027 165.383 166.069 166.207 166.33 166.973C166.591 167.74 167.06 168.419 167.685 168.934C168.31 169.449 169.066 169.78 169.868 169.89C170.671 170 171.488 169.885 172.228 169.556C172.968 169.228 173.603 168.7 174.06 168.032C174.61 166.852 174.683 165.506 174.263 164.274C173.844 163.042 172.965 162.019 171.81 161.42Z" fill="black"/>
<path opacity="0.25" d="M171.756 168.14C173.182 167.893 173.374 165.396 171.125 163.668C170.449 163.028 169.602 162.596 168.687 162.426C167.772 162.256 166.827 162.353 165.966 162.708C165.606 163.002 165.378 163.428 165.332 163.891C165.286 164.354 165.425 164.817 165.719 165.177C165.5 164.244 166.104 163.448 167.448 163.448C168.321 163.476 169.175 163.713 169.939 164.137C170.702 164.562 171.353 165.163 171.838 165.89C172.387 166.823 172.304 167.729 171.756 168.14Z" fill="black"/>
<path d="M199.797 115.734C198.14 115.198 196.359 115.182 194.692 115.687C193.026 116.193 191.554 117.196 190.474 118.562C189.395 119.929 188.759 121.593 188.652 123.331C188.546 125.069 188.974 126.798 189.878 128.286C190.783 129.774 192.121 130.95 193.714 131.655C195.306 132.36 197.076 132.561 198.786 132.231C200.496 131.901 202.064 131.056 203.279 129.809C204.495 128.562 205.3 126.973 205.586 125.255C206.067 123.226 205.729 121.088 204.646 119.306C203.562 117.524 201.82 116.241 199.797 115.734Z" fill="#64CF83"/>
<path opacity="0.1" d="M199.797 115.734C198.14 115.198 196.359 115.182 194.692 115.687C193.026 116.193 191.554 117.196 190.474 118.562C189.395 119.929 188.759 121.593 188.652 123.331C188.546 125.069 188.974 126.798 189.878 128.286C190.783 129.774 192.121 130.95 193.714 131.655C195.306 132.36 197.076 132.561 198.786 132.231C200.496 131.901 202.064 131.056 203.279 129.809C204.495 128.562 205.3 126.973 205.586 125.255C206.067 123.226 205.729 121.088 204.646 119.306C203.562 117.524 201.82 116.241 199.797 115.734Z" fill="black"/>
<path opacity="0.25" d="M199.741 129.81C197.271 130.77 194.061 128.905 193.458 124.954C192.854 121.003 196.915 116.311 200.235 117.93C199.003 118.488 197.94 119.36 197.151 120.458C196.361 121.555 195.873 122.84 195.735 124.185C195.621 124.819 195.635 125.468 195.776 126.096C195.917 126.723 196.181 127.317 196.554 127.841C196.928 128.365 197.402 128.809 197.949 129.147C198.496 129.485 199.105 129.711 199.741 129.81Z" fill="black"/>
</g>
</svg>
