<svg width="18" height="18" viewBox="0 0 18 18" fill="none" xmlns="http://www.w3.org/2000/svg">
<g clip-path="url(#clip0_116_6224)">
<path fill-rule="evenodd" clip-rule="evenodd" d="M0.5 2.875C0.5 2.34457 0.710714 1.83586 1.08579 1.46079C1.46086 1.08571 1.96957 0.875 2.5 0.875H15.5C16.0304 0.875 16.5391 1.08571 16.9142 1.46079C17.2893 1.83586 17.5 2.34457 17.5 2.875V12.875C17.5 13.4054 17.2893 13.9141 16.9142 14.2892C16.5391 14.6643 16.0304 14.875 15.5 14.875H11.968L9.768 17.515C9.67415 17.6275 9.55671 17.7181 9.424 17.7802C9.29128 17.8423 9.14654 17.8745 9 17.8745C8.85346 17.8745 8.70872 17.8423 8.576 17.7802C8.44329 17.7181 8.32585 17.6275 8.232 17.515L6.032 14.875H2.5C1.96957 14.875 1.46086 14.6643 1.08579 14.2892C0.710714 13.9141 0.5 13.4054 0.5 12.875V2.875ZM15.5 2.875H2.5V12.875H6.5C6.64657 12.8751 6.79134 12.9073 6.92406 12.9695C7.05678 13.0318 7.17419 13.1224 7.268 13.235L9 15.313L10.732 13.235C10.8258 13.1224 10.9432 13.0318 11.0759 12.9695C11.2087 12.9073 11.3534 12.8751 11.5 12.875H15.5V2.875ZM3.5 5.875C3.5 5.60978 3.60536 5.35543 3.79289 5.16789C3.98043 4.98036 4.23478 4.875 4.5 4.875H13.5C13.7652 4.875 14.0196 4.98036 14.2071 5.16789C14.3946 5.35543 14.5 5.60978 14.5 5.875C14.5 6.14022 14.3946 6.39457 14.2071 6.58211C14.0196 6.76964 13.7652 6.875 13.5 6.875H4.5C4.23478 6.875 3.98043 6.76964 3.79289 6.58211C3.60536 6.39457 3.5 6.14022 3.5 5.875ZM4.5 8.875C4.23478 8.875 3.98043 8.98036 3.79289 9.16789C3.60536 9.35543 3.5 9.60978 3.5 9.875C3.5 10.1402 3.60536 10.3946 3.79289 10.5821C3.98043 10.7696 4.23478 10.875 4.5 10.875H13.5C13.7652 10.875 14.0196 10.7696 14.2071 10.5821C14.3946 10.3946 14.5 10.1402 14.5 9.875C14.5 9.60978 14.3946 9.35543 14.2071 9.16789C14.0196 8.98036 13.7652 8.875 13.5 8.875H4.5Z" fill="#777777"/>
</g>
<defs>
<clipPath id="clip0_116_6224">
<rect width="18" height="18" fill="white"/>
</clipPath>
</defs>
</svg>
