<svg width="17" height="18" viewBox="0 0 17 18" fill="none" xmlns="http://www.w3.org/2000/svg">
<path fill-rule="evenodd" clip-rule="evenodd" d="M8.5 0.875C7.30653 0.875 6.16193 1.34911 5.31802 2.19302C4.47411 3.03693 4 4.18153 4 5.375V7.375C4 8.56847 4.47411 9.71307 5.31802 10.557C6.16193 11.4009 7.30653 11.875 8.5 11.875C9.69347 11.875 10.8381 11.4009 11.682 10.557C12.5259 9.71307 13 8.56847 13 7.375V5.375C13 4.18153 12.5259 3.03693 11.682 2.19302C10.8381 1.34911 9.69347 0.875 8.5 0.875ZM6 5.375C6 4.71196 6.26339 4.07607 6.73223 3.60723C7.20107 3.13839 7.83696 2.875 8.5 2.875C9.16304 2.875 9.79893 3.13839 10.2678 3.60723C10.7366 4.07607 11 4.71196 11 5.375V7.375C11 8.03804 10.7366 8.67393 10.2678 9.14277C9.79893 9.61161 9.16304 9.875 8.5 9.875C7.83696 9.875 7.20107 9.61161 6.73223 9.14277C6.26339 8.67393 6 8.03804 6 7.375V5.375ZM3.547 12.25C3.77906 12.1215 3.95058 11.9061 4.02381 11.6511C4.09704 11.3962 4.066 11.1226 3.9375 10.8905C3.809 10.6584 3.59358 10.4869 3.33863 10.4137C3.08367 10.3405 2.81006 10.3715 2.578 10.5C1.79675 10.9326 1.14561 11.5665 0.692254 12.3359C0.238895 13.1052 -0.000136889 13.982 5.8813e-08 14.875V16.875C5.8813e-08 17.1402 0.105357 17.3946 0.292893 17.5821C0.48043 17.7696 0.734784 17.875 1 17.875H16C16.2652 17.875 16.5196 17.7696 16.7071 17.5821C16.8946 17.3946 17 17.1402 17 16.875V14.875C17.0001 13.982 16.7611 13.1052 16.3077 12.3359C15.8544 11.5665 15.2032 10.9326 14.422 10.5C14.3071 10.4364 14.1808 10.396 14.0503 10.3812C13.9198 10.3664 13.7876 10.3774 13.6614 10.4137C13.5351 10.45 13.4173 10.5107 13.3145 10.5925C13.2118 10.6743 13.1261 10.7756 13.0625 10.8905C12.9989 11.0054 12.9585 11.1317 12.9437 11.2622C12.9289 11.3927 12.9399 11.5249 12.9762 11.6511C13.0125 11.7774 13.0732 11.8952 13.155 11.998C13.2368 12.1007 13.3381 12.1864 13.453 12.25C13.9218 12.5095 14.3125 12.8899 14.5846 13.3515C14.8566 13.8131 15.0001 14.3392 15 14.875V15.875H2V14.875C1.99994 14.3392 2.14339 13.8131 2.41544 13.3515C2.68749 12.8899 3.07821 12.5095 3.547 12.25Z" fill="#777777"/>
</svg>
