<svg width="31" height="32" viewBox="0 0 31 32" fill="none" xmlns="http://www.w3.org/2000/svg">
<path d="M17.8106 6.18925C19.8177 6.56543 21.6682 7.52833 23.1281 8.95618C24.588 10.384 25.5917 12.2127 26.0123 14.211C26.4329 16.2093 26.2515 18.2874 25.491 20.1826C24.7306 22.0778 23.4252 23.7049 21.74 24.8582C20.0549 26.0116 18.0655 26.6393 16.0236 26.662C13.9817 26.6848 11.9788 26.1015 10.2684 24.986C8.55792 23.8705 7.21665 22.2729 6.41417 20.3951C5.61169 18.5173 5.38404 16.4438 5.76001 14.4366C6.26594 11.7458 7.81925 9.36578 10.0787 7.8194C12.3382 6.27301 15.1192 5.6867 17.8106 6.18925Z" fill="#64CF83"/>
<path d="M6.1613 13.3025C6.21156 14.0962 6.06392 14.89 5.73167 15.6126C5.73167 15.2041 5.17528 14.7745 3.91458 14.4716C2.8863 14.2181 1.88619 14.0138 1.1678 13.873L0.85791 13.8166L0.970601 13.2109L1.2805 13.2673C1.9848 13.4011 3.00604 13.5701 4.05545 13.711C5.36545 13.88 6.02044 13.6828 6.1613 13.3025Z" fill="#64CF83"/>
<path opacity="0.2" d="M1.35091 13.2814C1.34925 13.3856 1.33747 13.4894 1.3157 13.5913C1.30158 13.6926 1.27558 13.7918 1.23824 13.8871L0.85791 13.8166L0.970601 13.2109L1.35091 13.2814Z" fill="black"/>
<path d="M0.759305 12.4224C0.701453 12.4084 0.641082 12.4084 0.58323 12.4224H0.533945H0.477589H0.435333C0.215968 12.6456 0.0771985 12.9356 0.040925 13.2464C-0.0318059 13.5492 -0.00715461 13.8671 0.11136 14.155V14.1972L0.153616 14.2465H0.188822C0.236543 14.2824 0.292044 14.3065 0.35082 14.317C0.409036 14.3275 0.468679 14.3275 0.526895 14.317C0.766358 14.2747 1.01287 13.8944 1.10443 13.4014C1.19599 12.9084 1.10442 12.4576 0.893125 12.3379C0.843086 12.3564 0.797491 12.3852 0.759305 12.4224Z" fill="#64CF83"/>
<path opacity="0.3" d="M0.54075 12.8097C0.702739 12.8097 0.787262 13.1407 0.723875 13.514C0.660488 13.8873 0.470329 14.1056 0.308339 14.0774C0.14635 14.0493 0.139293 13.9366 0.118164 13.7605C0.195637 13.9436 0.371712 13.9507 0.491443 13.7605C0.601246 13.5431 0.642981 13.2977 0.611184 13.0562C0.611184 12.9153 0.526669 12.8238 0.41398 12.8519C0.43113 12.8367 0.451226 12.825 0.473023 12.8178C0.49482 12.8105 0.517856 12.8077 0.54075 12.8097Z" fill="black"/>
<path d="M5.72454 17.5283C6.07391 18.2416 6.26149 19.0232 6.27389 19.8173C6.1119 19.444 5.9147 19.1623 4.78077 19.3595C3.8511 19.5285 3.78066 19.5145 3.14679 19.6553L2.87915 19.7187L2.73828 19.1271L3.00592 19.0637C3.63979 18.9088 3.71023 18.8806 4.59765 18.6059C5.7034 18.2749 5.75271 17.9298 5.72454 17.5283Z" fill="#64CF83"/>
<path opacity="0.2" d="M3.11156 19.0356C3.15044 19.1315 3.18108 19.2304 3.20312 19.3315C3.22927 19.4306 3.24579 19.532 3.25243 19.6343L2.87915 19.7188L2.73828 19.1272L3.11156 19.0356Z" fill="black"/>
<path d="M2.06919 18.3247C1.99978 18.3407 1.9348 18.3719 1.87901 18.4162L1.8438 18.4444L1.80155 18.5078C1.79924 18.5241 1.79924 18.5407 1.80155 18.5571C1.6725 18.9028 1.66014 19.2813 1.76634 19.6347C1.83148 20.0021 2.01441 20.3383 2.28752 20.5925H2.33682C2.36015 20.5963 2.38392 20.5963 2.40724 20.5925H2.44949C2.51883 20.6101 2.59147 20.6101 2.6608 20.5925C2.72803 20.5804 2.79107 20.5513 2.84392 20.508C3.09043 20.346 3.17494 19.8037 3.03408 19.2332C2.89322 18.6627 2.58333 18.212 2.29457 18.1768C2.21062 18.2111 2.13409 18.2613 2.06919 18.3247Z" fill="#64CF83"/>
<path opacity="0.3" d="M2.01984 18.8453C2.21 18.796 2.44242 19.0848 2.53398 19.4862C2.62554 19.8877 2.53397 20.2539 2.36494 20.2962C2.1959 20.3384 2.1114 20.2258 2.00576 20.0497C2.17479 20.2117 2.36494 20.1272 2.40719 19.8666C2.41716 19.5827 2.34635 19.3018 2.20296 19.0566C2.10436 18.9228 1.99871 18.8524 1.89307 18.9369C1.90684 18.9138 1.92519 18.8937 1.94699 18.878C1.9688 18.8623 1.99358 18.8511 2.01984 18.8453Z" fill="black"/>
<path d="M7.20392 21.6978C7.70634 22.1383 8.1158 22.6746 8.40829 23.2754C8.16179 23.0359 7.65469 23.0782 6.91518 23.5782C6.67065 23.7074 6.43532 23.8533 6.21088 24.0149L6.04183 24.1417L5.73193 23.7332L5.89393 23.6064C6.11123 23.441 6.31387 23.2572 6.49962 23.0571C7.18984 22.4725 7.36591 21.9654 7.20392 21.6978Z" fill="#64CF83"/>
<path opacity="0.2" d="M6.00649 23.5366C6.07048 23.5949 6.12939 23.6585 6.18257 23.7268C6.23891 23.8043 6.28115 23.8747 6.32341 23.9451L6.06282 24.1423L5.75293 23.7338L6.00649 23.5366Z" fill="black"/>
<path d="M5.13299 23.4161C5.09441 23.4509 5.06118 23.4913 5.03438 23.5358C5.03021 23.552 5.03021 23.569 5.03438 23.5851V23.6274C5.06603 23.8869 5.16623 24.1333 5.32467 24.3412C5.48312 24.5492 5.69408 24.7112 5.93589 24.8106H6.06971C6.1195 24.8029 6.16599 24.7808 6.20353 24.7472C6.24354 24.7166 6.27704 24.6783 6.30212 24.6345C6.40776 24.4655 6.30213 24.0922 6.05563 23.7542C5.80912 23.4161 5.464 23.2259 5.26679 23.2823C5.21348 23.3172 5.16795 23.3628 5.13299 23.4161Z" fill="#64CF83"/>
<path opacity="0.3" d="M5.24557 23.7692C5.35826 23.6846 5.59772 23.7692 5.7738 24.0438C5.94988 24.3185 6.00623 24.5298 5.89354 24.6143C5.78085 24.6988 5.71043 24.6143 5.5907 24.558C5.74564 24.6143 5.85127 24.5087 5.79493 24.3256C5.72254 24.1372 5.59488 23.9752 5.4287 23.8607C5.32305 23.7973 5.23855 23.7833 5.19629 23.8607C5.2011 23.8252 5.2186 23.7927 5.24557 23.7692Z" fill="black"/>
<path d="M9.97855 24.6914C10.7472 24.8951 11.4553 25.2817 12.0422 25.8183C11.6548 25.6915 11.0773 26.0789 10.4082 27.1705C9.85883 28.058 9.35877 28.9313 8.99958 29.5652L8.85168 29.8328L8.31641 29.537C8.36571 29.4525 8.415 29.368 8.4643 29.2694C8.80237 28.6355 9.26721 27.741 9.71796 26.7973C10.2955 25.6422 10.2955 24.945 9.97855 24.6914Z" fill="#64CF83"/>
<path opacity="0.2" d="M8.50683 29.1987C8.60329 29.2351 8.69737 29.2774 8.78855 29.3255C8.88052 29.3736 8.96779 29.4302 9.04916 29.4945C8.97873 29.6143 8.92237 29.727 8.85899 29.8326L8.32373 29.5368L8.50683 29.1987Z" fill="black"/>
<path d="M7.21089 29.4949C7.17701 29.5609 7.15553 29.6325 7.14751 29.7062V29.7766C7.14354 29.8023 7.14354 29.8284 7.14751 29.8541C7.14751 29.8541 7.14751 29.8541 7.14751 29.8964V29.9527C7.348 30.2844 7.63294 30.557 7.97321 30.7426C8.31348 30.9282 8.6969 31.0202 9.08434 31.0092H9.14772H9.18295H9.25336C9.26491 31.0121 9.27704 31.0121 9.28859 31.0092C9.35201 30.9669 9.40305 30.9086 9.43649 30.8401C9.47132 30.7771 9.49289 30.7076 9.49987 30.6359C9.54213 30.333 9.19 29.8893 8.6336 29.5935C8.0772 29.2977 7.5208 29.2273 7.28838 29.4315C7.26028 29.4497 7.23428 29.471 7.21089 29.4949Z" fill="#64CF83"/>
<path opacity="0.3" d="M7.57736 29.9028C7.67596 29.7196 8.06332 29.7408 8.45069 29.9521C8.83806 30.1633 9.05639 30.4732 8.95779 30.6564C8.85919 30.8395 8.72536 30.8043 8.51407 30.762C8.76058 30.762 8.83102 30.5366 8.65494 30.3183C8.44092 30.1072 8.16865 29.965 7.87316 29.9098C7.69708 29.9098 7.57735 29.9098 7.56326 30.0647C7.55439 30.0382 7.55108 30.0102 7.5535 29.9823C7.55593 29.9544 7.56405 29.9273 7.57736 29.9028Z" fill="black"/>
<path d="M13.9438 26.4027C14.6926 26.3628 15.4433 26.422 16.1765 26.5788C15.7962 26.5788 15.4722 26.8816 15.3454 27.5437C15.2539 28.0789 15.1905 28.6001 15.1552 28.9523C15.1521 29.0062 15.1521 29.0603 15.1552 29.1143L14.5777 29.065C14.5777 29.0157 14.5777 28.9664 14.5777 28.91C14.5777 28.5297 14.627 28.0085 14.62 27.4592C14.5989 26.8182 14.3242 26.4661 13.9438 26.4027Z" fill="#64CF83"/>
<path opacity="0.2" d="M14.5774 28.8397C14.6758 28.8327 14.7747 28.8327 14.8732 28.8397H15.1619V29.0932L14.5844 29.0439C14.5633 29.0087 14.5703 28.9242 14.5774 28.8397Z" fill="black"/>
<path d="M13.8595 29.4169C13.8455 29.47 13.8455 29.5258 13.8595 29.5789C13.8559 29.5951 13.8559 29.612 13.8595 29.6282H13.8948C14.1149 29.7991 14.3839 29.8953 14.6625 29.9029C14.939 29.9384 15.2197 29.8867 15.4654 29.755H15.5006V29.7127C15.5254 29.6666 15.542 29.6166 15.5499 29.5648C15.5572 29.5134 15.5572 29.4613 15.5499 29.4099C15.4865 29.1986 15.1273 29.0155 14.6765 28.9802C14.2258 28.945 13.8455 29.0648 13.7539 29.262C13.7762 29.3214 13.8124 29.3745 13.8595 29.4169Z" fill="#64CF83"/>
<path opacity="0.3" d="M14.2114 29.5791C14.2114 29.4312 14.4861 29.3326 14.796 29.3608C15.1059 29.3889 15.3454 29.5228 15.3383 29.6707C15.3313 29.8186 15.2256 29.8326 15.0777 29.8679C15.2327 29.7904 15.2186 29.6284 15.0355 29.5439C14.8351 29.4698 14.6181 29.4527 14.4086 29.4946C14.2889 29.5368 14.2185 29.5932 14.2537 29.6918C14.2278 29.6598 14.2129 29.6202 14.2114 29.5791Z" fill="black"/>
<path d="M18.1626 26.3394C18.8282 25.9036 19.5894 25.6354 20.3811 25.5576C20.029 25.7548 19.9304 26.445 20.2896 27.6705C20.5783 28.6706 20.8953 29.6214 21.1277 30.2976C21.1629 30.4032 21.1981 30.4948 21.2263 30.5863L20.6488 30.7906C20.6488 30.699 20.5854 30.6004 20.5502 30.5018C20.3037 29.7975 19.9515 28.889 19.5571 27.9311C19.0711 26.7479 18.564 26.269 18.1626 26.3394Z" fill="#64CF83"/>
<path opacity="0.2" d="M20.5215 30.4171C20.6122 30.3681 20.7063 30.3257 20.8032 30.2904C20.9 30.258 20.9988 30.2321 21.099 30.2129C21.1413 30.3467 21.1835 30.4664 21.2258 30.5791L20.6483 30.7834C20.6131 30.6636 20.5708 30.5439 20.5215 30.4171Z" fill="black"/>
<path opacity="0.3" d="M20.3812 31.6848C20.3037 31.4664 20.6066 31.1706 21.0855 30.9804C21.5644 30.7903 21.9518 30.8678 22.0293 31.0861C22.1067 31.3044 21.98 31.3819 21.7898 31.5228C21.9518 31.3115 21.8391 31.1002 21.5362 31.0861C21.2093 31.1032 20.8951 31.2186 20.6347 31.4171C20.4868 31.5509 20.4235 31.6777 20.5291 31.7834C20.4988 31.7786 20.4698 31.7674 20.4443 31.7504C20.4187 31.7333 20.3972 31.7109 20.3812 31.6848Z" fill="black"/>
<path d="M21.9873 24.5714C22.4892 23.9137 23.0931 23.3407 23.7762 22.874C23.5086 23.198 23.5649 23.7474 24.1284 24.4446C24.5862 25.0081 25.051 25.5363 25.3961 25.9096L25.537 26.0645L25.0722 26.5082C25.0266 26.4531 24.9772 26.4013 24.9242 26.3533C24.5721 25.987 24.0791 25.494 23.5156 25.001C22.8677 24.4024 22.3254 24.3178 21.9873 24.5714Z" fill="#64CF83"/>
<path opacity="0.2" d="M24.8677 26.2899C24.9381 26.2124 25.0085 26.135 25.0931 26.0575C25.1702 25.9813 25.2525 25.9107 25.3395 25.8462L25.5368 26.0645L25.0719 26.5082L24.8677 26.2899Z" fill="black"/>
<path opacity="0.3" d="M25.2551 27.1772C25.1424 27.0504 25.2551 26.7617 25.5087 26.5222C25.7622 26.2827 26.058 26.1841 26.1707 26.3109C26.2834 26.4377 26.2271 26.5222 26.1707 26.6771C26.22 26.487 26.0721 26.3743 25.8678 26.4588C25.656 26.5692 25.48 26.7378 25.3608 26.9448C25.3044 27.0786 25.2974 27.1842 25.403 27.2265C25.3491 27.2303 25.2959 27.2125 25.2551 27.1772Z" fill="black"/>
<path d="M24.9873 21.0855C25.1884 20.5178 25.4236 19.9627 25.6916 19.4233C25.6071 19.6558 25.593 20.0079 25.7902 20.1276C25.941 20.2416 26.104 20.3385 26.2762 20.4164H26.3255L26.1846 20.7686H26.1283C25.9536 20.705 25.7712 20.6647 25.586 20.6488C25.453 20.6496 25.3236 20.6922 25.2162 20.7706C25.1088 20.8489 25.0287 20.9591 24.9873 21.0855Z" fill="#64CF83"/>
<path opacity="0.2" d="M26.0366 20.7682L26.1 20.585C26.1253 20.5273 26.1535 20.4709 26.1845 20.416L26.3113 20.4653L26.1704 20.8175L26.0366 20.7682Z" fill="black"/>
<path d="M26.3184 21.5499C26.3649 21.5598 26.4129 21.5598 26.4593 21.5499H26.4945H26.5368C26.7348 21.4111 26.8849 21.2142 26.9664 20.9865C27.072 20.7677 27.1041 20.5207 27.0579 20.2822C27.06 20.2682 27.06 20.254 27.0579 20.2399C27.0281 20.2027 26.9894 20.1736 26.9453 20.1554C26.9033 20.1487 26.8605 20.1487 26.8185 20.1554C26.6283 20.1554 26.3818 20.3949 26.2269 20.7541C26.0719 21.1133 26.079 21.4584 26.2269 21.5922C26.2601 21.585 26.2914 21.5706 26.3184 21.5499Z" fill="#64CF83"/>
<path opacity="0.3" d="M26.544 21.2964C26.4313 21.2471 26.4172 21.0076 26.544 20.7611C26.6708 20.5146 26.8257 20.3526 26.9454 20.4019C27.0652 20.4512 27.0511 20.5357 27.037 20.6695C27.037 20.5216 26.875 20.4864 26.7553 20.6132C26.6403 20.7566 26.5693 20.9303 26.551 21.1133C26.551 21.2259 26.551 21.3034 26.6707 21.2964C26.6513 21.3069 26.6295 21.3123 26.6074 21.3123C26.5852 21.3123 26.5635 21.3069 26.544 21.2964Z" fill="black"/>
<path d="M26.1497 17.0706C25.9515 16.3022 25.9179 15.5006 26.0511 14.7183C26.1285 15.1127 26.2694 15.4226 27.3963 15.4226C28.3119 15.4226 28.3753 15.4719 29.0092 15.4226H29.312V16.0353H29.0444C28.4105 16.0353 28.34 16.0846 27.4315 16.1762C26.3117 16.3311 26.199 16.6692 26.1497 17.0706Z" fill="#64CF83"/>
<path opacity="0.2" d="M28.9176 16.0849C28.9176 15.9863 28.9176 15.8877 28.8824 15.7821C28.8752 15.6789 28.8752 15.5753 28.8824 15.4722H29.2697V16.0849H28.9176Z" fill="black"/>
<path d="M29.8049 16.9789C29.8767 16.9778 29.947 16.9584 30.0092 16.9226H30.0514L30.1078 16.8733L30.143 16.831C30.3213 16.5038 30.4069 16.1341 30.3908 15.7618C30.3747 15.3895 30.2573 15.0287 30.0514 14.7181L30.0092 14.6758C29.9954 14.6561 29.9757 14.6413 29.9528 14.6336H29.9106C29.8436 14.6163 29.7733 14.6163 29.7063 14.6336C29.6355 14.6349 29.5658 14.6518 29.5021 14.6829C29.2344 14.7956 29.0513 15.3027 29.0795 15.9013C29.1077 16.5 29.3331 16.986 29.6077 17.0705C29.6805 17.0583 29.7487 17.0267 29.8049 16.9789Z" fill="#64CF83"/>
<path opacity="0.3" d="M29.9529 16.4789C29.7557 16.4789 29.5866 16.162 29.5655 15.7746C29.5444 15.3872 29.6923 15.021 29.8895 15.014C30.0867 15.0069 30.1219 15.1337 30.1994 15.3238C30.0656 15.1337 29.8543 15.183 29.7697 15.4295C29.7036 15.7048 29.7183 15.9934 29.812 16.2606C29.8895 16.4155 29.974 16.5 30.0937 16.4366C30.0747 16.4534 30.0522 16.4659 30.0279 16.4732C30.0036 16.4805 29.978 16.4824 29.9529 16.4789Z" fill="black"/>
<path d="M25.4382 12.6829C25.0316 12.1509 24.7303 11.5461 24.5508 10.901C24.748 11.1828 25.2551 11.2391 26.0509 10.901C26.306 10.8189 26.5554 10.7201 26.7975 10.6052L26.9877 10.5137L27.213 10.9715L27.0299 11.0701C26.7826 11.1861 26.5468 11.3252 26.3256 11.4856C25.5932 11.9223 25.3326 12.3519 25.4382 12.6829Z" fill="#64CF83"/>
<path opacity="0.2" d="M26.9243 11.1194C26.8247 10.9765 26.7464 10.8199 26.6919 10.6545L26.9877 10.5137L27.2131 10.9715L26.9243 11.1194Z" fill="black"/>
<path d="M27.7621 11.4009C27.8072 11.3777 27.8459 11.3439 27.8748 11.3023C27.8785 11.2861 27.8785 11.2692 27.8748 11.253C27.8748 11.253 27.8748 11.253 27.8748 11.2107C27.9071 10.9479 27.8553 10.6817 27.7269 10.4501C27.6195 10.209 27.4398 10.0072 27.2128 9.87256H27.1705H27.0508C26.9992 9.8768 26.9489 9.89116 26.9029 9.91482C26.858 9.93496 26.8191 9.96653 26.7902 10.0064C26.6494 10.1543 26.6775 10.5346 26.8677 10.9149C27.0578 11.2952 27.3396 11.5488 27.572 11.5277C27.6471 11.5063 27.7136 11.462 27.7621 11.4009Z" fill="#64CF83"/>
<path opacity="0.3" d="M27.7132 11.0348C27.5934 11.0911 27.3821 10.9291 27.2483 10.6685C27.1145 10.4079 27.1145 10.1403 27.2483 10.0769C27.3821 10.0135 27.4314 10.0769 27.5371 10.1896C27.3962 10.1051 27.2694 10.1896 27.2906 10.3868C27.3268 10.585 27.4198 10.7685 27.5582 10.915C27.6498 10.9925 27.7343 11.0207 27.7906 10.915C27.7882 10.9397 27.78 10.9635 27.7665 10.9843C27.753 11.0052 27.7347 11.0225 27.7132 11.0348Z" fill="black"/>
<path d="M23.269 9.20324C22.5564 8.85523 21.9362 8.3436 21.459 7.71012C21.8111 7.90733 22.4521 7.63265 23.3113 6.70297C24.0156 5.93528 24.6565 5.18168 25.1213 4.63232L25.3115 4.3999L25.7834 4.78727L25.5932 5.01969C25.1425 5.57608 24.5227 6.35786 23.9099 7.19598C23.1563 8.21722 23.0085 8.89335 23.269 9.20324Z" fill="#64CF83"/>
<path opacity="0.2" d="M25.5439 5.06257C25.4545 5.01112 25.3697 4.95222 25.2903 4.88649C25.2058 4.81606 25.1354 4.74563 25.0649 4.6752L25.3115 4.37939L25.7833 4.76676L25.5439 5.06257Z" fill="black"/>
<path d="M26.8679 5.06235C26.9152 5.00384 26.951 4.93694 26.9735 4.86515C26.9735 4.86515 26.9735 4.86515 26.9735 4.81585V4.67498C26.9735 4.67498 26.9735 4.63977 26.9735 4.61864C26.8568 4.24836 26.6279 3.9235 26.3185 3.68896C26.0292 3.42734 25.6641 3.26455 25.2761 3.22412H25.1775H25.1001H25.0578C24.9897 3.25452 24.9295 3.30019 24.8819 3.35759C24.8342 3.41499 24.8004 3.48259 24.7831 3.55514C24.6775 3.84391 24.9451 4.33692 25.4311 4.73837C25.9171 5.13982 26.4594 5.30886 26.72 5.15391C26.7733 5.1305 26.8231 5.09967 26.8679 5.06235Z" fill="#64CF83"/>
<path opacity="0.3" d="M26.5859 4.56945C26.4592 4.73144 26.0788 4.63284 25.7408 4.35816C25.4027 4.08348 25.2407 3.73133 25.3745 3.56934C25.5083 3.40735 25.6281 3.47074 25.8323 3.56934C25.5858 3.56934 25.4802 3.73133 25.614 3.97784C25.7875 4.22822 26.0332 4.41984 26.3183 4.52719C26.4873 4.57649 26.6141 4.56945 26.6493 4.43563C26.6464 4.48678 26.6236 4.53477 26.5859 4.56945Z" fill="black"/>
<path d="M19.6766 6.7807C18.9357 6.67375 18.2114 6.47257 17.5215 6.18205C17.9018 6.24544 18.2821 6.02006 18.5146 5.40027C18.7118 4.90022 18.8667 4.40721 18.9723 4.04801L19.0146 3.89307L19.578 4.04801L19.5358 4.20296C19.4372 4.56215 19.3174 5.06925 19.2259 5.61156C19.1132 6.25248 19.3245 6.63984 19.6766 6.7807Z" fill="#64CF83"/>
<path opacity="0.2" d="M19.5076 4.28748L19.2258 4.22409C19.1317 4.20209 19.0397 4.17144 18.9512 4.13253L19.0146 3.89307L19.578 4.04801C19.5569 4.12549 19.5357 4.20296 19.5076 4.28748Z" fill="black"/>
<path d="M20.3322 3.85781C20.3427 3.80432 20.3427 3.74932 20.3322 3.69582C20.3322 3.69582 20.3322 3.69582 20.3322 3.66061C20.3353 3.64432 20.3353 3.6276 20.3322 3.61131V3.57609C20.1491 3.3644 19.9018 3.21846 19.6279 3.16055C19.3623 3.07539 19.0766 3.07539 18.8109 3.16055H18.7687C18.7524 3.15733 18.7356 3.15733 18.7194 3.16055C18.6877 3.20293 18.6638 3.25064 18.6489 3.30141C18.6385 3.35254 18.6385 3.40524 18.6489 3.45636C18.6489 3.6747 18.987 3.9212 19.4237 4.04093C19.58 4.10804 19.751 4.13357 19.92 4.11506C20.0891 4.09655 20.2505 4.03462 20.3886 3.93529C20.3729 3.90731 20.354 3.8813 20.3322 3.85781Z" fill="#64CF83"/>
<path opacity="0.3" d="M20.008 3.65388C19.9728 3.79474 19.6981 3.84404 19.3953 3.75952C19.0924 3.67501 18.8882 3.49189 18.9234 3.35103C18.9586 3.21017 19.0642 3.21017 19.2192 3.20312C19.0502 3.25947 19.0361 3.41442 19.2192 3.53415C19.402 3.64958 19.6159 3.70612 19.8319 3.69614C19.9517 3.69614 20.0362 3.63979 20.0221 3.53415C20.0283 3.55398 20.0302 3.57488 20.0278 3.59551C20.0254 3.61614 20.0186 3.63603 20.008 3.65388Z" fill="black"/>
<path d="M15.4652 6.09086C14.739 6.45714 13.9174 6.58998 13.1128 6.47119C13.4931 6.32328 13.6903 5.49925 13.5213 3.90048C13.479 3.52016 13.472 2.64683 13.3382 1.74532C13.3382 1.60446 13.3029 1.47769 13.2818 1.35796L13.8875 1.27344C13.8875 1.38613 13.9227 1.5129 13.9439 1.65376C14.0847 2.55527 14.2397 3.52016 14.289 3.76667C14.62 5.33022 15.0567 6.05565 15.4652 6.09086Z" fill="#64CF83"/>
<path opacity="0.2" d="M13.9721 1.61846C13.8754 1.64774 13.7765 1.66894 13.6763 1.68184C13.5732 1.69197 13.4694 1.69197 13.3664 1.68184C13.3664 1.54098 13.3312 1.41421 13.3101 1.29448L13.9158 1.20996C13.9369 1.35082 13.951 1.4776 13.9721 1.61846Z" fill="black"/>
<path d="M14.9439 0.512497C14.9295 0.431782 14.8983 0.354994 14.8523 0.28712V0.244861L14.7889 0.188518C14.7774 0.185537 14.7653 0.185537 14.7537 0.188518H14.6974C14.3111 0.00628648 13.8761 -0.0456183 13.4578 0.040613C13.0348 0.0848765 12.6361 0.259638 12.3168 0.54067L12.2746 0.597012C12.2716 0.608561 12.2716 0.620678 12.2746 0.632227L12.2323 0.702659C12.2292 0.721308 12.2292 0.740352 12.2323 0.759002C12.2142 0.837798 12.2142 0.919668 12.2323 0.998464C12.2455 1.07839 12.2742 1.15496 12.3168 1.22384C12.4788 1.5126 13.0775 1.66051 13.7607 1.56191C14.4438 1.4633 14.972 1.13933 15.0425 0.815347C15.028 0.709311 14.9946 0.606735 14.9439 0.512497Z" fill="#64CF83"/>
<path opacity="0.3" d="M14.3525 0.399576C14.3877 0.624953 14.0355 0.864414 13.5637 0.934845C13.0918 1.00527 12.6833 0.878502 12.6551 0.653125C12.6269 0.427749 12.7607 0.371402 12.972 0.265757C12.7678 0.441833 12.8453 0.674253 13.1411 0.744683C13.4663 0.785945 13.7966 0.73213 14.0919 0.589738C14.2539 0.491136 14.3454 0.378446 14.2539 0.244629C14.3049 0.282141 14.3401 0.33742 14.3525 0.399576Z" fill="black"/>
<path d="M11.4931 7.10497C10.8998 7.68561 10.1922 8.13652 9.41537 8.42906C9.73231 8.14734 9.71117 7.49234 9.14773 6.4711C8.68994 5.64707 8.72515 5.7668 8.373 5.17518L8.2251 4.94277L8.7674 4.59766L8.91532 4.83007C9.27452 5.37943 9.27451 5.26674 9.83091 6.03443C10.5211 6.9782 11.1057 7.27401 11.4931 7.10497Z" fill="#64CF83"/>
<path opacity="0.2" d="M8.92235 4.84416C8.757 4.9818 8.57476 5.09777 8.38004 5.18927L8.2251 4.94277L8.7674 4.59766L8.92235 4.84416Z" fill="black"/>
<path opacity="0.3" d="M8.71099 3.90706C8.80254 4.04792 8.63352 4.30852 8.34476 4.49868C8.05599 4.68884 7.73906 4.72405 7.64045 4.58319C7.54185 4.44233 7.64044 4.36486 7.73905 4.23104C7.65453 4.40712 7.77427 4.54094 7.99261 4.49868C8.22359 4.43049 8.42936 4.29576 8.58422 4.11131C8.66873 3.99158 8.68986 3.89298 8.58422 3.82959C8.60972 3.83248 8.63428 3.84092 8.65618 3.8543C8.67808 3.86768 8.69678 3.88569 8.71099 3.90706Z" fill="black"/>
<path d="M7.83089 9.93604C7.52723 10.4553 7.19327 10.9562 6.83077 11.4362C6.89913 11.3329 6.93905 11.2134 6.94647 11.0897C6.95389 10.9661 6.92856 10.8426 6.87305 10.7319C6.74823 10.593 6.60891 10.4679 6.45749 10.3586H6.4082L6.61244 10.0417H6.66879C6.82587 10.1396 6.99683 10.2132 7.17589 10.26C7.30507 10.2792 7.43703 10.2584 7.55409 10.2005C7.67115 10.1426 7.76772 10.0503 7.83089 9.93604Z" fill="#64CF83"/>
<path opacity="0.2" d="M6.73218 10.0487C6.73218 10.105 6.66878 10.1543 6.63356 10.2107C6.60175 10.2662 6.56398 10.3182 6.52089 10.3656L6.4082 10.2881L6.61244 9.97119L6.73218 10.0487Z" fill="black"/>
<path d="M6.60524 9.2246C6.56705 9.19918 6.52378 9.18236 6.47845 9.17529H6.3235C6.10176 9.27189 5.91497 9.43412 5.78825 9.64013C5.64319 9.84609 5.56679 10.0925 5.56992 10.3444V10.3937C5.58842 10.436 5.6207 10.4708 5.66148 10.4923C5.69967 10.5178 5.74292 10.5346 5.78825 10.5416C5.97137 10.5839 6.26013 10.3937 6.49255 10.0627C6.72497 9.73169 6.77426 9.39363 6.66158 9.24573C6.64335 9.23728 6.62452 9.23022 6.60524 9.2246Z" fill="#64CF83"/>
<path opacity="0.3" d="M6.33055 9.42908C6.44324 9.49951 6.40802 9.73898 6.26012 9.96436C6.11221 10.1897 5.90092 10.3165 5.79528 10.2461C5.68963 10.1756 5.7178 10.0911 5.75302 9.96436C5.75302 10.1123 5.8798 10.1686 6.02066 10.07C6.16182 9.94954 6.26466 9.7904 6.31647 9.6122C6.31647 9.50656 6.31648 9.42909 6.23196 9.415C6.26545 9.40753 6.3005 9.41254 6.33055 9.42908Z" fill="black"/>
<path opacity="0.1" d="M21.1204 7.42188C23.7193 9.03473 27.4592 15.8735 23.0291 21.9798C18.599 28.0861 10.9222 25.4872 8.88672 23.8744C9.94775 24.866 11.206 25.6226 12.5794 26.0948C13.9527 26.567 15.4102 26.7442 16.8567 26.6148C18.3032 26.4854 19.7061 26.0523 20.9738 25.3438C22.2415 24.6353 23.3455 23.6673 24.2137 22.5032C25.0819 21.339 25.6947 20.0047 26.0121 18.5876C26.3295 17.1704 26.3444 15.7022 26.0558 14.279C25.7672 12.8557 25.1816 11.5093 24.3372 10.3277C23.4929 9.14611 22.4087 8.15595 21.1557 7.42188H21.1204Z" fill="black"/>
<path d="M18.4587 21.9655C18.7083 21.7518 19.0308 21.6428 19.3589 21.6612C19.6869 21.6795 19.9952 21.8239 20.2195 22.0641C20.3174 22.3669 20.314 22.6933 20.2099 22.994C20.1058 23.2947 19.9066 23.5534 19.6424 23.7308C19.3782 23.9083 19.0635 23.9949 18.7457 23.9775C18.4279 23.9602 18.1245 23.8398 17.8812 23.6347C17.745 23.3354 17.7291 22.9954 17.8366 22.6847C17.9441 22.3741 18.1668 22.1166 18.4587 21.9655Z" fill="#64CF83"/>
<path opacity="0.15" d="M18.4587 21.9655C18.7083 21.7518 19.0308 21.6428 19.3589 21.6612C19.6869 21.6795 19.9952 21.8239 20.2195 22.0641C20.3174 22.3669 20.314 22.6933 20.2099 22.994C20.1058 23.2947 19.9066 23.5534 19.6424 23.7308C19.3782 23.9083 19.0635 23.9949 18.7457 23.9775C18.4279 23.9602 18.1245 23.8398 17.8812 23.6347C17.745 23.3354 17.7291 22.9954 17.8366 22.6847C17.9441 22.3741 18.1668 22.1166 18.4587 21.9655Z" fill="black"/>
<path opacity="0.15" d="M18.4653 23.6772C18.0991 23.6068 18.0639 22.9729 18.6344 22.5433C18.8061 22.3831 19.0204 22.276 19.2515 22.2348C19.4827 22.1935 19.7208 22.22 19.9373 22.3109C19.9832 22.3477 20.0211 22.3933 20.0488 22.4451C20.0766 22.4969 20.0936 22.5538 20.0989 22.6123C20.1041 22.6708 20.0975 22.7298 20.0795 22.7857C20.0614 22.8417 20.0322 22.8933 19.9937 22.9377C20.05 22.7053 19.9021 22.501 19.557 22.494C19.3368 22.4989 19.1212 22.5573 18.9286 22.664C18.736 22.7707 18.5721 22.9227 18.4512 23.1067C18.3819 23.1864 18.3448 23.2891 18.3474 23.3947C18.3501 23.5003 18.3921 23.6011 18.4653 23.6772Z" fill="black"/>
<path d="M15.2962 9.95046C15.0889 9.95834 14.8836 9.90777 14.7038 9.80453C14.5239 9.70129 14.3767 9.54954 14.2789 9.36662C14.1812 9.1837 14.1369 8.97697 14.151 8.77006C14.1652 8.56314 14.2372 8.36437 14.3589 8.19646C14.4807 8.02854 14.6472 7.89825 14.8395 7.82046C15.0317 7.74268 15.242 7.72053 15.4462 7.75655C15.6505 7.79257 15.8405 7.88531 15.9945 8.02417C16.1486 8.16303 16.2605 8.34243 16.3174 8.54185C16.4935 9.07008 16.0357 9.71099 15.2962 9.95046Z" fill="#64CF83"/>
<path opacity="0.15" d="M15.2962 9.95046C15.0889 9.95834 14.8836 9.90777 14.7038 9.80453C14.5239 9.70129 14.3767 9.54954 14.2789 9.36662C14.1812 9.1837 14.1369 8.97697 14.151 8.77006C14.1652 8.56314 14.2372 8.36437 14.3589 8.19646C14.4807 8.02854 14.6472 7.89825 14.8395 7.82046C15.0317 7.74268 15.242 7.72053 15.4462 7.75655C15.6505 7.79257 15.8405 7.88531 15.9945 8.02417C16.1486 8.16303 16.2605 8.34243 16.3174 8.54185C16.4935 9.07008 16.0357 9.71099 15.2962 9.95046Z" fill="black"/>
<path opacity="0.15" d="M15.7681 8.31641C16.0991 8.48544 15.9653 9.09114 15.2892 9.35877C15.079 9.46473 14.8426 9.50717 14.6087 9.4809C14.3748 9.45464 14.1536 9.3608 13.9722 9.21087C13.9392 9.16298 13.916 9.10899 13.9042 9.05205C13.8923 8.99512 13.892 8.93639 13.9031 8.87931C13.9143 8.82224 13.9367 8.76796 13.9691 8.71967C14.0016 8.67139 14.0433 8.63006 14.0919 8.59812C13.9722 8.80237 14.0567 9.04184 14.3877 9.14044C14.6011 9.19839 14.8254 9.20367 15.0413 9.15582C15.2572 9.10798 15.4583 9.00844 15.6273 8.86576C15.8315 8.68264 15.8738 8.45727 15.7681 8.31641Z" fill="black"/>
<path d="M13.1622 18.0779C13.2303 18.2358 13.2533 18.4096 13.2286 18.5798C13.2039 18.75 13.1325 18.91 13.0223 19.0421C12.912 19.1741 12.7673 19.273 12.6043 19.3277C12.4412 19.3824 12.2661 19.3908 12.0986 19.352C11.931 19.3131 11.7775 19.2285 11.6552 19.1076C11.5328 18.9867 11.4464 18.8343 11.4055 18.6672C11.3647 18.5001 11.3709 18.325 11.4237 18.1613C11.4764 17.9975 11.5735 17.8517 11.7043 17.7398C11.9428 17.5927 12.2297 17.5457 12.5027 17.609C12.7757 17.6723 13.0127 17.8408 13.1622 18.0779Z" fill="#64CF83"/>
<path opacity="0.15" d="M13.1622 18.0779C13.2303 18.2358 13.2533 18.4096 13.2286 18.5798C13.2039 18.75 13.1325 18.91 13.0223 19.0421C12.912 19.1741 12.7673 19.273 12.6043 19.3277C12.4412 19.3824 12.2661 19.3908 12.0986 19.352C11.931 19.3131 11.7775 19.2285 11.6552 19.1076C11.5328 18.9867 11.4464 18.8343 11.4055 18.6672C11.3647 18.5001 11.3709 18.325 11.4237 18.1613C11.4764 17.9975 11.5735 17.8517 11.7043 17.7398C11.9428 17.5927 12.2297 17.5457 12.5027 17.609C12.7757 17.6723 13.0127 17.8408 13.1622 18.0779Z" fill="black"/>
<path opacity="0.15" d="M11.7461 18.2541C11.7461 17.9442 12.2814 17.8456 12.704 18.2541C12.8564 18.38 12.9684 18.5479 13.026 18.737C13.0836 18.9262 13.0843 19.128 13.0279 19.3175C13.0021 19.3593 12.9682 19.3955 12.9281 19.4239C12.8881 19.4523 12.8427 19.4723 12.7947 19.4828C12.7468 19.4934 12.6972 19.4941 12.6489 19.4851C12.6006 19.476 12.5547 19.4574 12.5138 19.4302C12.718 19.4302 12.873 19.3035 12.8378 19.0217C12.8133 18.8376 12.744 18.6623 12.6359 18.5113C12.5279 18.3602 12.3843 18.238 12.218 18.1554C12.0067 18.085 11.8165 18.1273 11.7461 18.2541Z" fill="black"/>
<path d="M18.818 16.5427C18.818 15.7609 19.3532 15.1341 19.9378 15.1763C20.2584 15.2445 20.5407 15.4328 20.7267 15.7027C20.9127 15.9725 20.9883 16.3033 20.9379 16.6272C20.9027 17.409 20.4026 18.0358 19.8181 17.9935C19.4966 17.927 19.2133 17.739 19.027 17.4687C18.8407 17.1985 18.7658 16.8668 18.818 16.5427Z" fill="#64CF83"/>
<path opacity="0.15" d="M18.818 16.5427C18.818 15.7609 19.3532 15.1341 19.9378 15.1763C20.2584 15.2445 20.5407 15.4328 20.7267 15.7027C20.9127 15.9725 20.9883 16.3033 20.9379 16.6272C20.9027 17.409 20.4026 18.0358 19.8181 17.9935C19.4966 17.927 19.2133 17.739 19.027 17.4687C18.8407 17.1985 18.7658 16.8668 18.818 16.5427Z" fill="black"/>
<path opacity="0.15" d="M20.191 17.5429C19.9163 17.7964 19.3952 17.4584 19.374 16.74C19.374 16.1695 19.6417 15.6413 19.9656 15.5497C20.0221 15.535 20.0809 15.5318 20.1386 15.5402C20.1963 15.5486 20.2517 15.5685 20.3016 15.5987C20.3515 15.6289 20.3949 15.6688 20.4291 15.716C20.4633 15.7633 20.4877 15.8169 20.5009 15.8737C20.3459 15.6906 20.0924 15.6906 19.8882 15.9652C19.7593 16.1443 19.6766 16.3523 19.6471 16.571C19.6176 16.7896 19.6423 17.0121 19.7191 17.2189C19.8248 17.4724 20.0149 17.5922 20.191 17.5429Z" fill="black"/>
<path d="M11.0773 20.7679C11.1534 20.9589 11.1747 21.1672 11.139 21.3696C11.1032 21.572 11.0118 21.7604 10.8749 21.9137C10.738 22.067 10.561 22.1791 10.3639 22.2375C10.1669 22.2958 9.95743 22.2981 9.75914 22.244C9.56085 22.1899 9.38158 22.0817 9.2414 21.9313C9.10123 21.781 9.00571 21.5946 8.9656 21.393C8.92548 21.1915 8.94236 20.9827 9.0143 20.7902C9.08625 20.5976 9.21042 20.429 9.3729 20.3031C9.66203 20.1454 10.001 20.1057 10.3187 20.1924C10.6364 20.279 10.9083 20.4853 11.0773 20.7679Z" fill="#64CF83"/>
<path opacity="0.15" d="M11.0773 20.7679C11.1534 20.9589 11.1747 21.1672 11.139 21.3696C11.1032 21.572 11.0118 21.7604 10.8749 21.9137C10.738 22.067 10.561 22.1791 10.3639 22.2375C10.1669 22.2958 9.95743 22.2981 9.75914 22.244C9.56085 22.1899 9.38158 22.0817 9.2414 21.9313C9.10123 21.781 9.00571 21.5946 8.9656 21.393C8.92548 21.1915 8.94236 20.9827 9.0143 20.7902C9.08625 20.5976 9.21042 20.429 9.3729 20.3031C9.66203 20.1454 10.001 20.1057 10.3187 20.1924C10.6364 20.279 10.9083 20.4853 11.0773 20.7679Z" fill="black"/>
<path opacity="0.15" d="M9.37988 20.8807C9.42214 20.5144 10.0419 20.437 10.5208 20.9722C10.6941 21.1324 10.8165 21.3399 10.8729 21.5691C10.9292 21.7982 10.917 22.0389 10.8378 22.2611C10.8036 22.3083 10.7604 22.3483 10.7107 22.3788C10.6611 22.4092 10.6059 22.4296 10.5483 22.4388C10.4908 22.448 10.432 22.4457 10.3753 22.4321C10.3186 22.4186 10.2652 22.3939 10.218 22.3597C10.4575 22.402 10.6476 22.24 10.6335 21.8949C10.6121 21.6735 10.5367 21.4608 10.4139 21.2754C10.2911 21.09 10.1247 20.9375 9.92924 20.8314C9.70386 20.7046 9.47849 20.7328 9.37988 20.8807Z" fill="black"/>
<path d="M16.5569 13.1475C16.4129 13.1057 16.2806 13.0312 16.1702 12.9297C16.0598 12.8283 15.9744 12.7027 15.9206 12.5627C15.8668 12.4228 15.8462 12.2723 15.8602 12.123C15.8743 11.9737 15.9227 11.8297 16.0016 11.7023C16.0806 11.5748 16.188 11.4674 16.3153 11.3883C16.4427 11.3093 16.5867 11.2607 16.7359 11.2465C16.8852 11.2324 17.0357 11.2529 17.1757 11.3065C17.3157 11.3602 17.4414 11.4455 17.5429 11.5558C17.6869 11.5976 17.8193 11.6721 17.9296 11.7736C18.04 11.8751 18.1254 12.0007 18.1792 12.1406C18.233 12.2806 18.2536 12.4311 18.2396 12.5803C18.2255 12.7296 18.1771 12.8736 18.0982 13.001C18.0192 13.1285 17.9119 13.2359 17.7845 13.315C17.6571 13.3941 17.5131 13.4426 17.3639 13.4568C17.2146 13.471 17.0641 13.4504 16.9241 13.3968C16.7841 13.3431 16.6585 13.2578 16.5569 13.1475Z" fill="#64CF83"/>
<path opacity="0.15" d="M16.5569 13.1475C16.4129 13.1057 16.2806 13.0312 16.1702 12.9297C16.0598 12.8283 15.9744 12.7027 15.9206 12.5627C15.8668 12.4228 15.8462 12.2723 15.8602 12.123C15.8743 11.9737 15.9227 11.8297 16.0016 11.7023C16.0806 11.5748 16.188 11.4674 16.3153 11.3883C16.4427 11.3093 16.5867 11.2607 16.7359 11.2465C16.8852 11.2324 17.0357 11.2529 17.1757 11.3065C17.3157 11.3602 17.4414 11.4455 17.5429 11.5558C17.6869 11.5976 17.8193 11.6721 17.9296 11.7736C18.04 11.8751 18.1254 12.0007 18.1792 12.1406C18.233 12.2806 18.2536 12.4311 18.2396 12.5803C18.2255 12.7296 18.1771 12.8736 18.0982 13.001C18.0192 13.1285 17.9119 13.2359 17.7845 13.315C17.6571 13.3941 17.5131 13.4426 17.3639 13.4568C17.2146 13.471 17.0641 13.4504 16.9241 13.3968C16.7841 13.3431 16.6585 13.2578 16.5569 13.1475Z" fill="black"/>
<path opacity="0.15" d="M17.9231 12.5278C18.0006 12.8447 17.5146 13.1053 16.9512 12.8025C16.5075 12.563 16.2469 12.0982 16.2891 11.8376C16.3013 11.7874 16.3236 11.7402 16.3546 11.6989C16.3856 11.6576 16.4247 11.623 16.4695 11.5973C16.5143 11.5716 16.5639 11.5553 16.6153 11.5494C16.6666 11.5435 16.7186 11.5481 16.7681 11.5629C16.5638 11.5629 16.4511 11.7953 16.5708 12.0771C16.6503 12.2591 16.7735 12.4187 16.9296 12.5416C17.0857 12.6645 17.2697 12.7468 17.4653 12.7814C17.7118 12.8095 17.8879 12.6757 17.9231 12.5278Z" fill="black"/>
<path d="M11.535 12.4575C10.9645 13.3731 9.93624 13.7604 9.25306 13.3308C8.56989 12.9012 8.47131 11.8095 9.04883 10.8939C9.62636 9.97833 10.6476 9.59096 11.3308 10.0276C12.0139 10.4643 12.1125 11.5489 11.535 12.4575Z" fill="#64CF83"/>
<path opacity="0.15" d="M11.535 12.4575C10.9645 13.3731 9.93624 13.7604 9.25306 13.3308C8.56989 12.9012 8.47131 11.8095 9.04883 10.8939C9.62636 9.97833 10.6476 9.59096 11.3308 10.0276C12.0139 10.4643 12.1125 11.5489 11.535 12.4575Z" fill="black"/>
<path opacity="0.15" d="M10.577 10.302C11.0771 10.1894 11.4785 10.957 10.9996 11.8374C10.6193 12.5417 9.92201 12.9784 9.47126 12.8657C9.39338 12.8438 9.32062 12.8067 9.25716 12.7565C9.1937 12.7064 9.14079 12.6441 9.1015 12.5734C9.06222 12.5027 9.03734 12.4249 9.02828 12.3445C9.01921 12.2641 9.02615 12.1827 9.04869 12.1051C9.11208 12.429 9.41492 12.6051 9.85159 12.415C10.1317 12.2866 10.3755 12.0907 10.5611 11.8449C10.7468 11.599 10.8684 11.3109 10.9151 11.0063C10.9996 10.6401 10.8165 10.3654 10.577 10.302Z" fill="black"/>
<path d="M22.17 19.0848C22.2606 18.9613 22.3838 18.8655 22.5258 18.8081C22.6677 18.7507 22.8229 18.734 22.9738 18.7599C23.1248 18.7858 23.2655 18.8532 23.3803 18.9546C23.495 19.0561 23.5793 19.1875 23.6235 19.3341C23.6677 19.4807 23.6702 19.6368 23.6307 19.7847C23.5912 19.9327 23.5112 20.0667 23.3998 20.1717C23.2883 20.2768 23.1498 20.3487 22.9998 20.3794C22.8497 20.4101 22.6941 20.3984 22.5503 20.3455C22.3378 20.2239 22.1799 20.0254 22.1092 19.7909C22.0384 19.5564 22.0602 19.3038 22.17 19.0848Z" fill="#64CF83"/>
<path opacity="0.15" d="M22.17 19.0848C22.2606 18.9613 22.3838 18.8655 22.5258 18.8081C22.6677 18.7507 22.8229 18.734 22.9738 18.7599C23.1248 18.7858 23.2655 18.8532 23.3803 18.9546C23.495 19.0561 23.5793 19.1875 23.6235 19.3341C23.6677 19.4807 23.6702 19.6368 23.6307 19.7847C23.5912 19.9327 23.5112 20.0667 23.3998 20.1717C23.2883 20.2768 23.1498 20.3487 22.9998 20.3794C22.8497 20.4101 22.6941 20.3984 22.5503 20.3455C22.3378 20.2239 22.1799 20.0254 22.1092 19.7909C22.0384 19.5564 22.0602 19.3038 22.17 19.0848Z" fill="black"/>
<path opacity="0.15" d="M22.9167 20.1129C22.6702 20.2256 22.3673 19.8664 22.5222 19.3523C22.6772 18.8381 22.9589 18.6479 23.2265 18.6479C23.27 18.6506 23.3126 18.6619 23.3517 18.6811C23.3909 18.7002 23.4258 18.7269 23.4546 18.7597C23.4834 18.7924 23.5055 18.8305 23.5195 18.8717C23.5336 18.913 23.5393 18.9566 23.5364 19.0001C23.466 18.8311 23.2829 18.7747 23.0787 18.9226C22.9468 19.0228 22.8409 19.153 22.7699 19.3025C22.6988 19.4521 22.6646 19.6164 22.6702 19.7819C22.6772 19.9791 22.7829 20.1059 22.9167 20.1129Z" fill="black"/>
<path d="M21.7895 14.0913C21.7774 13.8819 21.8239 13.6733 21.9239 13.489C22.0239 13.3047 22.1733 13.1519 22.3554 13.0479C22.5374 12.9439 22.7449 12.8927 22.9545 12.9001C23.164 12.9076 23.3674 12.9733 23.5416 13.09C23.7158 13.2067 23.854 13.3697 23.9407 13.5607C24.0273 13.7516 24.059 13.963 24.032 14.1709C24.0051 14.3789 23.9207 14.5752 23.7883 14.7378C23.6559 14.9004 23.4808 15.0229 23.2826 15.0914C22.7191 15.2886 22.0571 14.8449 21.7895 14.0913Z" fill="#64CF83"/>
<path opacity="0.15" d="M21.7895 14.0913C21.7774 13.8819 21.8239 13.6733 21.9239 13.489C22.0239 13.3047 22.1733 13.1519 22.3554 13.0479C22.5374 12.9439 22.7449 12.8927 22.9545 12.9001C23.164 12.9076 23.3674 12.9733 23.5416 13.09C23.7158 13.2067 23.854 13.3697 23.9407 13.5607C24.0273 13.7516 24.059 13.963 24.032 14.1709C24.0051 14.3789 23.9207 14.5752 23.7883 14.7378C23.6559 14.9004 23.4808 15.0229 23.2826 15.0914C22.7191 15.2886 22.0571 14.8449 21.7895 14.0913Z" fill="black"/>
<path opacity="0.15" d="M23.4659 14.5279C23.3039 14.866 22.6841 14.7463 22.3953 14.0701C22.282 13.8594 22.2317 13.6205 22.2504 13.382C22.2691 13.1435 22.3561 12.9154 22.501 12.7249C22.5993 12.6558 22.7209 12.6281 22.8395 12.6478C22.9582 12.6676 23.0642 12.7332 23.1348 12.8306C22.9165 12.7179 22.6771 12.8306 22.5855 13.1475C22.5356 13.3655 22.5382 13.5923 22.5934 13.8091C22.6485 14.0259 22.7544 14.2264 22.9024 14.3941C23.0996 14.5984 23.325 14.6406 23.4659 14.5279Z" fill="black"/>
<path d="M19.557 10.2668C19.4577 10.2391 19.3657 10.1898 19.2875 10.1225C19.2093 10.0553 19.1468 9.97166 19.1045 9.8776C19.0622 9.78355 19.041 9.68134 19.0426 9.57822C19.0441 9.47509 19.0682 9.37355 19.1133 9.28078C19.1584 9.18801 19.2233 9.10628 19.3034 9.04135C19.3835 8.97642 19.477 8.92988 19.5771 8.90503C19.6772 8.88018 19.7815 8.87761 19.8827 8.89752C19.9839 8.91742 20.0795 8.95931 20.1627 9.02023C20.2621 9.04801 20.3541 9.09728 20.4323 9.16453C20.5105 9.23179 20.5729 9.3154 20.6152 9.40946C20.6576 9.50351 20.6787 9.60571 20.6772 9.70884C20.6757 9.81197 20.6515 9.91351 20.6065 10.0063C20.5614 10.099 20.4965 10.1808 20.4164 10.2457C20.3362 10.3106 20.2428 10.3572 20.1427 10.382C20.0426 10.4069 19.9383 10.4094 19.8371 10.3895C19.7359 10.3696 19.6403 10.3278 19.557 10.2668Z" fill="#64CF83"/>
<path opacity="0.15" d="M19.557 10.2668C19.4577 10.2391 19.3657 10.1898 19.2875 10.1225C19.2093 10.0553 19.1468 9.97166 19.1045 9.8776C19.0622 9.78355 19.041 9.68134 19.0426 9.57822C19.0441 9.47509 19.0682 9.37355 19.1133 9.28078C19.1584 9.18801 19.2233 9.10628 19.3034 9.04135C19.3835 8.97642 19.477 8.92988 19.5771 8.90503C19.6772 8.88018 19.7815 8.87761 19.8827 8.89752C19.9839 8.91742 20.0795 8.95931 20.1627 9.02023C20.2621 9.04801 20.3541 9.09728 20.4323 9.16453C20.5105 9.23179 20.5729 9.3154 20.6152 9.40946C20.6576 9.50351 20.6787 9.60571 20.6772 9.70884C20.6757 9.81197 20.6515 9.91351 20.6065 10.0063C20.5614 10.099 20.4965 10.1808 20.4164 10.2457C20.3362 10.3106 20.2428 10.3572 20.1427 10.382C20.0426 10.4069 19.9383 10.4094 19.8371 10.3895C19.7359 10.3696 19.6403 10.3278 19.557 10.2668Z" fill="black"/>
<path opacity="0.15" d="M20.5149 9.71057C20.5994 9.93595 20.2613 10.1613 19.8106 9.98525C19.3598 9.80918 19.219 9.54155 19.2542 9.32321C19.2602 9.28575 19.2735 9.24983 19.2934 9.21751C19.3133 9.1852 19.3393 9.15712 19.3701 9.13488C19.4008 9.11264 19.4356 9.09668 19.4726 9.08791C19.5095 9.07913 19.5477 9.07772 19.5852 9.08375C19.4373 9.13305 19.3669 9.28095 19.4796 9.47815C19.5528 9.60136 19.6555 9.70447 19.7785 9.77822C19.9014 9.85197 20.0407 9.89407 20.1839 9.90074C20.3811 9.90778 20.5008 9.82326 20.5149 9.71057Z" fill="black"/>
<path d="M8.77462 16.9582C8.82705 17.1663 8.79695 17.3866 8.69062 17.5731C8.58428 17.7595 8.40996 17.8975 8.20413 17.9583C7.82381 18.0076 7.49984 17.6414 7.40124 17.1343C7.35028 16.9272 7.38016 16.7084 7.48485 16.5226C7.58953 16.3368 7.76114 16.1979 7.96467 16.1342C8.345 16.0919 8.70418 16.4582 8.77462 16.9582Z" fill="#64CF83"/>
<path opacity="0.15" d="M8.77462 16.9582C8.82705 17.1663 8.79695 17.3866 8.69062 17.5731C8.58428 17.7595 8.40996 17.8975 8.20413 17.9583C7.82381 18.0076 7.49984 17.6414 7.40124 17.1343C7.35028 16.9272 7.38016 16.7084 7.48485 16.5226C7.58953 16.3368 7.76114 16.1979 7.96467 16.1342C8.345 16.0919 8.70418 16.4582 8.77462 16.9582Z" fill="black"/>
<path opacity="0.15" d="M7.77393 16.4653C7.92183 16.2751 8.30215 16.4653 8.38667 16.8949C8.43918 17.0403 8.4478 17.1979 8.41149 17.3482C8.37518 17.4984 8.29552 17.6347 8.18241 17.7401C8.11114 17.7693 8.03142 17.7703 7.95946 17.7428C7.88749 17.7153 7.8287 17.6615 7.79505 17.5922C7.91479 17.6908 8.08381 17.6626 8.18241 17.4654C8.24791 17.3379 8.28208 17.1967 8.28208 17.0534C8.28208 16.9101 8.24791 16.7688 8.18241 16.6414C8.02042 16.4723 7.87957 16.416 7.77393 16.4653Z" fill="black"/>
<path d="M16.1692 19.6622C16.2965 19.6396 16.4277 19.6526 16.5482 19.6996C16.6687 19.7467 16.7739 19.8261 16.8523 19.929C16.9307 20.0319 16.9792 20.1544 16.9925 20.2831C17.0058 20.4118 16.9835 20.5417 16.9278 20.6585C16.8722 20.7753 16.7855 20.8745 16.6772 20.9453C16.5689 21.016 16.4432 21.0556 16.3139 21.0596C16.1846 21.0637 16.0567 21.032 15.9442 20.9681C15.8317 20.9042 15.7389 20.8106 15.6762 20.6975C15.6096 20.4946 15.6237 20.2739 15.7155 20.0812C15.8073 19.8884 15.9697 19.7384 16.1692 19.6622Z" fill="#64CF83"/>
<path opacity="0.15" d="M16.1692 19.6622C16.2965 19.6396 16.4277 19.6526 16.5482 19.6996C16.6687 19.7467 16.7739 19.8261 16.8523 19.929C16.9307 20.0319 16.9792 20.1544 16.9925 20.2831C17.0058 20.4118 16.9835 20.5417 16.9278 20.6585C16.8722 20.7753 16.7855 20.8745 16.6772 20.9453C16.5689 21.016 16.4432 21.0556 16.3139 21.0596C16.1846 21.0637 16.0567 21.032 15.9442 20.9681C15.8317 20.9042 15.7389 20.8106 15.6762 20.6975C15.6096 20.4946 15.6237 20.2739 15.7155 20.0812C15.8073 19.8884 15.9697 19.7384 16.1692 19.6622Z" fill="black"/>
<path opacity="0.15" d="M16.0497 20.7684C15.8173 20.698 15.8384 20.2895 16.2398 20.0641C16.3644 19.9743 16.5117 19.9214 16.6649 19.9114C16.8181 19.9014 16.971 19.9348 17.1061 20.0078C17.1608 20.0632 17.1914 20.1378 17.1914 20.2156C17.1914 20.2933 17.1608 20.368 17.1061 20.4233C17.1625 20.2754 17.1061 20.1275 16.8596 20.0994C16.7157 20.0874 16.571 20.1099 16.4375 20.165C16.3039 20.2201 16.1855 20.3062 16.0919 20.4163C16.0456 20.4613 16.0161 20.5208 16.0084 20.5849C16.0008 20.649 16.0153 20.7138 16.0497 20.7684Z" fill="black"/>
<path d="M13.0425 14.4366C13.0041 14.5297 12.9462 14.6135 12.8727 14.6823C12.7992 14.7511 12.7118 14.8034 12.6164 14.8355C12.521 14.8677 12.4198 14.8791 12.3197 14.8688C12.2195 14.8586 12.1227 14.827 12.0358 14.7762C11.9489 14.7253 11.8738 14.6565 11.8158 14.5742C11.7578 14.4919 11.718 14.3981 11.6993 14.2992C11.6806 14.2003 11.6833 14.0985 11.7072 14.0007C11.7312 13.9029 11.7758 13.8114 11.8381 13.7323C11.8765 13.6392 11.9344 13.5554 12.0079 13.4866C12.0814 13.4178 12.1688 13.3655 12.2642 13.3333C12.3596 13.3011 12.4608 13.2898 12.5609 13.3C12.6611 13.3103 12.7579 13.3419 12.8448 13.3927C12.9317 13.4435 13.0067 13.5124 13.0648 13.5947C13.1228 13.677 13.1625 13.7707 13.1813 13.8697C13.2 13.9686 13.1973 14.0704 13.1734 14.1682C13.1494 14.266 13.1048 14.3575 13.0425 14.4366Z" fill="#64CF83"/>
<path opacity="0.15" d="M13.0425 14.4366C13.0041 14.5297 12.9462 14.6135 12.8727 14.6823C12.7992 14.7511 12.7118 14.8034 12.6164 14.8355C12.521 14.8677 12.4198 14.8791 12.3197 14.8688C12.2195 14.8586 12.1227 14.827 12.0358 14.7762C11.9489 14.7253 11.8738 14.6565 11.8158 14.5742C11.7578 14.4919 11.718 14.3981 11.6993 14.2992C11.6806 14.2003 11.6833 14.0985 11.7072 14.0007C11.7312 13.9029 11.7758 13.8114 11.8381 13.7323C11.8765 13.6392 11.9344 13.5554 12.0079 13.4866C12.0814 13.4178 12.1688 13.3655 12.2642 13.3333C12.3596 13.3011 12.4608 13.2898 12.5609 13.3C12.6611 13.3103 12.7579 13.3419 12.8448 13.3927C12.9317 13.4435 13.0067 13.5124 13.0648 13.5947C13.1228 13.677 13.1625 13.7707 13.1813 13.8697C13.2 13.9686 13.1973 14.0704 13.1734 14.1682C13.1494 14.266 13.1048 14.3575 13.0425 14.4366Z" fill="black"/>
<path opacity="0.15" d="M12.5428 13.4435C12.7752 13.3801 12.9794 13.7322 12.7752 14.1478C12.5709 14.5633 12.2963 14.7041 12.0709 14.6619C12.0338 14.6528 11.9988 14.6365 11.9681 14.6139C11.9373 14.5912 11.9114 14.5627 11.8917 14.5299C11.8721 14.4972 11.8591 14.4608 11.8536 14.4231C11.8481 14.3853 11.8501 14.3467 11.8596 14.3097C11.8596 14.4647 12.0427 14.5422 12.2399 14.4436C12.3715 14.3754 12.4837 14.2751 12.5662 14.152C12.6487 14.0288 12.6988 13.8869 12.7118 13.7393C12.7329 13.5914 12.6625 13.4646 12.5428 13.4435Z" fill="black"/>
<path d="M14.0776 23.5079C14.5777 23.6135 14.9158 24.0009 14.8383 24.3742C14.7622 24.5734 14.6117 24.7354 14.4186 24.826C14.2256 24.9167 14.0049 24.9289 13.803 24.8602C13.3029 24.7616 12.9648 24.3742 13.0423 24.0009C13.1156 23.7992 13.2652 23.6345 13.4589 23.5423C13.6526 23.45 13.8749 23.4377 14.0776 23.5079Z" fill="#64CF83"/>
<path opacity="0.15" d="M14.0776 23.5079C14.5777 23.6135 14.9158 24.0009 14.8383 24.3742C14.7622 24.5734 14.6117 24.7354 14.4186 24.826C14.2256 24.9167 14.0049 24.9289 13.803 24.8602C13.3029 24.7616 12.9648 24.3742 13.0423 24.0009C13.1156 23.7992 13.2652 23.6345 13.4589 23.5423C13.6526 23.45 13.8749 23.4377 14.0776 23.5079Z" fill="black"/>
<path opacity="0.15" d="M13.2888 24.2826C13.155 24.0854 13.4296 23.7826 13.8945 23.846C14.3593 23.9094 14.5988 24.1347 14.5988 24.3531C14.6017 24.391 14.597 24.4291 14.5851 24.4653C14.5732 24.5014 14.5543 24.5348 14.5294 24.5636C14.5045 24.5924 14.4742 24.616 14.4402 24.6331C14.4062 24.6501 14.3691 24.6603 14.3312 24.663C14.465 24.5855 14.4932 24.4165 14.3312 24.2545C14.2282 24.1547 14.1029 24.0809 13.9657 24.0393C13.8285 23.9976 13.6834 23.9893 13.5423 24.015C13.3733 24.0784 13.2747 24.1699 13.2888 24.2826Z" fill="black"/>
<path d="M16.3031 14.9226C16.5568 15.0575 16.7631 15.2669 16.8944 15.5224C17.0257 15.778 17.0757 16.0676 17.0377 16.3524C16.9997 16.6373 16.8755 16.9036 16.6818 17.1159C16.4881 17.3281 16.2341 17.476 15.9539 17.5397C15.6737 17.6034 15.3808 17.5799 15.1143 17.4724C14.8479 17.3648 14.6207 17.1784 14.4632 16.938C14.3058 16.6977 14.2256 16.4149 14.2334 16.1277C14.2413 15.8404 14.3368 15.5625 14.5071 15.3311C14.6912 15.0389 14.9838 14.8317 15.3206 14.7551C15.6573 14.6785 16.0107 14.7388 16.3031 14.9226Z" fill="#64CF83"/>
<path opacity="0.15" d="M16.3031 14.9226C16.5568 15.0575 16.7631 15.2669 16.8944 15.5224C17.0257 15.778 17.0757 16.0676 17.0377 16.3524C16.9997 16.6373 16.8755 16.9036 16.6818 17.1159C16.4881 17.3281 16.2341 17.476 15.9539 17.5397C15.6737 17.6034 15.3808 17.5799 15.1143 17.4724C14.8479 17.3648 14.6207 17.1784 14.4632 16.938C14.3058 16.6977 14.2256 16.4149 14.2334 16.1277C14.2413 15.8404 14.3368 15.5625 14.5071 15.3311C14.6912 15.0389 14.9838 14.8317 15.3206 14.7551C15.6573 14.6785 16.0107 14.7388 16.3031 14.9226Z" fill="black"/>
<path opacity="0.15" d="M14.6411 16.5701C14.7045 16.6788 14.7916 16.7718 14.8958 16.8422C15.0001 16.9127 15.1188 16.9587 15.2433 16.977C15.3678 16.9953 15.4948 16.9853 15.6149 16.9478C15.735 16.9102 15.8451 16.8462 15.937 16.7603C16.4723 16.3729 16.5709 15.3517 15.9934 15.1475C16.069 15.3578 16.088 15.5844 16.0485 15.8045C16.0089 16.0245 15.9122 16.2303 15.768 16.4011C15.7053 16.4865 15.6264 16.5587 15.5357 16.6134C15.4451 16.6682 15.3445 16.7045 15.2397 16.7202C15.135 16.7359 15.0282 16.7307 14.9254 16.705C14.8227 16.6792 14.7261 16.6334 14.6411 16.5701Z" fill="black"/>
</svg>
